<svg width="20" height="20" viewBox="0 0 20 20" fill="none" xmlns="http://www.w3.org/2000/svg">
<g id="Icons/access_time_24px">
<path id="icon" fill-rule="evenodd" clip-rule="evenodd" d="M9.99175 1.66675C5.39175 1.66675 1.66675 5.40008 1.66675 10.0001C1.66675 14.6001 5.39175 18.3334 9.99175 18.3334C14.6001 18.3334 18.3334 14.6001 18.3334 10.0001C18.3334 5.40008 14.6001 1.66675 9.99175 1.66675ZM10.0001 16.6667C6.31675 16.6667 3.33341 13.6834 3.33341 10.0001C3.33341 6.31675 6.31675 3.33341 10.0001 3.33341C13.6834 3.33341 16.6667 6.31675 16.6667 10.0001C16.6667 13.6834 13.6834 16.6667 10.0001 16.6667ZM9.16675 10.8917L13.7417 13.6334L14.5917 12.2001L10.8334 9.94175V5.35008H9.16675V10.8917Z" fill="#403B3B"/>
</g>
</svg>
