<svg width="195" height="198" viewBox="0 0 195 198" fill="none" xmlns="http://www.w3.org/2000/svg">
<path d="M164 7H135.798L130.817 33.2505M130.817 33.2505L116.256 110H21.4342L7 33.2505H130.817Z" stroke="#009DE0" stroke-width="14" stroke-linejoin="round"/>
<path d="M35 33L42 110" stroke="#009DE0" stroke-width="14"/>
<path d="M102 33L95 110" stroke="#009DE0" stroke-width="14"/>
<path d="M12 58H125" stroke="#009DE0" stroke-width="14"/>
<path d="M16 84H121" stroke="#009DE0" stroke-width="14"/>
<path d="M68 33V109" stroke="#009DE0" stroke-width="14"/>
<path d="M22.552 110H115.5C123.508 110 130 116.492 130 124.5V124.5C130 132.508 123.508 139 115.5 139H19" stroke="#009DE0" stroke-width="14" stroke-linecap="round"/>
<ellipse cx="36" cy="167.5" rx="15" ry="14.5" stroke="#9292A3" stroke-width="14"/>
<circle cx="106.5" cy="167.5" r="14.5" stroke="#9292A3" stroke-width="14"/>
<rect x="145" width="36" height="13" rx="6.5" fill="#009DE0"/>
</svg>
