<svg width="60" height="60" viewBox="0 0 60 60" fill="none" xmlns="http://www.w3.org/2000/svg">
<circle cx="30" cy="30" r="29.5" fill="white" stroke="#E5E5E5"/>
<path d="M28.5698 23.4004C28.5698 24.4221 27.7415 25.2504 26.7198 25.2504C25.6981 25.2504 24.8698 24.4221 24.8698 23.4004C24.8698 22.3787 25.6981 21.5504 26.7198 21.5504C27.7415 21.5504 28.5698 22.3787 28.5698 23.4004Z" fill="#2C2C2C" stroke="#2C2C2C"/>
<path d="M33.0298 21.3004H28.8498C29.3498 21.8104 29.6698 22.5004 29.7098 23.2704C29.7798 24.9204 28.4998 26.3204 26.8398 26.4004C26.8298 26.4004 26.7198 26.4004 26.7098 26.4004C25.0998 26.4004 23.7798 25.1404 23.7098 23.5304C23.6698 22.7304 23.9498 21.9604 24.4998 21.3704C24.5198 21.3404 24.5498 21.3204 24.5798 21.3004H17.9898L17.9498 25.2804C18.0898 28.5004 22.5298 30.2804 25.7498 30.1404L33.1498 30.2004C33.8298 28.8004 33.7798 22.7104 33.0298 21.3004Z" fill="#FF6C6C"/>
<path d="M26.7198 21.4004C27.7798 21.4004 28.6698 22.2404 28.7198 23.3104C28.7698 24.4104 27.9098 25.3504 26.8098 25.4004C26.7798 25.4004 26.7498 25.4004 26.7198 25.4004C25.6598 25.4004 24.7698 24.5604 24.7198 23.4904C24.6698 22.3904 25.5298 21.4504 26.6298 21.4004C26.6598 21.4004 26.6898 21.4004 26.7198 21.4004ZM26.7198 19.4004C26.6598 19.4004 26.5998 19.4004 26.5398 19.4004C24.3398 19.5004 22.6198 21.3704 22.7198 23.5704C22.8098 25.7204 24.5698 27.4004 26.7098 27.4004C26.7698 27.4004 26.8298 27.4004 26.8898 27.4004C29.0898 27.3004 30.8098 25.4304 30.7098 23.2304C30.6198 21.0804 28.8598 19.4004 26.7198 19.4004Z" fill="#FF6C6C"/>
<path d="M17.9498 38.3604C17.3398 38.3604 16.7198 38.2404 16.1298 37.9804C14.7898 37.4004 13.7598 36.3304 13.2198 34.9704C12.6798 33.6104 12.7098 32.1204 13.2898 30.7804C14.4798 28.0404 17.1998 26.4804 21.3798 26.1404L21.5398 28.1304C18.1098 28.4104 16.0098 29.5404 15.1198 31.5804C14.7498 32.4304 14.7298 33.3704 15.0698 34.2404C15.4098 35.1104 16.0698 35.7804 16.9198 36.1504C18.2198 36.7104 19.7398 36.1204 20.3098 34.8104C20.7198 33.8704 20.2898 32.7704 19.3398 32.3604L20.1398 30.5304C22.0898 31.3804 22.9898 33.6604 22.1398 35.6104C21.4098 37.3304 19.7198 38.3604 17.9498 38.3604Z" fill="#FF6C6C"/>
<path d="M35.7398 25.3704C35.7998 26.8204 35.7398 28.1804 35.5598 29.2104C35.5198 29.4304 35.4498 29.8204 35.3098 30.2304L37.5598 30.2504C37.9598 30.2304 38.3298 30.2804 38.6898 30.3704C38.7098 30.3604 38.7198 30.3504 38.7198 30.3604C39.8498 29.9904 42.9198 25.1604 43.4098 23.2004C41.9098 22.0604 40.0198 21.3904 37.9298 21.3104H35.1498C35.1798 21.4104 35.1998 21.4904 35.2198 21.5604C35.4898 22.5704 35.6798 23.9204 35.7398 25.3704Z" fill="#FF6C6C"/>
<path d="M40.5298 33.4704C40.4698 33.6904 40.3798 33.8904 40.2698 34.0904C41.8098 34.4304 44.2398 34.5904 45.9998 34.3504C46.5998 32.9904 46.9198 31.4604 46.8498 29.8804C46.7598 27.8704 46.0698 26.1204 44.9698 24.7304C44.6198 25.6304 44.0898 26.6604 43.3398 27.8704C42.2498 29.6404 41.2698 30.8804 40.3998 31.6004C40.6598 32.1004 40.7398 32.7304 40.5298 33.4704Z" fill="#FF6C6C"/>
<path d="M44.7498 36.4304C44.4398 36.4404 44.1198 36.4604 43.7998 36.4604C41.8498 36.4604 39.8198 36.1704 38.4798 35.5804C38.2298 35.6604 37.9698 35.7104 37.7098 35.7204C37.6598 35.7204 37.5898 35.7204 37.5598 35.7204L28.9498 34.2904V40.2704L37.7398 39.9504V39.9404C40.6298 39.9104 43.0998 38.5204 44.7498 36.4304Z" fill="#FF6C6C"/>
</svg>
