<svg width="50" height="49" viewBox="0 0 50 49" fill="none" xmlns="http://www.w3.org/2000/svg">
<path d="M24.505 49C18.5538 49 12.8226 46.8396 8.35171 42.9188C8.14167 42.7387 8.12166 42.4287 8.3017 42.2186C8.48173 42.0086 8.8018 41.9886 9.00184 42.1686C13.2927 45.9294 18.7938 47.9998 24.505 47.9998C37.4676 47.9998 48.0098 37.4576 48.0098 24.495C48.0098 11.5324 37.4676 0.990202 24.505 0.990202C11.5424 0.990202 1.0002 11.5324 1.0002 24.495C1.0002 30.2562 3.10063 35.7973 6.92141 40.0982C7.10145 40.3082 7.08145 40.6183 6.88141 40.7983C6.68137 40.9784 6.36129 40.9584 6.18125 40.7583C2.19044 36.2774 0 30.5062 0 24.505C0 10.9922 10.9922 0 24.505 0C38.0178 0 49.01 10.9922 49.01 24.505C49.01 38.0178 38.0078 49 24.505 49Z" fill="#403B3B"/>
<path d="M24.5049 35.2172C28.449 35.2172 31.6463 32.0198 31.6463 28.0757C31.6463 24.1316 28.449 20.9343 24.5049 20.9343C20.5607 20.9343 17.3634 24.1316 17.3634 28.0757C17.3634 32.0198 20.5607 35.2172 24.5049 35.2172Z" fill="#FF9900"/>
<path d="M24.505 41.0684C17.3335 41.0684 11.5023 35.2372 11.5023 28.0657C11.5023 23.6048 13.6828 17.3135 16.6734 13.1027C16.8334 12.8826 17.1435 12.8326 17.3635 12.9827C17.5836 13.1427 17.6436 13.4527 17.4835 13.6728C14.5929 17.7336 12.4925 23.7849 12.4925 28.0557C12.4925 34.6771 17.8736 40.0582 24.495 40.0582C31.1163 40.0582 36.4974 34.6771 36.4974 28.0557C36.4974 21.5844 31.0663 8.90182 24.495 8.90182C22.7846 8.90182 21.0543 9.75199 19.3539 11.4323C19.1539 11.6224 18.8438 11.6224 18.6538 11.4323C18.4637 11.2423 18.4637 10.9222 18.6538 10.7322C20.5442 8.86181 22.5046 7.91162 24.495 7.91162C31.8765 7.91162 37.4976 21.3344 37.4976 28.0557C37.4976 35.2372 31.6664 41.0684 24.505 41.0684Z" fill="#403B3B"/>
<path d="M24.5048 35.7173C20.294 35.7173 16.8633 32.2866 16.8633 28.0757C16.8633 23.8649 20.294 20.4342 24.5048 20.4342C28.7157 20.4342 32.1464 23.8649 32.1464 28.0757C32.1364 32.2866 28.7157 35.7173 24.5048 35.7173ZM24.5048 21.4244C20.8341 21.4244 17.8535 24.405 17.8535 28.0757C17.8535 31.7465 20.8341 34.7271 24.5048 34.7271C28.1756 34.7271 31.1562 31.7465 31.1562 28.0757C31.1562 24.405 28.1656 21.4244 24.5048 21.4244Z" fill="#403B3B"/>
</svg>