<svg width="60" height="60" viewBox="0 0 60 60" fill="none" xmlns="http://www.w3.org/2000/svg">
<circle cx="30" cy="30" r="29.5" fill="white" stroke="#E5E5E5"/>
<path d="M19.2 31.17C19.17 31.17 19.15 31.17 19.1199 31.17C16.0799 31.21 13.66 33.71 13.7 36.75C13.74 39.76 16.2 42.1701 19.2 42.1701C19.23 42.1701 19.25 42.1701 19.28 42.1701C22.32 42.1301 24.74 39.63 24.7 36.59C24.66 33.58 22.2 31.17 19.2 31.17Z" fill="#FF6C6C"/>
<path d="M29.95 42.3101C30.01 42.3101 30.07 42.3101 30.13 42.3101C37.1 42.2101 42.66 36.4801 42.56 29.5201C42.46 22.6101 36.83 17.0801 29.95 17.0801C29.89 17.0801 29.83 17.0801 29.77 17.0801C22.96 17.1801 17.5 22.6501 17.35 29.4101C17.91 29.2701 18.49 29.1801 19.09 29.1701H19.2C23.28 29.1701 26.64 32.4901 26.7 36.5601C26.72 38.3101 26.15 39.9801 25.08 41.3301C26.58 41.9601 28.23 42.3101 29.95 42.3101Z" fill="#FED304"/>
<path d="M38.34 41.6201C39.06 41.9601 39.85 42.1701 40.7 42.1701C40.73 42.1701 40.75 42.1701 40.78 42.1701C43.82 42.1301 46.24 39.6301 46.2 36.5901C46.18 34.9401 45.42 33.5001 44.26 32.5001C43.52 36.2501 41.36 39.4801 38.34 41.6201Z" fill="#FF6C6C"/>
</svg>
