<svg width="60" height="60" viewBox="0 0 60 60" fill="none" xmlns="http://www.w3.org/2000/svg">
<circle cx="30" cy="30" r="29.5" fill="white" stroke="#E5E5E5"/>
<path d="M44.5699 28.6199C44.8399 29.5599 44.9999 30.5599 44.9999 31.5899C44.9999 36.4199 41.0699 40.3499 36.2399 40.3499C32.2599 40.3499 29.0299 37.1199 29.0299 33.1399C29.0299 29.8499 31.7099 27.1699 34.9999 27.1699C37.7399 27.1699 39.9799 29.3999 39.9799 32.1399C39.9799 34.4499 38.0999 36.3199 35.7999 36.3199C33.8399 36.3199 32.2599 34.7299 32.2599 32.7799C32.2599 32.2299 32.7099 31.7799 33.2599 31.7799C33.8099 31.7799 34.2599 32.2299 34.2599 32.7799C34.2599 33.6299 34.9499 34.3199 35.7999 34.3199C36.9999 34.3199 37.9799 33.3399 37.9799 32.1399C37.9799 30.4999 36.6499 29.1699 34.9999 29.1699C32.8099 29.1699 31.0299 30.9499 31.0299 33.1399C31.0299 36.0099 33.3699 38.3499 36.2399 38.3499C39.9699 38.3499 42.9999 35.3199 42.9999 31.5899C42.9999 26.7899 39.0899 22.8799 34.2899 22.8799C29.6499 22.8799 25.6599 25.7399 23.9899 29.7899C24.0099 29.9699 24.0499 30.1399 24.0499 30.3299L22.7599 38.8699C22.7599 40.3199 23.7999 41.5599 25.2199 41.8199L41.5999 43.3199C45.8699 39.7199 47.0499 33.4499 44.5699 28.6199Z" fill="#9999FF"/>
<path d="M26.5199 40.4998C25.0899 40.2398 24.0599 38.9998 24.0599 37.5498V29.2898V23.2898V19.9598C24.6799 19.6098 25.0999 18.9498 25.0799 18.1998C25.0599 17.0998 24.1499 16.2098 23.0499 16.2298C21.9399 16.2498 21.0599 17.1498 21.0799 18.2598C21.0899 18.9798 21.4799 19.5998 22.0599 19.9498V23.2998H17.0599V20.0398C17.6599 19.6898 18.0599 19.0398 18.0499 18.2898C18.0299 17.1898 17.1199 16.2998 16.0199 16.3198C14.9199 16.3398 14.0299 17.2398 14.0499 18.3498C14.0599 19.0798 14.4699 19.7098 15.0599 20.0498V23.2998V29.2998V39.3398C15.0599 41.5498 16.8499 43.3398 19.0599 43.3398H23.6599H41.6599L26.5199 40.4998Z" fill="#BAE4E2"/>
</svg>
