<svg width="60" height="60" viewBox="0 0 60 60" fill="none" xmlns="http://www.w3.org/2000/svg">
<circle cx="30" cy="30" r="29.5" fill="white" stroke="#E5E5E5"/>
<path d="M24.52 29.85C24.53 29.82 24.55 29.79 24.56 29.76C24.13 29.57 23.69 29.42 23.26 29.29C23.24 29.28 23.21 29.28 23.19 29.27C22.87 29.18 22.57 29.14 22.27 29.14C20.15 29.14 18.48 31.18 19.15 33.39C19.57 34.82 20.29 36.31 21.47 37.5C21.5 37.53 21.54 37.56 21.57 37.59C22.42 38.41 23.37 38.76 24.28 38.76C24.33 38.76 24.38 38.76 24.43 38.75C23.74 37.8 23.32 36.59 23.29 35.15V34.97C23.29 33.29 23.7 31.57 24.52 29.85Z" fill="#C2C2FF"/>
<path d="M25.54 28.01C25.57 28.02 25.6 28.03 25.63 28.05C25.64 28.04 25.65 28.02 25.66 28.01C25.75 27.91 25.85 27.81 25.95 27.72C24.97 26.84 24.32 25.55 24.29 23.88V23.73C24.29 22.51 24.55 21.28 25.07 20.04C25.03 20.02 24.99 20.01 24.95 20C24.66 19.91 24.38 19.87 24.11 19.87C22.32 19.87 20.91 21.6 21.47 23.48C21.83 24.68 22.43 25.95 23.44 26.95C23.47 26.98 23.49 27.01 23.52 27.03C23.67 27.18 23.83 27.31 23.99 27.42C24.49 27.77 25.01 27.96 25.53 28.01H25.54Z" fill="#C2C2FF"/>
<path d="M35.15 38.75C35.2 38.76 35.25 38.76 35.3 38.76C36.21 38.76 37.16 38.41 38.01 37.59C38.04 37.56 38.08 37.53 38.11 37.5C39.29 36.31 40.01 34.82 40.43 33.39C41.1 31.18 39.43 29.14 37.31 29.14C37.01 29.14 36.71 29.18 36.39 29.27C36.37 29.28 36.34 29.28 36.32 29.29C35.89 29.42 35.45 29.57 35.02 29.76C35.03 29.79 35.05 29.82 35.06 29.85C35.88 31.57 36.29 33.29 36.29 34.97V35.15C36.26 36.59 35.84 37.8 35.15 38.75Z" fill="#C2C2FF"/>
<path d="M26.79 14.64C26.81 15.64 27.23 16.37 27.85 16.85C28.45 16.57 29.11 16.43 29.79 16.43C30.47 16.43 31.13 16.57 31.73 16.85C32.35 16.37 32.77 15.64 32.79 14.64V14.54C32.79 13.33 32.39 12.2 31.88 11.26C31.43 10.42 30.61 10 29.79 10C28.97 10 28.15 10.42 27.7 11.26C27.19 12.2 26.79 13.33 26.79 14.54V14.64Z" fill="#9999FF"/>
<path d="M29.79 39.38C30.27 39.38 30.75 39.31 31.21 39.17C31.92 38.97 32.58 38.61 33.09 38.08C33.8 37.39 34.27 36.4 34.29 35.12V34.97C34.29 33.44 33.86 32 33.27 30.74C33.16 30.51 33.05 30.28 32.93 30.06C32.91 30.02 32.88 29.97 32.85 29.93C32.66 29.59 32.42 29.3 32.15 29.07C32.05 28.97 31.94 28.88 31.82 28.8C31.26 28.4 30.6 28.19 29.93 28.17C29.88 28.16 29.84 28.16 29.79 28.16C29.74 28.16 29.7 28.16 29.65 28.17C28.98 28.19 28.32 28.4 27.76 28.8C27.64 28.88 27.53 28.97 27.43 29.07C27.16 29.3 26.92 29.59 26.73 29.93C26.7 29.97 26.67 30.02 26.65 30.06C26.53 30.28 26.42 30.51 26.31 30.74C25.72 32 25.29 33.44 25.29 34.97V35.12C25.31 36.4 25.78 37.39 26.49 38.08C27 38.61 27.66 38.97 28.37 39.17C28.83 39.31 29.31 39.38 29.79 39.38Z" fill="#9999FF"/>
<path d="M29.79 41.38C29.29 41.38 28.79 41.31 28.29 41.21V49.31H31.29V41.21C30.8 41.32 30.29 41.38 29.79 41.38Z" fill="#9999FF"/>
<path d="M27.73 26.56C27.97 26.46 28.22 26.3801 28.48 26.3201C28.62 26.2801 28.76 26.25 28.9 26.23C29.19 26.18 29.49 26.16 29.79 26.16C30.09 26.16 30.39 26.18 30.68 26.23C30.82 26.25 30.96 26.2801 31.1 26.3201C31.36 26.3801 31.61 26.46 31.85 26.56C32.68 26.03 33.27 25.12 33.29 23.84V23.73C33.29 22.7 33.04 21.71 32.66 20.83C32.54 20.51 32.39 20.2 32.23 19.91C32.07 19.61 31.87 19.36 31.64 19.15C31.63 19.14 31.62 19.1301 31.61 19.1301C31.1 18.6601 30.45 18.4301 29.79 18.4301C29.13 18.4301 28.48 18.6601 27.97 19.1301C27.96 19.1301 27.95 19.14 27.94 19.15C27.71 19.36 27.51 19.61 27.35 19.91C27.19 20.2 27.04 20.51 26.92 20.83C26.54 21.71 26.29 22.7 26.29 23.73V23.84C26.31 25.12 26.9 26.03 27.73 26.56Z" fill="#9999FF"/>
<path d="M36.06 27.03C36.09 27.01 36.11 26.98 36.14 26.95C37.15 25.95 37.75 24.68 38.11 23.48C38.67 21.6 37.26 19.87 35.47 19.87C35.2 19.87 34.92 19.91 34.63 20C34.59 20.01 34.55 20.02 34.51 20.04C35.03 21.28 35.29 22.51 35.29 23.73V23.88C35.26 25.55 34.61 26.84 33.63 27.72C33.73 27.81 33.83 27.91 33.92 28.01C33.93 28.02 33.94 28.04 33.95 28.05C33.98 28.03 34.01 28.02 34.04 28.01H34.05C34.57 27.96 35.09 27.77 35.59 27.42C35.75 27.31 35.91 27.18 36.06 27.03Z" fill="#C2C2FF"/>
</svg>
