<svg width="49" height="50" viewBox="0 0 49 50" fill="none" xmlns="http://www.w3.org/2000/svg">
<path d="M21.0444 41.5685C19.6841 41.5685 18.5739 40.4683 18.5739 39.098V14.963C18.5739 13.6028 19.6741 12.4925 21.0444 12.4925C22.4046 12.4925 23.5149 13.5928 23.5149 14.963V39.098C23.5049 40.4683 22.4046 41.5685 21.0444 41.5685Z" fill="#7ED45B"/>
<path d="M27.9557 41.5685C26.5954 41.5685 25.4852 40.4683 25.4852 39.098V14.963C25.4852 13.6028 26.5854 12.4925 27.9557 12.4925C29.316 12.4925 30.4262 13.5928 30.4262 14.963V39.098C30.4262 40.4683 29.326 41.5685 27.9557 41.5685Z" fill="#7ED45B"/>
<path d="M24.495 49.01C18.6738 49.01 13.0327 46.9296 8.61176 43.1588C8.40171 42.9788 8.38171 42.6687 8.55175 42.4587C8.73178 42.2486 9.04184 42.2286 9.25189 42.3987C13.5028 46.0194 18.9139 48.0198 24.495 48.0198H24.8351C37.6077 47.8398 48.0098 37.2976 48.0098 24.515V24.1749C47.8298 11.3923 37.2876 1.00021 24.505 1.00021H24.1649C11.3923 1.18025 0.9902 11.7224 0.9902 24.495V24.8351C1.07022 30.5963 3.25066 36.1074 7.13145 40.3582C7.31149 40.5583 7.30149 40.8783 7.10145 41.0584C6.90141 41.2484 6.58134 41.2284 6.40131 41.0284C2.36048 36.5975 0.0800163 30.8563 0 24.8551V24.505C0 11.1923 10.8322 0.200049 24.1549 0.0100098H24.505C37.8177 0.0100098 48.81 10.8422 49 24.1649V24.515C49 37.8277 38.1678 48.82 24.8451 49.01H24.495Z" fill="#403B3B"/>
<path d="M21.0443 42.0686C19.414 42.0686 18.0837 40.7383 18.0837 39.1079V14.973C18.0837 13.3427 19.414 12.0124 21.0443 12.0124C22.6747 12.0124 24.0049 13.3427 24.0049 14.973V34.2169C24.0049 34.487 23.7849 34.717 23.5048 34.717C23.2248 34.717 23.0047 34.497 23.0047 34.2169V14.973C23.0047 13.8828 22.1246 13.0026 21.0343 13.0026C19.9441 13.0026 19.0639 13.8828 19.0639 14.973V39.1079C19.0639 40.1982 19.9441 41.0783 21.0343 41.0783C22.1246 41.0783 23.0047 40.1982 23.0047 39.1079V37.2176C23.0047 36.9475 23.2248 36.7175 23.5048 36.7175C23.7849 36.7175 24.0049 36.9375 24.0049 37.2176V39.1079C24.0049 40.7383 22.6747 42.0686 21.0443 42.0686Z" fill="#403B3B"/>
<path d="M27.9557 42.0686C26.3254 42.0686 24.9951 40.7383 24.9951 39.1079V14.973C24.9951 13.3427 26.3254 12.0124 27.9557 12.0124C29.5861 12.0124 30.9163 13.3427 30.9163 14.973V34.2169C30.9163 34.487 30.6963 34.717 30.4162 34.717C30.1362 34.717 29.9161 34.497 29.9161 34.2169V14.973C29.9161 13.8828 29.0359 13.0026 27.9457 13.0026C26.8555 13.0026 25.9753 13.8828 25.9753 14.973V39.1079C25.9753 40.1982 26.8555 41.0783 27.9457 41.0783C29.0359 41.0783 29.9161 40.1982 29.9161 39.1079V37.2176C29.9161 36.9475 30.1362 36.7175 30.4162 36.7175C30.6963 36.7175 30.9163 36.9375 30.9163 37.2176V39.1079C30.9263 40.7383 29.5961 42.0686 27.9557 42.0686Z" fill="#403B3B"/>
<path d="M24.495 44.019C23.1348 44.019 22.0245 42.9187 22.0245 41.5485V17.4135C22.0245 16.0533 23.1248 14.943 24.495 14.943C25.8553 14.943 26.9655 16.0432 26.9655 17.4135V41.5485C26.9555 42.9187 25.8553 44.019 24.495 44.019Z" fill="#7ED45B"/>
<path d="M24.495 44.5191C22.8647 44.5191 21.5344 43.1888 21.5344 41.5585V17.4235C21.5344 15.7932 22.8647 14.4629 24.495 14.4629C26.1254 14.4629 27.4556 15.7932 27.4556 17.4235V36.6674C27.4556 36.9375 27.2356 37.1675 26.9555 37.1675C26.6755 37.1675 26.4554 36.9475 26.4554 36.6674V17.4235C26.4554 16.3333 25.5753 15.4531 24.485 15.4531C23.3948 15.4531 22.5146 16.3333 22.5146 17.4235V41.5585C22.5146 42.6487 23.3948 43.5288 24.485 43.5288C25.5753 43.5288 26.4554 42.6487 26.4554 41.5585V39.6681C26.4554 39.398 26.6755 39.168 26.9555 39.168C27.2356 39.168 27.4556 39.388 27.4556 39.6681V41.5585C27.4556 43.1888 26.1254 44.5191 24.495 44.5191Z" fill="#403B3B"/>
<path d="M29.9861 10.4921C29.9861 11.1623 28.7359 11.5723 28.4958 12.1525C28.2458 12.7526 28.8259 13.9228 28.3758 14.3829C27.9257 14.833 26.7455 14.2529 26.1453 14.5029C25.5652 14.743 25.1551 15.9932 24.485 15.9932C23.8149 15.9932 23.4048 14.743 22.8247 14.5029C22.2245 14.2529 21.0543 14.833 20.5942 14.3829C20.1441 13.9328 20.7242 12.7526 20.4742 12.1525C20.2341 11.5723 18.9839 11.1623 18.9839 10.4921C18.9839 9.82198 20.2341 9.41191 20.4742 8.83179C20.7242 8.23167 20.1441 7.06142 20.5942 6.60133C21.0443 6.15123 22.2245 6.73136 22.8247 6.48131C23.4048 6.24126 23.8149 4.991 24.485 4.991C25.1551 4.991 25.5652 6.24126 26.1453 6.48131C26.7455 6.73136 27.9157 6.15123 28.3758 6.60133C28.8259 7.05142 28.2458 8.23167 28.4958 8.83179C28.7459 9.41191 29.9861 9.82198 29.9861 10.4921Z" fill="#7ED45B"/>
<path d="M24.495 16.4833C23.8649 16.4833 23.4648 15.9332 23.1347 15.4931C22.9847 15.2831 22.7746 15.003 22.6446 14.953C22.5846 14.933 22.2045 14.933 21.8745 14.983C21.1843 15.0831 20.5942 15.0631 20.2541 14.723C20.0341 14.5029 19.9241 14.2029 19.9241 13.8028C19.9241 13.5828 19.9541 13.3427 19.9941 13.1026C20.0241 12.9126 20.0541 12.7126 20.0541 12.5425C20.0541 12.4125 20.0341 12.3525 20.0241 12.3325C19.9741 12.2125 19.694 12.0024 19.484 11.8424C19.0439 11.5123 18.4938 11.1122 18.4938 10.4821C18.4938 9.85199 19.0439 9.45191 19.484 9.12184C19.694 8.97181 19.9741 8.76176 20.0241 8.63174C20.0341 8.61173 20.0541 8.55173 20.0541 8.4217C20.0541 8.24167 20.0241 8.05163 19.9941 7.86159C19.9641 7.62154 19.9241 7.38148 19.9241 7.16144C19.9241 6.76135 20.0341 6.46129 20.2441 6.24125C20.5842 5.90118 21.1743 5.89118 21.8645 5.9812C22.1945 6.03121 22.5746 6.04121 22.6346 6.01121C22.7646 5.9612 22.9747 5.67114 23.1247 5.4711C23.4548 5.03101 23.8549 4.4809 24.485 4.4809C25.1051 4.4809 25.5152 5.031 25.8453 5.46109C25.9953 5.67113 26.2054 5.9512 26.3354 6.00121C26.3954 6.02121 26.7755 6.02122 27.1055 5.97121C27.7957 5.87118 28.3858 5.89118 28.7259 6.23125C28.9459 6.4513 29.0459 6.75136 29.0459 7.15144C29.0459 7.37148 29.0159 7.61153 28.9759 7.85158C28.9459 8.04162 28.9159 8.24166 28.9159 8.41169C28.9159 8.53171 28.9359 8.59173 28.9459 8.62174C28.9959 8.75177 29.276 8.96181 29.486 9.11185C29.9261 9.44191 30.4762 9.84199 30.4762 10.4721C30.4762 11.1023 29.9261 11.5023 29.486 11.8324C29.276 11.9824 28.9959 12.1925 28.9459 12.3225C28.9359 12.3425 28.9159 12.4025 28.9159 12.5325C28.9159 12.7026 28.9459 12.9026 28.9759 13.0927C29.0059 13.3327 29.0459 13.5727 29.0459 13.7928C29.0459 14.1929 28.9359 14.4929 28.7259 14.713C28.3858 15.053 27.7957 15.0731 27.1055 14.973C26.7755 14.923 26.3954 14.913 26.3354 14.943C26.2054 14.993 25.9953 15.2831 25.8453 15.4831C25.5252 15.9432 25.1151 16.4833 24.495 16.4833ZM22.4346 13.9428C22.6646 13.9428 22.8547 13.9728 23.0247 14.0428C23.4048 14.2029 23.6748 14.5629 23.9349 14.913C24.0849 15.1131 24.375 15.5031 24.495 15.5031C24.625 15.5031 24.9051 15.1231 25.0551 14.923C25.3152 14.573 25.5852 14.2129 25.9653 14.0529C26.2854 13.9228 26.7555 13.9428 27.2556 14.0128C27.4456 14.0428 27.6456 14.0728 27.8157 14.0728C27.9857 14.0728 28.0257 14.0428 28.0357 14.0428C28.0357 14.0428 28.0657 14.0028 28.0657 13.8228C28.0657 13.6528 28.0357 13.4527 28.0057 13.2627C27.9757 13.0226 27.9357 12.7826 27.9357 12.5625C27.9357 12.3325 27.9657 12.1425 28.0357 11.9724C28.1958 11.5924 28.5558 11.3223 28.9059 11.0622C29.1159 10.9122 29.496 10.6222 29.496 10.5021C29.496 10.3821 29.1159 10.092 28.9059 9.94202C28.5558 9.68196 28.1958 9.4119 28.0357 9.03183C27.9657 8.86179 27.9357 8.67176 27.9357 8.44171C27.9357 8.22167 27.9657 7.9816 28.0057 7.74156C28.0357 7.55152 28.0657 7.35148 28.0657 7.18144C28.0657 7.01141 28.0357 6.9614 28.0357 6.9614C28.0357 6.9614 27.9957 6.93139 27.8157 6.93139C27.6456 6.93139 27.4456 6.9614 27.2556 6.9914C26.7655 7.06142 26.2954 7.09143 25.9653 6.9514C25.5852 6.79137 25.3152 6.4313 25.0551 6.08123C24.9051 5.88119 24.615 5.50111 24.495 5.50111C24.365 5.50111 24.0849 5.88118 23.9349 6.09123C23.6748 6.4413 23.4048 6.80136 23.0247 6.9614C22.7046 7.10143 22.2345 7.07143 21.7344 7.00141C21.5444 6.97141 21.3444 6.9414 21.1743 6.9414C21.0043 6.9414 20.9543 6.97141 20.9543 6.97141C20.9543 6.97141 20.9243 7.01142 20.9243 7.19146C20.9243 7.36149 20.9543 7.56153 20.9843 7.75157C21.0143 7.99162 21.0543 8.23166 21.0543 8.45171C21.0543 8.68175 21.0243 8.87179 20.9543 9.04182C20.7942 9.4219 20.4342 9.69196 20.0841 9.95201C19.8741 10.102 19.494 10.3921 19.494 10.5121C19.494 10.6321 19.8741 10.9222 20.0841 11.0722C20.4342 11.3323 20.7942 11.6023 20.9543 11.9824C21.0243 12.1525 21.0543 12.3425 21.0543 12.5725C21.0543 12.7926 21.0243 13.0326 20.9843 13.2727C20.9543 13.4627 20.9243 13.6628 20.9243 13.8328C20.9243 14.0028 20.9543 14.0529 20.9543 14.0529C20.9543 14.0529 20.9943 14.0829 21.1743 14.0829C21.3544 14.0829 21.5444 14.0528 21.7344 14.0228C21.9745 13.9728 22.2145 13.9428 22.4346 13.9428Z" fill="#403B3B"/>
<path d="M24.105 14.533C24.105 15.2031 22.8548 15.6132 22.6147 16.1933C22.3647 16.7934 22.9448 17.9637 22.4947 18.4237C22.0446 18.8738 20.8644 18.2937 20.2642 18.5438C19.6841 18.7838 19.274 20.0341 18.6039 20.0341C17.9338 20.0341 17.5237 18.7838 16.9436 18.5438C16.3434 18.2937 15.1732 18.8738 14.7131 18.4237C14.263 17.9737 14.8431 16.7934 14.5931 16.1933C14.353 15.6132 13.1028 15.2031 13.1028 14.533C13.1028 13.8628 14.353 13.4527 14.5931 12.8726C14.8431 12.2725 14.263 11.1023 14.7131 10.6422C15.1632 10.1921 16.3434 10.7722 16.9436 10.5221C17.5237 10.2821 17.9338 9.03183 18.6039 9.03183C19.274 9.03183 19.6841 10.2821 20.2642 10.5221C20.8644 10.7722 22.0346 10.1921 22.4947 10.6422C22.9448 11.0923 22.3647 12.2725 22.6147 12.8726C22.8548 13.4527 24.105 13.8728 24.105 14.533Z" fill="#7ED45B"/>
<path d="M18.6139 20.5242C17.9938 20.5242 17.5837 19.9741 17.2536 19.544C17.1036 19.3339 16.8936 19.0539 16.7635 19.0039C16.7035 18.9739 16.3234 18.9839 15.9934 19.0339C15.3032 19.1339 14.7131 19.1139 14.373 18.7738C14.153 18.5538 14.053 18.2537 14.053 17.8536C14.053 17.6336 14.083 17.3935 14.123 17.1535C14.153 16.9634 14.183 16.7634 14.183 16.5934C14.183 16.4733 14.163 16.4133 14.153 16.3833C14.103 16.2633 13.8229 16.0533 13.6129 15.8932C13.1728 15.5632 12.6227 15.1631 12.6227 14.5329C12.6227 13.9028 13.1728 13.5027 13.6129 13.1727C13.8229 13.0226 14.103 12.8126 14.153 12.6826C14.163 12.6626 14.183 12.6026 14.183 12.4725C14.183 12.2925 14.153 12.1024 14.123 11.9124C14.093 11.6724 14.053 11.4323 14.053 11.2123C14.053 10.8122 14.163 10.5121 14.383 10.2921C14.7231 9.95201 15.3132 9.94201 16.0034 10.032C16.3334 10.082 16.7135 10.082 16.7735 10.062C16.9035 10.012 17.1136 9.72195 17.2636 9.52191C17.5937 9.08182 17.9938 8.54172 18.6239 8.54172C19.254 8.54172 19.6541 9.09184 19.9842 9.53193C20.1342 9.74197 20.3443 10.022 20.4743 10.072C20.5343 10.092 20.9144 10.092 21.2444 10.042C21.9346 9.942 22.5247 9.96202 22.8648 10.3021C23.0848 10.5221 23.1848 10.8222 23.1848 11.2223C23.1848 11.4423 23.1548 11.6824 23.1148 11.9224C23.0848 12.1125 23.0548 12.3125 23.0548 12.4825C23.0548 12.6126 23.0748 12.6726 23.0848 12.6926C23.1348 12.8126 23.4149 13.0226 23.6249 13.1827C24.065 13.5127 24.6151 13.9128 24.6151 14.5429C24.6151 15.1731 24.065 15.5732 23.6249 15.9032C23.4149 16.0533 23.1348 16.2633 23.0848 16.3933C23.0748 16.4133 23.0548 16.4733 23.0548 16.6034C23.0548 16.7834 23.0848 16.9734 23.1148 17.1635C23.1448 17.4035 23.1848 17.6436 23.1848 17.8636C23.1848 18.2637 23.0748 18.5638 22.8648 18.7838C22.5247 19.1239 21.9346 19.1439 21.2444 19.0439C20.9144 18.9938 20.5343 18.9939 20.4743 19.0139C20.3443 19.0639 20.1342 19.3539 19.9842 19.554C19.6441 19.9841 19.234 20.5242 18.6139 20.5242ZM16.5535 17.9836C16.7835 17.9836 16.9736 18.0137 17.1436 18.0837C17.5237 18.2437 17.7937 18.6038 18.0538 18.9538C18.2038 19.1539 18.4939 19.534 18.6139 19.534C18.7439 19.534 19.024 19.1539 19.174 18.9438C19.4341 18.5938 19.7041 18.2337 20.0842 18.0737C20.4043 17.9436 20.8744 17.9736 21.3745 18.0337C21.5645 18.0637 21.7645 18.0937 21.9346 18.0937C22.1046 18.0937 22.1446 18.0637 22.1546 18.0637C22.1546 18.0637 22.1846 18.0137 22.1846 17.8436C22.1846 17.6736 22.1546 17.4735 22.1246 17.2835C22.0946 17.0435 22.0546 16.8034 22.0546 16.5834C22.0546 16.3533 22.0846 16.1633 22.1546 15.9932C22.3147 15.6132 22.6747 15.3431 23.0248 15.0831C23.2348 14.933 23.6149 14.643 23.6149 14.5229C23.6149 14.4029 23.2348 14.1129 23.0248 13.9628C22.6747 13.7028 22.3147 13.4327 22.1546 13.0526C22.0846 12.8826 22.0546 12.6926 22.0546 12.4625C22.0546 12.2425 22.0846 12.0024 22.1246 11.7624C22.1546 11.5723 22.1846 11.3723 22.1846 11.2023C22.1846 11.0322 22.1546 10.9822 22.1546 10.9822C22.1546 10.9822 22.1146 10.9522 21.9346 10.9522C21.7645 10.9522 21.5645 10.9822 21.3745 11.0122C20.8844 11.0822 20.4143 11.1122 20.0842 10.9722C19.7041 10.8122 19.4341 10.4521 19.174 10.102C19.024 9.89199 18.7339 9.51192 18.6139 9.51192C18.4839 9.51192 18.2038 9.89199 18.0538 10.102C17.7937 10.4521 17.5237 10.8122 17.1436 10.9722C16.8235 11.1122 16.3434 11.0822 15.8533 11.0122C15.6633 10.9822 15.4633 10.9522 15.2932 10.9522C15.1232 10.9522 15.0832 10.9822 15.0732 10.9822C15.0732 10.9822 15.0432 11.0322 15.0432 11.2023C15.0432 11.3723 15.0732 11.5723 15.1032 11.7624C15.1332 12.0024 15.1732 12.2425 15.1732 12.4625C15.1732 12.6926 15.1432 12.8826 15.0732 13.0526C14.9131 13.4327 14.5531 13.7028 14.203 13.9628C13.993 14.1129 13.6129 14.4029 13.6129 14.5229C13.6129 14.643 13.993 14.933 14.203 15.0831C14.5531 15.3431 14.9131 15.6132 15.0732 15.9932C15.1432 16.1633 15.1732 16.3533 15.1732 16.5834C15.1732 16.8034 15.1432 17.0435 15.1032 17.2835C15.0732 17.4735 15.0432 17.6736 15.0432 17.8436C15.0432 18.0137 15.0732 18.0537 15.0732 18.0637C15.0732 18.0637 15.1132 18.0937 15.2932 18.0937C15.4633 18.0937 15.6633 18.0637 15.8533 18.0337C16.0934 18.0137 16.3334 17.9836 16.5535 17.9836Z" fill="#403B3B"/>
<path d="M35.8873 14.533C35.8873 15.2031 34.637 15.6132 34.397 16.1933C34.1469 16.7934 34.727 17.9637 34.2769 18.4237C33.8268 18.8738 32.6466 18.2937 32.0465 18.5438C31.4664 18.7838 31.0563 20.0341 30.3861 20.0341C29.716 20.0341 29.3059 18.7838 28.7258 18.5438C28.1257 18.2937 26.9554 18.8738 26.4953 18.4237C26.0452 17.9737 26.6254 16.7934 26.3753 16.1933C26.1353 15.6132 24.885 15.2031 24.885 14.533C24.885 13.8628 26.1353 13.4527 26.3753 12.8726C26.6254 12.2725 26.0452 11.1023 26.4953 10.6422C26.9454 10.1921 28.1257 10.7722 28.7258 10.5221C29.3059 10.2821 29.716 9.03183 30.3861 9.03183C31.0563 9.03183 31.4664 10.2821 32.0465 10.5221C32.6466 10.7722 33.8168 10.1921 34.2769 10.6422C34.727 11.0923 34.1469 12.2725 34.397 12.8726C34.637 13.4527 35.8873 13.8728 35.8873 14.533Z" fill="#7ED45B"/>
<path d="M30.3961 20.5242C29.776 20.5242 29.3659 19.9741 29.0358 19.534C28.8858 19.3239 28.6758 19.0439 28.5458 18.9938C28.4857 18.9738 28.1057 18.9738 27.7756 19.0239C27.0955 19.1239 26.4953 19.1039 26.1553 18.7638C25.9352 18.5438 25.8352 18.2437 25.8352 17.8436C25.8352 17.6236 25.8652 17.3835 25.9052 17.1435C25.9352 16.9534 25.9652 16.7534 25.9652 16.5834C25.9652 16.4633 25.9452 16.4033 25.9352 16.3733C25.8852 16.2533 25.6051 16.0432 25.3951 15.8832C24.955 15.5531 24.4049 15.1531 24.4049 14.5229C24.4049 13.8928 24.955 13.4927 25.3951 13.1627C25.6051 13.0126 25.8852 12.8026 25.9352 12.6726C25.9452 12.6526 25.9652 12.5925 25.9652 12.4625C25.9652 12.2825 25.9352 12.0924 25.9052 11.9024C25.8752 11.6624 25.8352 11.4223 25.8352 11.2023C25.8352 10.8022 25.9452 10.5021 26.1553 10.2821C26.4953 9.94201 27.0854 9.922 27.7756 10.022C28.1057 10.072 28.4857 10.072 28.5458 10.052C28.6758 10.002 28.8858 9.71196 29.0358 9.51192C29.3659 9.07183 29.766 8.52171 30.3961 8.52171C31.0263 8.52171 31.4263 9.07183 31.7564 9.51192C31.9064 9.72196 32.1165 10.002 32.2465 10.052C32.3065 10.072 32.6866 10.072 33.0167 10.022C33.6968 9.922 34.2969 9.94201 34.637 10.2821C34.857 10.5021 34.9671 10.8022 34.9671 11.2023C34.9671 11.4223 34.9371 11.6624 34.897 11.9024C34.867 12.0924 34.837 12.2925 34.837 12.4625C34.837 12.5925 34.857 12.6526 34.867 12.6726C34.9171 12.7926 35.1971 13.0026 35.4072 13.1627C35.8472 13.4927 36.3974 13.8928 36.3974 14.5229C36.3974 15.1531 35.8472 15.5531 35.4172 15.8832C35.2071 16.0332 34.9271 16.2433 34.877 16.3733C34.867 16.3933 34.847 16.4533 34.847 16.5834C34.847 16.7634 34.877 16.9534 34.907 17.1435C34.9371 17.3835 34.9771 17.6236 34.9771 17.8436C34.9771 18.2437 34.867 18.5438 34.657 18.7638C34.3169 19.1039 33.7268 19.1239 33.0367 19.0239C32.7066 18.9738 32.3265 18.9638 32.2665 18.9938C32.1365 19.0439 31.9264 19.3339 31.7764 19.534C31.4263 19.9841 31.0163 20.5242 30.3961 20.5242ZM28.3357 17.9836C28.5658 17.9836 28.7558 18.0137 28.9258 18.0837C29.3059 18.2437 29.576 18.6038 29.836 18.9538C29.986 19.1639 30.2761 19.544 30.3961 19.544C30.5262 19.544 30.8062 19.1639 30.9562 18.9538C31.2163 18.6038 31.4864 18.2437 31.8664 18.0837C32.1965 17.9436 32.6666 17.9736 33.1567 18.0437C33.3467 18.0737 33.5468 18.1037 33.7168 18.1037C33.8868 18.1037 33.9268 18.0737 33.9368 18.0737C33.9368 18.0737 33.9669 18.0237 33.9669 17.8536C33.9669 17.6836 33.9369 17.4835 33.9068 17.2935C33.8768 17.0535 33.8368 16.8134 33.8368 16.5934C33.8368 16.3633 33.8668 16.1733 33.9368 16.0033C34.0969 15.6232 34.457 15.3531 34.807 15.0931C35.0071 14.943 35.3871 14.653 35.3871 14.5329C35.3871 14.4129 35.0071 14.1229 34.797 13.9728C34.447 13.7128 34.0869 13.4427 33.9268 13.0626C33.8568 12.8926 33.8268 12.7026 33.8268 12.4725C33.8268 12.2525 33.8568 12.0124 33.8968 11.7724C33.9268 11.5823 33.9569 11.3823 33.9569 11.2123C33.9569 11.0422 33.9268 10.9922 33.9268 10.9922C33.9268 10.9922 33.8868 10.9622 33.7068 10.9622C33.5268 10.9622 33.3367 10.9922 33.1467 11.0222C32.6566 11.0922 32.1865 11.1223 31.8564 10.9822C31.4763 10.8222 31.2063 10.4621 30.9462 10.112C30.7962 9.91201 30.5061 9.52192 30.3861 9.52192C30.2561 9.52192 29.976 9.90201 29.826 10.112C29.566 10.4621 29.2959 10.8222 28.9158 10.9822C28.5958 11.1223 28.1157 11.0922 27.6256 11.0222C27.4355 10.9922 27.2355 10.9622 27.0654 10.9622C26.8954 10.9622 26.8554 10.9922 26.8454 10.9922C26.8454 10.9922 26.8154 11.0322 26.8154 11.2123C26.8154 11.3823 26.8454 11.5823 26.8754 11.7724C26.9054 12.0124 26.9454 12.2525 26.9454 12.4725C26.9454 12.7026 26.9154 12.8926 26.8454 13.0626C26.6854 13.4427 26.3253 13.7128 25.9752 13.9728C25.7652 14.1229 25.3851 14.4129 25.3851 14.5329C25.3851 14.653 25.7652 14.943 25.9752 15.0931C26.3253 15.3531 26.6854 15.6232 26.8454 16.0033C26.9154 16.1733 26.9454 16.3633 26.9454 16.5934C26.9454 16.8134 26.9154 17.0535 26.8754 17.2935C26.8454 17.4835 26.8154 17.6836 26.8154 17.8536C26.8154 18.0237 26.8454 18.0637 26.8454 18.0737C26.8454 18.0737 26.8854 18.1037 27.0654 18.1037C27.2355 18.1037 27.4355 18.0737 27.6256 18.0437C27.8756 18.0137 28.1157 17.9836 28.3357 17.9836Z" fill="#403B3B"/>
<path d="M29.9861 15.9932C29.9861 16.6634 28.7359 17.0735 28.4958 17.6536C28.2458 18.2537 28.8259 19.4239 28.3758 19.884C27.9257 20.3341 26.7455 19.754 26.1453 20.0041C25.5652 20.2441 25.1551 21.4944 24.485 21.4944C23.8149 21.4944 23.4048 20.2441 22.8247 20.0041C22.2245 19.754 21.0543 20.3341 20.5942 19.884C20.1441 19.4339 20.7242 18.2537 20.4742 17.6536C20.2341 17.0735 18.9839 16.6634 18.9839 15.9932C18.9839 15.3231 20.2341 14.913 20.4742 14.3329C20.7242 13.7328 20.1441 12.5625 20.5942 12.1024C21.0443 11.6523 22.2245 12.2325 22.8247 11.9824C23.4048 11.7424 23.8149 10.4921 24.485 10.4921C25.1551 10.4921 25.5652 11.7424 26.1453 11.9824C26.7455 12.2325 27.9157 11.6523 28.3758 12.1024C28.8259 12.5525 28.2458 13.7328 28.4958 14.3329C28.7459 14.913 29.9861 15.3231 29.9861 15.9932Z" fill="#7ED45B"/>
<path d="M24.495 21.9845C23.8649 21.9845 23.4648 21.4344 23.1347 21.0043C22.9847 20.7942 22.7747 20.5142 22.6446 20.4642C22.5846 20.4341 22.2045 20.4441 21.8745 20.4942C21.1843 20.5942 20.5942 20.5742 20.2541 20.2341C20.0341 20.0141 19.9341 19.714 19.9341 19.3139C19.9341 19.0939 19.9641 18.8538 20.0041 18.6138C20.0341 18.4237 20.0641 18.2237 20.0641 18.0537C20.0641 17.9236 20.0441 17.8636 20.0341 17.8436C19.9841 17.7236 19.704 17.5136 19.494 17.3535C19.0539 17.0235 18.5038 16.6234 18.5038 15.9932C18.5038 15.3631 19.0539 14.963 19.494 14.633C19.704 14.4829 19.9841 14.2729 20.0341 14.1429C20.0441 14.1229 20.0641 14.0629 20.0641 13.9328C20.0641 13.7528 20.0341 13.5628 20.0041 13.3727C19.9741 13.1327 19.9341 12.8926 19.9341 12.6726C19.9341 12.2725 20.0441 11.9724 20.2541 11.7524C20.5942 11.4123 21.1843 11.4023 21.8745 11.4923C22.2045 11.5423 22.5846 11.5423 22.6446 11.5223C22.7747 11.4723 22.9847 11.1823 23.1347 10.9822C23.4648 10.5421 23.8649 10.002 24.495 10.002C25.1151 10.002 25.5252 10.5521 25.8553 10.9822C26.0053 11.1923 26.2154 11.4723 26.3454 11.5223C26.4054 11.5423 26.7855 11.5423 27.1155 11.4923C27.8057 11.3923 28.3958 11.4123 28.7359 11.7524C28.9559 11.9724 29.0559 12.2725 29.0559 12.6726C29.0559 12.8926 29.0259 13.1327 28.9859 13.3727C28.9559 13.5628 28.9259 13.7628 28.9259 13.9328C28.9259 14.0528 28.9459 14.1129 28.9559 14.1429C29.0059 14.2729 29.286 14.4829 29.496 14.633C29.9361 14.963 30.4862 15.3631 30.4862 15.9932C30.4862 16.6134 29.9361 17.0235 29.496 17.3535C29.286 17.5036 29.0059 17.7136 28.9559 17.8436C28.9459 17.8636 28.9259 17.9236 28.9259 18.0537C28.9259 18.2337 28.9559 18.4237 28.9859 18.6138C29.0159 18.8538 29.0559 19.0939 29.0559 19.3139C29.0559 19.714 28.9459 20.0141 28.7259 20.2341C28.3958 20.5742 27.7957 20.5942 27.1055 20.4942C26.7755 20.4441 26.3954 20.4442 26.3354 20.4642C26.2054 20.5142 25.9953 20.8042 25.8453 21.0043C25.5252 21.4344 25.1151 21.9845 24.495 21.9845ZM22.4346 19.4339C22.6646 19.4339 22.8547 19.464 23.0247 19.534C23.4048 19.694 23.6748 20.0541 23.9349 20.4041C24.0849 20.6042 24.375 20.9943 24.495 20.9943C24.625 20.9943 24.9051 20.6142 25.0551 20.4141C25.3152 20.0641 25.5852 19.704 25.9653 19.544C26.2854 19.4139 26.7555 19.434 27.2556 19.504C27.4456 19.534 27.6456 19.564 27.8157 19.564C27.9857 19.564 28.0357 19.534 28.0357 19.534C28.0357 19.534 28.0757 19.484 28.0757 19.3139C28.0757 19.1439 28.0457 18.9439 28.0157 18.7538C27.9857 18.5138 27.9457 18.2737 27.9457 18.0537C27.9457 17.8236 27.9757 17.6336 28.0457 17.4635C28.2058 17.0835 28.5658 16.8134 28.9159 16.5534C29.126 16.4033 29.506 16.1133 29.506 15.9932C29.506 15.8732 29.126 15.5832 28.9159 15.4331C28.5658 15.1731 28.2058 14.903 28.0457 14.5229C27.9757 14.3529 27.9457 14.1629 27.9457 13.9328C27.9457 13.7128 27.9757 13.4727 28.0157 13.2327C28.0457 13.0426 28.0757 12.8426 28.0757 12.6726C28.0757 12.5025 28.0457 12.4525 28.0457 12.4525C28.0457 12.4525 28.0057 12.4225 27.8257 12.4225C27.6557 12.4225 27.4556 12.4525 27.2656 12.4825C26.7755 12.5525 26.3054 12.5826 25.9753 12.4425C25.5952 12.2825 25.3252 11.9224 25.0651 11.5723C24.9151 11.3723 24.625 10.9822 24.505 10.9822C24.375 10.9822 24.0949 11.3623 23.9449 11.5723C23.6848 11.9224 23.4148 12.2825 23.0347 12.4425C22.7146 12.5726 22.2445 12.5525 21.7444 12.4825C21.5544 12.4525 21.3544 12.4225 21.1843 12.4225C21.0143 12.4225 20.9643 12.4525 20.9643 12.4525C20.9643 12.4525 20.9343 12.4925 20.9343 12.6726C20.9343 12.8426 20.9643 13.0426 20.9943 13.2327C21.0243 13.4727 21.0643 13.7128 21.0643 13.9328C21.0643 14.1629 21.0343 14.3529 20.9643 14.5229C20.8043 14.903 20.4442 15.1731 20.0941 15.4331C19.8841 15.5832 19.504 15.8732 19.504 15.9932C19.504 16.1233 19.8841 16.4033 20.0941 16.5534C20.4442 16.8134 20.8043 17.0835 20.9643 17.4635C21.0343 17.6336 21.0643 17.8236 21.0643 18.0537C21.0643 18.2737 21.0343 18.5138 20.9943 18.7538C20.9643 18.9439 20.9343 19.1439 20.9343 19.3139C20.9343 19.484 20.9643 19.534 20.9643 19.534C20.9643 19.534 21.0043 19.564 21.1843 19.564C21.3544 19.564 21.5544 19.534 21.7444 19.504C21.9745 19.474 22.2145 19.4339 22.4346 19.4339Z" fill="#403B3B"/>
</svg>