<svg width="60" height="60" viewBox="0 0 60 60" fill="none" xmlns="http://www.w3.org/2000/svg">
<circle cx="30" cy="30" r="29.5" fill="white" stroke="#E5E5E5"/>
<path d="M21.9358 18.6291C21.5758 19.6991 21.4558 20.7791 21.5358 21.7791C21.6358 23.0191 21.1758 24.2691 20.2158 25.0691C19.0658 26.0391 18.0758 27.4591 17.5058 29.1491C16.2358 32.9391 17.4458 36.8991 20.1458 37.8091C22.8458 38.7191 26.2058 36.2891 27.4858 32.4991C28.0558 30.8091 28.1258 29.0891 27.7858 27.6091C27.5058 26.3891 27.8958 25.1191 28.7258 24.1891C29.3958 23.4391 29.9558 22.4991 30.3058 21.4391C31.3758 18.2591 30.3558 14.9291 28.0858 14.1591C25.8258 13.3991 22.9958 15.4391 21.9358 18.6291Z" fill="#FED304"/>
<path d="M21.3558 29.0191C21.9081 29.0191 22.3558 28.5714 22.3558 28.0191C22.3558 27.4668 21.9081 27.0191 21.3558 27.0191C20.8035 27.0191 20.3558 27.4668 20.3558 28.0191C20.3558 28.5714 20.8035 29.0191 21.3558 29.0191Z" fill="#FA9120"/>
<path d="M23.3558 26.0191C23.9081 26.0191 24.3558 25.5714 24.3558 25.0191C24.3558 24.4668 23.9081 24.0191 23.3558 24.0191C22.8035 24.0191 22.3558 24.4668 22.3558 25.0191C22.3558 25.5714 22.8035 26.0191 23.3558 26.0191Z" fill="#FA9120"/>
<path d="M19.3558 32.0191C19.9081 32.0191 20.3558 31.5714 20.3558 31.0191C20.3558 30.4668 19.9081 30.0191 19.3558 30.0191C18.8035 30.0191 18.3558 30.4668 18.3558 31.0191C18.3558 31.5714 18.8035 32.0191 19.3558 32.0191Z" fill="#FA9120"/>
<path d="M20.3558 35.0191C20.9081 35.0191 21.3558 34.5714 21.3558 34.0191C21.3558 33.4668 20.9081 33.0191 20.3558 33.0191C19.8035 33.0191 19.3558 33.4668 19.3558 34.0191C19.3558 34.5714 19.8035 35.0191 20.3558 35.0191Z" fill="#FA9120"/>
<path d="M33.6858 28.5391C33.3258 29.6091 33.2058 30.6891 33.2858 31.6891C33.3858 32.9291 32.9258 34.1791 31.9658 34.9791C30.8158 35.9491 29.8258 37.3691 29.2558 39.0591C27.9858 42.8491 29.1958 46.8091 31.8958 47.7191C34.5958 48.6291 37.9558 46.1991 39.2358 42.4091C39.8058 40.7191 39.8758 38.9991 39.5358 37.5191C39.2558 36.2991 39.6458 35.0291 40.4758 34.0991C41.1458 33.3491 41.7058 32.4091 42.0558 31.3491C43.1258 28.1691 42.1058 24.8391 39.8358 24.0691C37.5758 23.3191 34.7458 25.3591 33.6858 28.5391Z" fill="#FED304"/>
<path d="M33.3858 38.8791C33.9381 38.8791 34.3858 38.4314 34.3858 37.8791C34.3858 37.3268 33.9381 36.8791 33.3858 36.8791C32.8335 36.8791 32.3858 37.3268 32.3858 37.8791C32.3858 38.4314 32.8335 38.8791 33.3858 38.8791Z" fill="#FA9120"/>
<path d="M35.3858 35.8791C35.9381 35.8791 36.3858 35.4314 36.3858 34.8791C36.3858 34.3268 35.9381 33.8791 35.3858 33.8791C34.8335 33.8791 34.3858 34.3268 34.3858 34.8791C34.3858 35.4314 34.8335 35.8791 35.3858 35.8791Z" fill="#FA9120"/>
<path d="M31.3858 41.8791C31.9381 41.8791 32.3858 41.4314 32.3858 40.8791C32.3858 40.3268 31.9381 39.8791 31.3858 39.8791C30.8335 39.8791 30.3858 40.3268 30.3858 40.8791C30.3858 41.4314 30.8335 41.8791 31.3858 41.8791Z" fill="#FA9120"/>
<path d="M32.3858 44.8791C32.9381 44.8791 33.3858 44.4314 33.3858 43.8791C33.3858 43.3268 32.9381 42.8791 32.3858 42.8791C31.8335 42.8791 31.3858 43.3268 31.3858 43.8791C31.3858 44.4314 31.8335 44.8791 32.3858 44.8791Z" fill="#FA9120"/>
</svg>
