<svg width="60" height="60" viewBox="0 0 60 60" fill="none" xmlns="http://www.w3.org/2000/svg">
<circle cx="30" cy="30" r="29.5" fill="white" stroke="#E5E5E5"/>
<path d="M40.5 45.5401C44.8 43.8401 46.9 38.6401 45.2 34.0401C44.4 32.1401 42.8 31.0401 40.5 29.3401C39.6367 28.7827 38.8023 28.182 38 27.5401C36.9 26.6401 35.5 25.4401 34.2 24.3401C35.1227 26.7559 36.2958 29.0685 37.7 31.2401C39.1 33.5401 40.4 35.5401 40.4 37.4401C40.4 39.0844 40.0212 40.7065 39.2928 42.1807C38.5644 43.6548 37.5061 44.9412 36.2 45.9401C37.6444 46.1606 39.1209 46.0232 40.5 45.5401Z" fill="#F0EAE5"/>
<path d="M38.9 37.54C38.9 36.14 37.7 34.24 36.4 32.14C34.6208 29.5249 33.2391 26.6604 32.3 23.64C32.2818 23.2988 32.2145 22.962 32.1 22.64C31.9509 21.8469 31.8507 21.0454 31.8 20.24C31.6341 18.4634 31.7693 16.6715 32.2 14.94C31.6824 14.5035 31.0271 14.2642 30.35 14.2642C29.6729 14.2642 29.0176 14.5035 28.5 14.94C28.9675 16.6311 29.1367 18.3908 29 20.14C28.9155 20.9474 28.7819 21.7488 28.6 22.54C28.5 22.94 28.4 23.24 28.3 23.64C27.4071 26.5803 26.0935 29.3759 24.4 31.94C23.1 34.04 22 35.94 22 37.44C21.9813 39.0377 22.3883 40.6116 23.1791 42C23.97 43.3884 25.1162 44.5412 26.5 45.34C27.0599 45.689 27.6658 45.9582 28.3 46.14C29.0153 46.3444 29.7561 46.4454 30.5 46.44C31.171 46.4279 31.8399 46.3611 32.5 46.24C33.1307 46.0948 33.737 45.859 34.3 45.54C35.7089 44.7361 36.8779 43.571 37.6865 42.1647C38.4951 40.7585 38.914 39.1621 38.9 37.54Z" fill="#F0EAE5"/>
<path d="M15.6 34.1399C14.7598 36.2793 14.7798 38.6608 15.6559 40.7858C16.5319 42.9107 18.1962 44.6144 20.3 45.5399C21.6911 46.1207 23.227 46.2604 24.7 45.9399C23.4077 44.935 22.3652 43.6449 21.654 42.1704C20.9428 40.6959 20.5821 39.0769 20.6 37.4399C20.6 35.5399 21.8 33.5399 23.2 31.1399C24.5705 29.0351 25.7104 26.7888 26.6 24.4399C25.4 25.5399 24 26.7399 22.8 27.6399C21.9976 28.2818 21.1632 28.8826 20.3 29.4399C17.9 31.1399 16.4 32.2399 15.6 34.1399Z" fill="#F0EAE5"/>
</svg>
