<svg width="60" height="60" viewBox="0 0 60 60" fill="none" xmlns="http://www.w3.org/2000/svg">
<circle cx="30" cy="30" r="29.5" fill="white" stroke="#E5E5E5"/>
<path d="M33.7002 19.4702C32.3902 21.0102 31.7602 22.8702 31.8302 24.5902C30.1102 24.6702 28.3202 25.4501 26.8902 26.8801C25.4602 28.3101 24.6802 30.1002 24.6002 31.8202C22.8802 31.7601 21.0302 32.3801 19.4802 33.6901C16.8202 35.9901 16.0602 43.4002 16.0002 43.4302C15.9602 43.4802 23.5202 44.7102 26.5802 42.0802C28.2702 40.6502 29.2202 38.7501 29.3502 36.9901C31.1202 37.0101 33.0902 36.2202 34.6502 34.6502C36.2102 33.0902 37.0102 31.1201 36.9902 29.3501C38.7502 29.2301 40.6502 28.2702 42.0802 26.5802C44.7102 23.5202 43.4802 15.9602 43.4302 16.0002C43.4102 16.0502 36.0102 16.8002 33.7002 19.4702Z" fill="#85746D"/>
<path d="M32.5402 32.5201C31.1002 33.9601 29.0602 34.3101 28.1302 33.3201C27.2102 32.3301 27.6302 30.3701 29.0002 28.9901C30.3802 27.6101 32.3402 27.1901 33.3302 28.1201C34.3302 29.0401 33.9802 31.0801 32.5402 32.5201Z" fill="#665148"/>
<path d="M39.8002 24.6301C38.4802 26.1901 36.4802 26.7001 35.4702 25.7901C34.4702 24.8801 34.7302 22.8901 35.9802 21.4001C37.2402 19.9101 39.1602 19.3301 40.2302 20.1701C41.3002 21.0101 41.1202 23.0701 39.8002 24.6301Z" fill="#665148"/>
<path d="M24.6502 39.7802C23.0902 41.1002 21.0302 41.2802 20.1902 40.2202C19.3502 39.1602 19.9301 37.2302 21.4201 35.9702C22.9101 34.7102 24.9001 34.4502 25.8101 35.4602C26.7201 36.4602 26.2102 38.4602 24.6502 39.7802Z" fill="#665148"/>
</svg>
