<svg width="22" height="22" viewBox="0 0 22 22" fill="none" xmlns="http://www.w3.org/2000/svg">
<g id="entypo:shopping-basket">
<path id="Vector" d="M20.2389 7.69987H15.1454C14.8802 7.69987 14.6258 7.80522 14.4383 7.99276L12.738 9.69307C12.4935 9.93867 12.2027 10.1334 11.8825 10.2659C11.5623 10.3985 11.2189 10.4662 10.8724 10.4653C10.1662 10.4653 9.50397 10.1903 9.00457 9.69197C8.75905 9.44757 8.56432 9.15699 8.4316 8.83699C8.29888 8.517 8.2308 8.1739 8.23127 7.82747C8.23127 7.75717 8.18541 7.69987 8.11511 7.69987H1.75998C1.58493 7.69987 1.41706 7.7694 1.29329 7.89318C1.16951 8.01695 1.09998 8.18482 1.09998 8.35987V9.99987C1.09998 10.5522 1.54769 10.9999 2.09998 10.9999H19.9C20.4523 10.9999 20.9 10.5522 20.9 9.99987V8.35987C20.9 8.2731 20.8829 8.18719 20.8496 8.10704C20.8164 8.02689 20.7677 7.95409 20.7063 7.89279C20.6449 7.83149 20.572 7.78289 20.4918 7.74979C20.4116 7.71669 20.3256 7.69972 20.2389 7.69987ZM11.8448 8.79877L17.4053 3.23827C17.4668 3.17711 17.5156 3.10444 17.549 3.02439C17.5824 2.94435 17.5997 2.85851 17.5999 2.77177C17.6001 2.68504 17.5833 2.59911 17.5502 2.51891C17.5172 2.43871 17.4687 2.36581 17.4075 2.30437L16.3955 1.29237C16.2712 1.1689 16.1031 1.09961 15.928 1.09961C15.7528 1.09961 15.5847 1.1689 15.4605 1.29237L9.89997 6.85397C9.64208 7.11186 9.49719 7.46165 9.49719 7.82637C9.49719 8.19109 9.64208 8.54087 9.89997 8.79877C10.1579 9.05666 10.5077 9.20155 10.8724 9.20155C11.2371 9.20155 11.5869 9.05666 11.8448 8.79877ZM4.20528 18.998C4.31198 19.4391 4.77178 19.7999 5.22498 19.7999H16.775C17.2282 19.7999 17.688 19.4391 17.7947 18.998L19.1698 13.3359C19.3227 12.7064 18.8458 12.0999 18.198 12.0999H3.80191C3.15411 12.0999 2.67727 12.7064 2.83016 13.3359L4.20528 18.998Z" fill="white"/>
</g>
</svg>
