<svg width="22" height="22" viewBox="0 0 22 22" fill="none" xmlns="http://www.w3.org/2000/svg">
<g id="ErrorOutline">
<path id="Vector" d="M10.0833 13.75H11.9167V15.5833H10.0833V13.75ZM10.0833 6.41665H11.9167V11.9166H10.0833V6.41665ZM10.9908 1.83331C5.93084 1.83331 1.83334 5.93998 1.83334 11C1.83334 16.06 5.93084 20.1666 10.9908 20.1666C16.06 20.1666 20.1667 16.06 20.1667 11C20.1667 5.93998 16.06 1.83331 10.9908 1.83331ZM11 18.3333C6.94834 18.3333 3.66668 15.0516 3.66668 11C3.66668 6.94831 6.94834 3.66665 11 3.66665C15.0517 3.66665 18.3333 6.94831 18.3333 11C18.3333 15.0516 15.0517 18.3333 11 18.3333Z" fill="#D32F2F"/>
</g>
</svg>
