<svg width="60" height="60" viewBox="0 0 60 60" fill="none" xmlns="http://www.w3.org/2000/svg">
<circle cx="30.0001" cy="30" r="29.5" fill="white" stroke="#E5E5E5"/>
<path d="M49.2976 23.12C48.9076 23.04 48.5076 23 48.0976 23C45.6276 23 43.5076 24.49 42.5876 26.63C40.1076 24.52 35.9976 21.62 31.1176 20.49C31.2376 18.44 32.0276 16.58 33.2876 15.12C32.8976 15.04 32.4976 15 32.0876 15C29.0976 15 26.6376 17.18 26.1676 20.04C24.6876 20.12 23.2576 20.38 21.8976 20.79C22.2976 22.1 23.1676 25.35 23.1676 29.01C23.1676 32.67 22.2976 35.91 21.8976 37.23C23.2376 37.63 24.6376 37.89 26.0876 37.97C26.0876 37.98 26.0876 38 26.0876 38.01C26.0876 41.32 28.7776 44.01 32.0876 44.01C32.4976 44.01 32.8976 43.97 33.2876 43.89C31.9276 42.31 31.0876 40.26 31.0876 38.01C31.0876 37.85 31.0976 37.68 31.1076 37.52C35.9876 36.39 40.0976 33.49 42.5776 31.38C43.4976 33.51 45.6176 35.01 48.0876 35.01C48.4976 35.01 48.8976 34.97 49.2876 34.89C47.9276 33.31 47.0876 31.26 47.0876 29.01C47.0876 26.76 47.9376 24.7 49.2976 23.12Z" fill="#979797"/>
<path d="M20.0276 21.45C15.8876 23.09 12.5476 25.75 10.6976 27.44C9.76762 28.28 9.76762 29.73 10.6976 30.58C12.5476 32.27 15.8876 34.93 20.0276 36.57C20.3976 35.32 21.1876 32.31 21.1876 29.01C21.1876 25.69 20.3976 22.69 20.0276 21.45ZM16.1076 28.5C15.2776 28.5 14.6076 27.83 14.6076 27C14.6076 26.17 15.2776 25.5 16.1076 25.5C16.9376 25.5 17.6076 26.17 17.6076 27C17.6076 27.83 16.9276 28.5 16.1076 28.5Z" fill="#979797"/>
</svg>
