<svg width="60" height="60" viewBox="0 0 60 60" fill="none" xmlns="http://www.w3.org/2000/svg">
<circle cx="30.0001" cy="30" r="29.5" fill="white" stroke="#E5E5E5"/>
<path d="M24.5201 29.8501C24.5301 29.8201 24.5501 29.7901 24.5601 29.7601C24.1301 29.5701 23.6901 29.4201 23.2601 29.2901C23.2401 29.2801 23.2101 29.2801 23.1901 29.2701C22.8701 29.1801 22.5701 29.1401 22.2701 29.1401C20.1501 29.1401 18.4801 31.1801 19.1501 33.3901C19.5701 34.8201 20.2901 36.3101 21.4701 37.5001C21.5001 37.5301 21.5401 37.5601 21.5701 37.5901C22.4201 38.4101 23.3701 38.7601 24.2801 38.7601C24.3301 38.7601 24.3801 38.7601 24.4301 38.7501C23.7401 37.8001 23.3201 36.5901 23.2901 35.1501V34.9701C23.2901 33.2901 23.7001 31.5701 24.5201 29.8501Z" fill="#979797"/>
<path d="M25.54 28.0101C25.57 28.0201 25.6 28.0301 25.63 28.0501C25.64 28.0401 25.65 28.0201 25.66 28.0101C25.75 27.9101 25.85 27.8101 25.95 27.7201C24.97 26.8401 24.32 25.5501 24.29 23.8801V23.7301C24.29 22.5101 24.55 21.2801 25.07 20.0401C25.03 20.0201 24.99 20.0101 24.95 20.0001C24.66 19.9101 24.38 19.8701 24.11 19.8701C22.32 19.8701 20.91 21.6001 21.47 23.4801C21.83 24.6801 22.43 25.9501 23.44 26.9501C23.47 26.9801 23.49 27.0101 23.52 27.0301C23.67 27.1801 23.83 27.3101 23.99 27.4201C24.49 27.7701 25.01 27.9601 25.53 28.0101H25.54Z" fill="#979797"/>
<path d="M35.1501 38.7501C35.2001 38.7601 35.2501 38.7601 35.3001 38.7601C36.2101 38.7601 37.1601 38.4101 38.0101 37.5901C38.0401 37.5601 38.0801 37.5301 38.1101 37.5001C39.2901 36.3101 40.0101 34.8201 40.4301 33.3901C41.1001 31.1801 39.4301 29.1401 37.3101 29.1401C37.0101 29.1401 36.7101 29.1801 36.3901 29.2701C36.3701 29.2801 36.3401 29.2801 36.3201 29.2901C35.8901 29.4201 35.4501 29.5701 35.0201 29.7601C35.0301 29.7901 35.0501 29.8201 35.0601 29.8501C35.8801 31.5701 36.2901 33.2901 36.2901 34.9701V35.1501C36.2601 36.5901 35.8401 37.8001 35.1501 38.7501Z" fill="#979797"/>
<path d="M26.7902 14.64C26.8102 15.64 27.2302 16.37 27.8502 16.85C28.4502 16.57 29.1102 16.43 29.7902 16.43C30.4702 16.43 31.1302 16.57 31.7302 16.85C32.3502 16.37 32.7702 15.64 32.7902 14.64V14.54C32.7902 13.33 32.3902 12.2 31.8802 11.26C31.4302 10.42 30.6102 9.99997 29.7902 9.99997C28.9702 9.99997 28.1502 10.42 27.7002 11.26C27.1902 12.2 26.7902 13.33 26.7902 14.54V14.64Z" fill="#979797"/>
<path d="M29.7902 39.3801C30.2702 39.3801 30.7502 39.3101 31.2102 39.1701C31.9202 38.9701 32.5802 38.6101 33.0902 38.0801C33.8002 37.3901 34.2702 36.4001 34.2902 35.1201V34.9701C34.2902 33.4401 33.8602 32.0001 33.2702 30.7401C33.1602 30.5101 33.0502 30.2801 32.9302 30.0601C32.9102 30.0201 32.8802 29.9701 32.8502 29.9301C32.6602 29.5901 32.4202 29.3001 32.1502 29.0701C32.0502 28.9701 31.9402 28.8801 31.8202 28.8001C31.2602 28.4001 30.6002 28.1901 29.9302 28.1701C29.8802 28.1601 29.8402 28.1601 29.7902 28.1601C29.7402 28.1601 29.7002 28.1601 29.6502 28.1701C28.9802 28.1901 28.3202 28.4001 27.7602 28.8001C27.6402 28.8801 27.5302 28.9701 27.4302 29.0701C27.1602 29.3001 26.9202 29.5901 26.7302 29.9301C26.7002 29.9701 26.6702 30.0201 26.6502 30.0601C26.5302 30.2801 26.4202 30.5101 26.3102 30.7401C25.7202 32.0001 25.2902 33.4401 25.2902 34.9701V35.1201C25.3102 36.4001 25.7802 37.3901 26.4902 38.0801C27.0002 38.6101 27.6602 38.9701 28.3702 39.1701C28.8302 39.3101 29.3102 39.3801 29.7902 39.3801Z" fill="#979797"/>
<path d="M29.7902 41.3799C29.2902 41.3799 28.7902 41.3099 28.2902 41.2099V49.3099H31.2902V41.2099C30.8002 41.3099 30.2902 41.3799 29.7902 41.3799Z" fill="#979797"/>
<path d="M27.7302 26.5601C27.9702 26.4601 28.2202 26.3801 28.4802 26.3201C28.6202 26.2801 28.7602 26.2501 28.9002 26.2301C29.1902 26.1801 29.4902 26.1601 29.7902 26.1601C30.0902 26.1601 30.3902 26.1801 30.6802 26.2301C30.8202 26.2501 30.9602 26.2801 31.1002 26.3201C31.3602 26.3801 31.6102 26.4601 31.8502 26.5601C32.6802 26.0301 33.2702 25.1201 33.2902 23.8401V23.7301C33.2902 22.7001 33.0402 21.7101 32.6602 20.8301C32.5402 20.5101 32.3902 20.2001 32.2302 19.9101C32.0702 19.6101 31.8702 19.3601 31.6402 19.1501C31.6302 19.1401 31.6202 19.1301 31.6102 19.1301C31.1002 18.6601 30.4502 18.4301 29.7902 18.4301C29.1302 18.4301 28.4802 18.6601 27.9702 19.1301C27.9602 19.1301 27.9502 19.1401 27.9402 19.1501C27.7102 19.3601 27.5102 19.6101 27.3502 19.9101C27.1902 20.2001 27.0402 20.5101 26.9202 20.8301C26.5402 21.7101 26.2902 22.7001 26.2902 23.7301V23.8401C26.3102 25.1201 26.9002 26.0301 27.7302 26.5601Z" fill="#979797"/>
<path d="M36.06 27.0301C36.09 27.0101 36.11 26.9801 36.14 26.9501C37.15 25.9501 37.75 24.6801 38.11 23.4801C38.67 21.6001 37.26 19.8701 35.47 19.8701C35.2 19.8701 34.92 19.9101 34.63 20.0001C34.59 20.0101 34.55 20.0201 34.51 20.0401C35.03 21.2801 35.29 22.5101 35.29 23.7301V23.8801C35.26 25.5501 34.61 26.8401 33.63 27.7201C33.73 27.8101 33.83 27.9101 33.92 28.0101C33.93 28.0201 33.94 28.0401 33.95 28.0501C33.98 28.0301 34.01 28.0201 34.04 28.0101H34.05C34.57 27.9601 35.09 27.7701 35.59 27.4201C35.75 27.3101 35.91 27.1801 36.06 27.0301Z" fill="#979797"/>
</svg>
