<svg width="50" height="50" viewBox="0 0 50 50" fill="none" xmlns="http://www.w3.org/2000/svg">
<path d="M25.465 49.02C19.6438 49.02 14.0026 46.9396 9.58174 43.1688C9.3717 42.9888 9.35171 42.6787 9.53174 42.4687C9.71178 42.2587 10.0218 42.2387 10.2319 42.4087C14.4828 46.0294 19.8938 48.0298 25.475 48.0298H25.8151C38.5877 47.8498 48.9898 37.3076 48.9898 24.535V24.195C48.8098 11.4123 38.2676 1.02023 25.495 1.02023H25.1549C12.3723 1.20027 1.9802 11.7424 1.9802 24.515V24.8551C2.06021 30.6163 4.24065 36.1274 8.13145 40.3783C8.31148 40.5783 8.30148 40.8984 8.10144 41.0784C7.9014 41.2684 7.58134 41.2484 7.4013 41.0484C3.36048 36.6175 1.08001 30.8763 0.98999 24.8751V24.525C0.98999 11.2123 11.8222 0.220068 25.1449 0.0300293H25.495C38.8077 0.0300293 49.8 10.8622 49.99 24.185V24.535C49.99 37.8477 39.1578 48.84 25.8351 49.03L25.465 49.02Z" fill="#403B3B"/>
<path d="M35.1071 36.8476C38.1453 36.8476 40.6082 34.3846 40.6082 31.3465C40.6082 28.3083 38.1453 25.8453 35.1071 25.8453C32.0689 25.8453 29.606 28.3083 29.606 31.3465C29.606 34.3846 32.0689 36.8476 35.1071 36.8476Z" fill="#9E9E9E"/>
<path d="M35.1871 37.3477C31.8464 37.3477 29.1558 34.6971 29.1058 31.4365C29.1058 28.0858 31.7564 25.4052 35.017 25.3552C38.3577 25.3552 41.0483 28.0058 41.0983 31.2664C41.0983 31.2664 41.0983 31.2664 41.0983 31.2764V31.3565C41.0983 34.6071 38.4478 37.2977 35.1871 37.3477ZM35.1071 26.3454C32.3165 26.3854 30.106 28.6259 30.106 31.3465C30.146 34.137 32.3865 36.3575 35.1071 36.3575C37.8976 36.3175 40.1081 34.077 40.1081 31.3565V31.3222V31.2864C40.0681 28.5559 37.8276 26.3454 35.1071 26.3454Z" fill="#403B3B"/>
<path d="M24.7251 36.2774C31.3759 36.2774 36.7675 30.8858 36.7675 24.235C36.7675 17.5841 31.3759 12.1925 24.7251 12.1925C18.0742 12.1925 12.6826 17.5841 12.6826 24.235C12.6826 30.8858 18.0742 36.2774 24.7251 36.2774Z" fill="#E9E9E9"/>
<path d="M24.725 36.7675C21.4444 36.7675 18.3438 35.5072 15.9833 33.2168C13.5328 30.8363 12.1825 27.6456 12.1825 24.2249C12.1825 20.9443 13.4428 17.8436 15.7332 15.4832C18.1137 13.0327 21.3044 11.6824 24.725 11.6824C27.3856 11.6824 29.9261 12.5025 32.0665 14.0529C32.2866 14.2129 32.3366 14.523 32.1766 14.743C32.0166 14.963 31.7065 15.0131 31.4864 14.853C29.516 13.4227 27.1755 12.6626 24.725 12.6626C21.5744 12.6626 18.6338 13.9028 16.4434 16.1633C14.3329 18.3337 13.1727 21.1843 13.1727 24.2149C13.1727 27.3656 14.413 30.3062 16.6734 32.4966C18.8439 34.607 21.6944 35.7673 24.725 35.7673C27.8757 35.7673 30.8163 34.527 33.0067 32.2666C35.1172 30.0961 36.2774 27.2455 36.2774 24.2149C36.2774 21.5044 35.3272 18.8838 33.5969 16.8134C33.4168 16.6034 33.4468 16.2933 33.6569 16.1133C33.8669 15.9432 34.177 15.9632 34.357 16.1733C36.2374 18.4237 37.2776 21.2743 37.2776 24.2149C37.2776 27.4956 36.0174 30.5962 33.7269 32.9567C31.3364 35.4172 28.1457 36.7675 24.725 36.7675Z" fill="#403B3B"/>
<path d="M15.8432 36.8476C18.8814 36.8476 21.3443 34.3846 21.3443 31.3465C21.3443 28.3083 18.8814 25.8453 15.8432 25.8453C12.805 25.8453 10.342 28.3083 10.342 31.3465C10.342 34.3846 12.805 36.8476 15.8432 36.8476Z" fill="#9E9E9E"/>
<path d="M15.9332 37.3477C12.5925 37.3477 9.90194 34.6971 9.85193 31.4365C9.85193 28.0858 12.5025 25.4052 15.7631 25.3552C19.1038 25.3552 21.7944 28.0058 21.8444 31.2664C21.8444 31.2664 21.8444 31.2664 21.8444 31.2764V31.3565C21.8444 34.6071 19.1938 37.2977 15.9332 37.3477ZM15.8432 26.3454C13.0526 26.3854 10.8421 28.6259 10.8421 31.3465C10.8821 34.137 13.1226 36.3575 15.8432 36.3575C18.6337 36.3175 20.8442 34.077 20.8442 31.3565V31.3144V31.2864C20.8142 28.5559 18.5637 26.3454 15.8432 26.3454Z" fill="#403B3B"/>
</svg>