<svg width="49" height="49" viewBox="0 0 49 49" fill="none" xmlns="http://www.w3.org/2000/svg">
<path d="M38.9478 21.5844C38.7878 21.2944 38.6077 21.0343 38.4177 20.8043C37.0974 18.0237 35.3071 15.7733 31.8664 14.583C27.2454 12.9827 23.0346 15.5632 19.6139 18.5438C19.0337 19.0439 18.6537 19.6641 18.4236 20.3342C18.2036 20.5542 17.9935 20.7843 17.7935 21.0343C17.2034 19.564 15.7631 18.5338 14.0927 18.5338C11.8823 18.5338 10.0919 20.3242 10.0919 22.5346V31.5365C10.0919 33.7469 11.8823 35.5373 14.0927 35.5373H18.0936H31.6063C32.7766 35.7773 33.9368 35.9174 35.107 35.5373H36.0972L35.3971 35.4073C35.5771 35.3373 35.7672 35.2672 35.9472 35.1672C38.2177 33.927 39.1378 31.8465 39.4879 29.5861C40.068 28.8159 40.4081 27.8057 40.3181 26.4954C40.1981 24.6451 39.828 23.2048 38.9478 21.5844Z" fill="#9E9E9E"/>
<path d="M24.495 48.99C18.6738 48.99 13.0327 46.9096 8.61176 43.1388C8.40172 42.9588 8.38171 42.6487 8.56174 42.4387C8.74178 42.2286 9.05184 42.2086 9.26188 42.3786C13.5128 45.9994 18.9239 47.9998 24.505 47.9998H24.8451C37.6077 47.8198 48.0098 37.2776 48.0098 24.495V24.1549C47.8298 11.3723 37.2876 0.980203 24.505 0.980203H24.1649C11.3923 1.16024 0.990208 11.7024 0.990208 24.485V24.8251C1.07022 30.5862 3.25067 36.0974 7.13146 40.3482C7.3115 40.5483 7.3015 40.8683 7.10146 41.0484C6.90141 41.2384 6.58134 41.2184 6.4013 41.0184C2.36048 36.5875 0.0800163 30.8463 0 24.8451V24.495C0 11.1823 10.8322 0.190039 24.1549 0H24.505C37.8177 0 48.81 10.8322 49 24.1549V24.505C49 37.8177 38.1678 48.81 24.8451 49L24.495 48.99Z" fill="#403B3B"/>
<path d="M25.2451 26.0453C25.2451 25.9453 25.235 25.8453 25.235 25.7453C25.235 23.1747 27.3255 21.0943 29.886 21.0943C31.8864 21.0943 33.5067 22.7247 33.5067 24.7151C33.5067 26.2554 32.2465 27.5156 30.7062 27.5156C29.5259 27.5156 28.5657 26.5554 28.5657 25.3752C28.5657 25.1051 28.3457 24.8751 28.0656 24.8751C27.7856 24.8751 27.5655 25.0951 27.5655 25.3752C27.5655 27.1055 28.9758 28.5058 30.6962 28.5058C32.7866 28.5058 34.4869 26.8055 34.4869 24.7151C34.4869 22.1745 32.4165 20.0941 29.866 20.0941C26.7554 20.0941 24.2148 22.6246 24.2148 25.7453C24.2148 25.8653 24.2148 25.9753 24.2248 26.0853C24.2348 26.3554 24.5049 26.5854 24.745 26.5554C25.045 26.5554 25.2651 26.3254 25.2451 26.0453Z" fill="#403B3B"/>
<path d="M29.1759 13.5828C24.0248 13.5828 19.5739 16.5834 17.4435 20.9243C17.6735 21.3143 17.8636 21.7244 17.9736 22.1245C17.9736 22.1345 17.9736 22.1445 17.9836 22.1445C19.774 17.7136 24.1148 14.563 29.1859 14.563C34.4569 14.563 38.7478 18.8538 38.7478 24.1249C38.7478 28.2858 35.3571 31.6765 31.1963 31.6765C29.0659 31.6765 27.0754 30.5262 26.0252 28.6658C25.8852 28.4258 25.5851 28.3458 25.3451 28.4758C25.105 28.6158 25.025 28.9159 25.155 29.1559C26.3853 31.3264 28.6958 32.6767 31.1863 32.6767C35.8972 32.6767 39.728 28.8459 39.728 24.1349C39.728 18.3237 34.9871 13.5828 29.1759 13.5828Z" fill="#403B3B"/>
<path d="M36.0375 36.0474C35.8974 36.0474 35.7574 35.9874 35.6574 35.8674C35.4774 35.6573 35.5074 35.3473 35.7174 35.1672C38.318 32.9768 39.7982 29.7161 39.7982 26.2254C39.7982 23.5949 38.9081 21.0744 37.2977 19.114C37.1277 18.9039 37.1577 18.5939 37.3678 18.4138C37.5778 18.2438 37.8879 18.2738 38.0679 18.4838C39.8282 20.6243 40.7884 23.3648 40.7884 26.2254C40.7884 30.0162 39.1681 33.5469 36.3475 35.9274C36.2575 36.0074 36.1475 36.0474 36.0375 36.0474Z" fill="#403B3B"/>
<path d="M36.0974 36.0274H16.5335C16.2634 36.0274 16.0334 35.8073 16.0334 35.5273C16.0334 35.2472 16.2534 35.0272 16.5335 35.0272H30.5963L23.7549 33.7869C20.1842 33.1368 17.6037 30.0361 17.6037 26.4154V22.5246C17.6037 20.5942 16.0334 19.0239 14.103 19.0239C12.1726 19.0239 10.6023 20.5942 10.6023 22.5246V31.5264C10.6023 33.2668 11.8925 34.7571 13.6129 34.9971C13.8829 35.0372 14.073 35.2872 14.0329 35.5573C13.9929 35.8273 13.7329 36.0174 13.4728 35.9774C11.2624 35.6673 9.60205 33.7569 9.60205 31.5264V22.5246C9.60205 20.0441 11.6225 18.0237 14.103 18.0237C16.5835 18.0237 18.6039 20.0441 18.6039 22.5246V26.4154C18.6039 29.556 20.8543 32.2566 23.945 32.8167L36.1975 35.0472C36.4475 35.0972 36.6276 35.3272 36.6076 35.5773C36.5676 35.8273 36.3575 36.0274 36.0974 36.0274Z" fill="#403B3B"/>
<path d="M10.1322 23.4648C9.86213 23.4648 9.63208 23.2448 9.63208 22.9647V15.5232C9.63208 15.2531 9.85212 15.0231 10.1322 15.0231C10.4122 15.0231 10.6323 15.2431 10.6323 15.5232V22.9647C10.6223 23.2448 10.4022 23.4648 10.1322 23.4648Z" fill="#403B3B"/>
<path d="M18.1338 23.4648C17.8637 23.4648 17.6337 23.2448 17.6337 22.9647V15.5232C17.6337 15.2531 17.8537 15.0231 18.1338 15.0231C18.4138 15.0231 18.6339 15.2431 18.6339 15.5232V22.9647C18.6239 23.2448 18.4038 23.4648 18.1338 23.4648Z" fill="#403B3B"/>
<path d="M10.2018 16.4327C11.0302 16.4327 11.7018 15.7612 11.7018 14.9327C11.7018 14.1043 11.0302 13.4327 10.2018 13.4327C9.37336 13.4327 8.70178 14.1043 8.70178 14.9327C8.70178 15.7612 9.37336 16.4327 10.2018 16.4327Z" fill="#9E9E9E"/>
<path d="M10.2018 16.9326C9.11177 16.9326 8.22177 16.0526 8.20177 14.9626C8.19177 14.4326 8.39178 13.9226 8.77178 13.5426C9.14178 13.1626 9.64177 12.9426 10.1818 12.9426C11.3018 12.9426 12.1918 13.8126 12.2118 14.9126C12.2218 15.4426 12.0218 15.9526 11.6418 16.3326C11.2618 16.7126 10.7718 16.9326 10.2318 16.9326C10.2218 16.9326 10.2118 16.9326 10.2018 16.9326ZM10.2118 13.9326H10.2018C9.93177 13.9326 9.68178 14.0426 9.49178 14.2326C9.30178 14.4226 9.20178 14.6826 9.21178 14.9426C9.22178 15.4926 9.69177 15.9426 10.2318 15.9326C10.5018 15.9326 10.7518 15.8226 10.9418 15.6326C11.1318 15.4426 11.2318 15.1826 11.2218 14.9226C11.2018 14.3726 10.7518 13.9326 10.2118 13.9326Z" fill="#403B3B"/>
<path d="M18.2034 16.4327C19.0318 16.4327 19.7034 15.7612 19.7034 14.9327C19.7034 14.1043 19.0318 13.4327 18.2034 13.4327C17.3749 13.4327 16.7034 14.1043 16.7034 14.9327C16.7034 15.7612 17.3749 16.4327 18.2034 16.4327Z" fill="#9E9E9E"/>
<path d="M18.2034 16.9326C17.1134 16.9326 16.2234 16.0526 16.2034 14.9626C16.1934 14.4326 16.3934 13.9226 16.7734 13.5426C17.1434 13.1626 17.6434 12.9426 18.1834 12.9426C19.3234 12.9426 20.1934 13.8126 20.2134 14.9126C20.2234 15.4426 20.0234 15.9526 19.6434 16.3326C19.2634 16.7126 18.7734 16.9326 18.2334 16.9326C18.2234 16.9326 18.2134 16.9326 18.2034 16.9326ZM18.2134 13.9326H18.2034C17.9334 13.9326 17.6834 14.0426 17.4934 14.2326C17.3034 14.4226 17.2034 14.6826 17.2134 14.9426C17.2234 15.4926 17.6534 15.9426 18.2334 15.9326C18.5034 15.9326 18.7534 15.8226 18.9434 15.6326C19.1334 15.4426 19.2334 15.1826 19.2234 14.9226C19.2034 14.3726 18.7534 13.9326 18.2134 13.9326Z" fill="#403B3B"/>
</svg>