<svg width="60" height="60" viewBox="0 0 60 60" fill="none" xmlns="http://www.w3.org/2000/svg">
<circle cx="30.0001" cy="30" r="29.5" fill="white" stroke="#E5E5E5"/>
<path d="M19.4303 32.0302C19.4003 32.0302 19.3803 32.0302 19.3503 32.0302C16.3103 32.0702 13.8903 34.5702 13.9303 37.6102C13.9703 40.6202 16.4303 43.0302 19.4303 43.0302C19.4603 43.0302 19.4803 43.0302 19.5103 43.0302C22.5503 42.9902 24.9703 40.4902 24.9303 37.4502C24.8903 34.4402 22.4303 32.0302 19.4303 32.0302Z" fill="#979797"/>
<path d="M30.1802 43.1699C30.2402 43.1699 30.3002 43.1699 30.3602 43.1699C37.3302 43.0699 42.8902 37.3399 42.7902 30.3799C42.6902 23.4699 37.0602 17.9399 30.1802 17.9399C30.1202 17.9399 30.0602 17.9399 30.0002 17.9399C23.1902 18.0399 17.7302 23.5099 17.5802 30.2699C18.1402 30.1299 18.7202 30.0399 19.3202 30.0299H19.4302C23.5102 30.0299 26.8702 33.3499 26.9302 37.4199C26.9502 39.1699 26.3802 40.8399 25.3102 42.1899C26.8102 42.8199 28.4602 43.1699 30.1802 43.1699Z" fill="#979797"/>
<path d="M38.5704 42.4803C39.2904 42.8203 40.0804 43.0303 40.9304 43.0303C40.9604 43.0303 40.9804 43.0303 41.0104 43.0303C44.0504 42.9903 46.4704 40.4903 46.4304 37.4503C46.4104 35.8003 45.6504 34.3603 44.4904 33.3603C43.7504 37.1103 41.5904 40.3503 38.5704 42.4803Z" fill="#979797"/>
</svg>
