<svg width="50" height="49" viewBox="0 0 50 49" fill="none" xmlns="http://www.w3.org/2000/svg">
<path d="M44.159 18.1237C43.7689 18.0437 43.3689 18.0037 42.9588 18.0037C40.4883 18.0037 38.3678 19.494 37.4477 21.6344C34.9671 19.524 30.8563 16.6234 25.9753 15.4932C26.0953 13.4428 26.8855 11.5824 28.1458 10.1221C27.7557 10.0421 27.3556 10.0021 26.9455 10.0021C23.9549 10.0021 21.4944 12.1825 21.0243 15.0431C18.7838 15.1631 16.6434 15.7232 14.693 16.5134C10.6322 18.1537 7.36151 20.7643 5.53114 22.4346C4.60095 23.2748 4.60095 24.7251 5.53114 25.5753C7.36151 27.2456 10.6322 29.8561 14.693 31.4965C16.6234 32.2766 18.7238 32.8367 20.9443 32.9668C20.9443 32.9768 20.9443 32.9968 20.9443 33.0068C20.9443 36.3174 23.6348 39.008 26.9455 39.008C27.3556 39.008 27.7557 38.968 28.1458 38.888C26.7855 37.3076 25.9453 35.2572 25.9453 33.0068C25.9453 32.8467 25.9553 32.6767 25.9653 32.5167C30.8463 31.3864 34.9571 28.4858 37.4376 26.3754C38.3678 28.5059 40.4883 30.0062 42.9588 30.0062C43.3689 30.0062 43.7689 29.9661 44.159 29.8861C42.7987 28.3058 41.9586 26.2554 41.9586 24.0049C41.9586 21.7545 42.7887 19.6941 44.159 18.1237Z" fill="#9E9E9E"/>
<path d="M21.5446 15.0131C22.0147 12.4426 24.2552 10.4922 26.9557 10.4922C27.0458 10.4922 27.1358 10.4922 27.2258 10.5022C26.2056 11.9324 25.6055 13.6228 25.4854 15.3732C25.8155 15.4432 26.1456 15.5332 26.4656 15.6132C26.5557 13.7128 27.2658 11.8924 28.5261 10.4421C28.6461 10.3121 28.6761 10.1221 28.6161 9.96205C28.5561 9.79201 28.416 9.67199 28.246 9.63198C27.8259 9.54196 27.3858 9.50195 26.9557 9.50195C23.6951 9.50195 20.9945 11.9224 20.5344 15.0631C20.8645 15.0331 21.2046 15.0231 21.5446 15.0131Z" fill="#403B3B"/>
<path d="M21.9545 33.4968C14.593 33.4968 8.30176 28.7558 5.21113 25.9353C4.67102 25.4352 4.35095 24.735 4.35095 24.0049C4.35095 23.2747 4.66102 22.5646 5.21113 22.0645C8.30176 19.2439 14.593 14.5029 21.9545 14.5029C32.0066 14.5029 39.9882 23.2947 40.3283 23.6748C40.4983 23.8648 40.4983 24.1449 40.3283 24.3349C40.1583 24.525 36.0874 29.0259 30.1062 31.6664C29.8562 31.7765 29.5661 31.6664 29.4561 31.4164C29.3461 31.1663 29.4561 30.8763 29.7061 30.7662C34.5771 28.6258 38.2179 25.1051 39.2781 24.0149C37.7078 22.4045 30.4863 15.5131 21.9545 15.5131C14.9231 15.5131 8.86187 20.0841 5.88126 22.8146C5.5412 23.1247 5.35116 23.5548 5.35116 24.0149C5.35116 24.475 5.5412 24.9051 5.88126 25.2151C8.87187 27.9457 14.9231 32.5166 21.9545 32.5166C23.5749 32.5166 25.2552 32.2666 26.9456 31.7765C27.2056 31.6964 27.4857 31.8465 27.5657 32.1165C27.6457 32.3766 27.4957 32.6566 27.2256 32.7367C25.4453 33.2368 23.6649 33.4968 21.9545 33.4968Z" fill="#403B3B"/>
<path d="M14.7031 31.9966C14.6431 31.9966 14.5931 31.9866 14.5331 31.9666C14.273 31.8766 14.143 31.5865 14.233 31.3365C14.243 31.3064 15.4533 27.8657 15.4533 24.005C15.4533 20.1442 14.243 16.7135 14.233 16.6735C14.143 16.4134 14.273 16.1334 14.5331 16.0433C14.7931 15.9533 15.0732 16.0833 15.1632 16.3434C15.2132 16.4934 16.4435 19.9641 16.4435 24.005C16.4435 28.0458 15.2232 31.5265 15.1632 31.6665C15.1032 31.8666 14.9132 31.9966 14.7031 31.9966Z" fill="#403B3B"/>
<path d="M10.9521 23.4942C10.1221 23.4942 9.45215 22.8242 9.45215 21.9942C9.45215 21.4842 9.71215 21.0142 10.1421 20.7342C10.3721 20.5842 10.6821 20.6542 10.8321 20.8842C10.9821 21.1142 10.9121 21.4242 10.6821 21.5742C10.5421 21.6642 10.4521 21.8242 10.4521 21.9942C10.4521 22.2742 10.6821 22.4942 10.9521 22.4942C11.1121 22.4942 11.2221 22.4242 11.2821 22.3742C11.4921 22.1942 11.8021 22.2142 11.9821 22.4242C12.1621 22.6342 12.1421 22.9442 11.9321 23.1242C11.6621 23.3642 11.3121 23.4942 10.9521 23.4942Z" fill="#403B3B"/>
<path d="M26.4553 33.0067C26.4553 32.7967 26.4653 32.5966 26.4853 32.3866C26.1553 32.4766 25.8252 32.5666 25.4751 32.6366C25.4751 32.7567 25.4651 32.8867 25.4651 33.0067C25.4651 34.9771 26.0853 36.9075 27.2255 38.5078C24.0849 38.6579 21.4543 36.1374 21.4543 33.0067C21.4543 32.9967 21.4543 32.9967 21.4543 32.9867C21.1242 32.9767 20.7942 32.9667 20.4641 32.9367C20.4641 32.9567 20.4641 32.9867 20.4641 33.0067C20.4641 36.5875 23.3747 39.508 26.9654 39.508C27.3955 39.508 27.8356 39.468 28.2557 39.378C28.4257 39.338 28.5658 39.218 28.6258 39.048C28.6858 38.8779 28.6458 38.6979 28.5358 38.5679C27.1855 37.0075 26.4553 35.0371 26.4553 33.0067Z" fill="#403B3B"/>
<path d="M42.4587 24.0049C42.4587 21.9645 43.1989 19.994 44.5391 18.4437C44.6592 18.3137 44.6892 18.1237 44.6292 17.9636C44.5692 17.7936 44.4291 17.6736 44.2591 17.6336C43.839 17.5435 43.3989 17.5035 42.9688 17.5035C40.3483 17.5035 38.0978 19.0639 37.0676 21.2943C37.3477 21.5244 37.6177 21.7544 37.8578 21.9644C38.668 19.934 40.6484 18.4937 42.9688 18.4937C43.0588 18.4937 43.1489 18.4937 43.2389 18.5037C42.0987 20.1041 41.4785 22.0245 41.4785 24.0049C41.4785 25.9853 42.0987 27.9057 43.2389 29.506C40.8384 29.626 38.718 28.1457 37.8678 26.0353C37.6277 26.2453 37.3577 26.4754 37.0676 26.7054C38.0978 28.9459 40.3483 30.4962 42.9688 30.4962C43.3989 30.4962 43.839 30.4562 44.2591 30.3662C44.4291 30.3262 44.5692 30.2061 44.6292 30.0361C44.6892 29.8661 44.6492 29.686 44.5391 29.556C43.1889 28.0057 42.4587 26.0353 42.4587 24.0049Z" fill="#403B3B"/>
<path d="M24.505 49C18.5538 49 12.8226 46.8396 8.3517 42.9188C8.14166 42.7387 8.12166 42.4287 8.30169 42.2186C8.48173 42.0086 8.8018 41.9886 9.00184 42.1686C13.2927 45.9394 18.7938 48.0098 24.505 48.0098C37.4676 48.0098 48.0098 37.4676 48.0098 24.505C48.0098 11.5424 37.4676 0.990202 24.505 0.990202C11.5424 0.990202 0.990202 11.5424 0.990202 24.505C0.990202 30.2662 3.09063 35.8073 6.91141 40.1082C7.09145 40.3182 7.07144 40.6283 6.8714 40.8083C6.67136 40.9884 6.3513 40.9684 6.17126 40.7683C2.19045 36.2774 0 30.5062 0 24.505C0 10.9922 10.9922 0 24.505 0C38.0178 0 49.01 10.9922 49.01 24.505C49.01 38.0178 38.0078 49 24.505 49Z" fill="#403B3B"/>
</svg>