<svg width="60" height="60" viewBox="0 0 60 60" fill="none" xmlns="http://www.w3.org/2000/svg">
<circle cx="30.0001" cy="30" r="29.5" fill="white" stroke="#E5E5E5"/>
<path d="M33.7003 19.4701C32.3903 21.0101 31.7603 22.8701 31.8303 24.5901C30.1103 24.6701 28.3203 25.4501 26.8903 26.8801C25.4603 28.3101 24.6803 30.1001 24.6003 31.8201C22.8803 31.7601 21.0303 32.3801 19.4803 33.6901C16.8203 35.9901 16.0603 43.4001 16.0003 43.4301C15.9603 43.4801 23.5203 44.7101 26.5803 42.0801C28.2703 40.6501 29.2203 38.7501 29.3503 36.9901C31.1203 37.0101 33.0903 36.2201 34.6503 34.6501C36.2103 33.0901 37.0103 31.1201 36.9903 29.3501C38.7503 29.2301 40.6503 28.2701 42.0803 26.5801C44.7103 23.5201 43.4803 15.9601 43.4303 16.0001C43.4103 16.0501 36.0103 16.8001 33.7003 19.4701Z" fill="#979797"/>
<path d="M32.5403 32.5201C31.1003 33.9601 29.0603 34.3101 28.1303 33.3201C27.2103 32.3301 27.6303 30.3701 29.0003 28.9901C30.3803 27.6101 32.3403 27.1901 33.3303 28.1201C34.3303 29.0401 33.9803 31.0801 32.5403 32.5201Z" fill="#F5F5F5"/>
<path d="M39.8003 24.6301C38.4803 26.1901 36.4803 26.7001 35.4703 25.7901C34.4703 24.8801 34.7303 22.8901 35.9803 21.4001C37.2403 19.9101 39.1603 19.3301 40.2303 20.1701C41.3003 21.0101 41.1203 23.0701 39.8003 24.6301Z" fill="#F5F5F5"/>
<path d="M24.6503 39.7801C23.0903 41.1001 21.0303 41.2801 20.1903 40.2201C19.3503 39.1601 19.9303 37.2301 21.4203 35.9701C22.9103 34.7101 24.9003 34.4501 25.8103 35.4601C26.7203 36.4601 26.2103 38.4601 24.6503 39.7801Z" fill="#F5F5F5"/>
</svg>
