<svg width="49" height="50" viewBox="0 0 49 50" fill="none" xmlns="http://www.w3.org/2000/svg">
<path d="M38.5079 20.5542C38.5079 15.5531 34.4471 11.4923 29.4461 11.4923H19.564C14.563 11.4923 10.5022 15.5531 10.5022 20.5542C10.5022 21.9544 11.4824 23.1247 12.7927 23.4147C12.7927 23.4348 12.7927 23.4447 12.7927 23.4648C12.7927 31.4564 18.0337 38.2371 24.5051 38.2371C30.9764 38.2371 36.2174 31.4664 36.2174 23.4648C36.2174 23.4447 36.2174 23.4348 36.2174 23.4147C37.5177 23.1247 38.5079 21.9645 38.5079 20.5542Z" fill="#9E9E9E"/>
<path d="M24.495 49C18.6738 49 13.0327 46.9196 8.61176 43.1488C8.40172 42.9688 8.38171 42.6587 8.56174 42.4487C8.74178 42.2386 9.05185 42.2186 9.26189 42.3887C13.5128 46.0094 18.9239 48.0098 24.505 48.0098H24.8451C37.6077 47.8298 48.0098 37.2876 48.0098 24.505V24.1649C47.8298 11.3823 37.2876 0.990213 24.505 0.990213H24.1649C11.3923 1.17025 0.9902 11.7124 0.9902 24.495V24.8351C1.07022 30.5963 3.25066 36.1074 7.13145 40.3582C7.31149 40.5583 7.30149 40.8784 7.10145 41.0584C6.90141 41.2484 6.58134 41.2284 6.40131 41.0284C2.36048 36.5975 0.0800163 30.8563 0 24.8551V24.505C0 11.1923 10.8322 0.200049 24.1549 0.0100098H24.505C37.8177 0.0100098 48.81 10.8422 49 24.1649V24.515C49 37.8277 38.1678 48.82 24.8451 49.01L24.495 49Z" fill="#403B3B"/>
<path d="M35.9774 23.1247C35.7273 31.3864 30.6863 38.0077 24.495 38.0077C18.3938 38.0077 13.4027 31.5764 13.0227 23.4848C12.6626 23.4248 12.3325 23.3247 12.0225 23.1947C12.3025 31.9765 17.7836 39.0079 24.495 39.0079C31.2864 39.0079 36.8175 31.8165 36.9776 22.9047C36.6675 23.0047 36.3374 23.0847 35.9774 23.1247Z" fill="#403B3B"/>
<path d="M35.5573 23.9948H13.4428C11.5524 23.9948 10.0021 22.4545 10.0021 20.5541C10.0021 15.2831 14.293 11.0022 19.554 11.0022H29.436C30.9163 11.0022 32.3366 11.3323 33.6569 11.9824C33.907 12.1024 34.007 12.4025 33.8869 12.6425C33.7669 12.8926 33.4669 12.9826 33.2168 12.8726C32.0366 12.2925 30.7663 11.9924 29.436 11.9924H19.554C14.8331 11.9924 10.9923 15.8332 10.9923 20.5541C10.9923 21.9044 12.0925 23.0046 13.4328 23.0046H35.5573C36.9076 23.0046 38.0078 21.9044 38.0078 20.5541C38.0078 18.2737 37.1276 16.1332 35.5173 14.5129C35.3272 14.3229 35.3272 14.0028 35.5173 13.8128C35.7073 13.6227 36.0274 13.6227 36.2174 13.8128C38.0078 15.6131 38.998 18.0036 38.998 20.5541C38.998 22.4545 37.4577 23.9948 35.5573 23.9948Z" fill="#403B3B"/>
<path d="M24.505 11.9924C24.2349 11.9924 24.0049 11.7724 24.0049 11.4923V6.49131C24.0049 6.22126 24.2249 5.99121 24.505 5.99121C24.785 5.99121 25.0051 6.21126 25.0051 6.49131V11.4923C24.9951 11.7724 24.775 11.9924 24.505 11.9924Z" fill="#403B3B"/>
</svg>