<svg width="60" height="60" viewBox="0 0 60 60" fill="none" xmlns="http://www.w3.org/2000/svg">
<circle cx="30.0001" cy="30" r="29.5" fill="white" stroke="#E5E5E5"/>
<path d="M24.0001 48.7215C24.0001 49.3057 24.1781 49.8659 24.4949 50.2789C24.8117 50.692 25.2414 50.9241 25.6894 50.9241V51H34.3108C34.7588 51 35.1885 50.7679 35.5053 50.3549C35.8221 49.9418 36.0001 49.3816 36.0001 48.7975V45H24.0001V48.7215Z" fill="#979797"/>
<path d="M33.0001 29.6634C32.9918 28.6816 32.6678 27.7441 32.0994 27.0572C31.5309 26.3702 30.7646 25.99 29.969 26.0002C29.1733 26.0104 28.4136 26.4102 27.8568 27.1117C27.3001 27.8131 26.992 28.7587 27.0003 29.7405V37.2983C27.0003 38.28 27.3163 39.2216 27.8789 39.9158C28.4415 40.61 29.2046 41 30.0002 41C30.7958 41 31.5589 40.61 32.1215 39.9158C32.6841 39.2216 33.0001 38.28 33.0001 37.2983V29.6634Z" fill="#979797"/>
<path d="M33.3788 23.3112C32.6797 22.9366 32.5632 22.0375 32.505 21.2882L31.8642 12.147C31.9807 12.147 32.039 12.072 32.1555 11.9222C32.2286 11.7909 32.2692 11.6342 32.272 11.4726L32.1555 9H27.903L27.8448 11.4726C27.7865 11.6225 27.8448 11.7723 27.9613 11.9222C28.0778 12.072 28.0778 12.072 28.136 12.072L27.4953 21.2882C27.437 22.0375 27.3205 22.9366 26.6215 23.3112C25.8435 23.7562 25.1822 24.481 24.7171 25.3982C24.252 26.3155 24.003 27.3862 24.0001 28.4813V35H26.4467V29.9798C26.4617 28.7538 26.8471 27.5834 27.5212 26.7163C28.1952 25.8492 29.1052 25.3536 30.0584 25.3343C31.0148 25.3402 31.9308 25.8315 32.6071 26.7015C33.2834 27.5714 33.6654 28.7496 33.67 29.9798V35H36.0001V28.4813C35.9972 27.3862 35.7482 26.3155 35.2831 25.3982C34.818 24.481 34.1567 23.7562 33.3788 23.3112Z" fill="#979797"/>
<path d="M33.67 36V37.094C33.6654 38.2167 33.2834 39.2918 32.6071 40.0857C31.9308 40.8796 31.0148 41.3279 30.0584 41.3333C29.1052 41.3157 28.1952 40.8634 27.5212 40.0722C26.8471 39.2809 26.4617 38.2129 26.4467 37.094V36H24.0001V44H36.0001V36H33.67Z" fill="#979797"/>
</svg>
