<svg width="49" height="50" viewBox="0 0 49 50" fill="none" xmlns="http://www.w3.org/2000/svg">
<path d="M32.7966 40.0482C31.8264 34.6871 31.7564 29.316 32.5766 23.9549C32.8866 21.9145 32.4966 19.8341 31.3963 18.0937L28.2857 13.1227H27.8356C28.3057 13.1227 28.6958 12.7426 28.6958 12.2625V9.71198C28.6958 9.24189 28.3157 8.85181 27.8356 8.85181H25.7952V7.16146C25.7952 6.44131 25.2151 5.86121 24.4949 5.86121C23.7748 5.86121 23.1947 6.44131 23.1947 7.16146V8.85181H21.1543C20.6842 8.85181 20.2941 9.23188 20.2941 9.71198V12.2625C20.2941 12.7326 20.6742 13.1227 21.1543 13.1227H20.7042L17.5935 18.0937C16.5033 19.8441 16.1032 21.9245 16.4133 23.9549C17.2335 29.316 17.1634 34.6871 16.1932 40.0482C16.0132 41.0584 16.6333 42.0386 17.6335 42.2886C19.894 42.8488 22.1545 43.1288 24.4149 43.1388V43.1488C24.4449 43.1488 24.4649 43.1488 24.4949 43.1488C24.5249 43.1488 24.5449 43.1488 24.575 43.1488V43.1388C26.8354 43.1288 29.0959 42.8387 31.3563 42.2886C32.3565 42.0386 32.9767 41.0684 32.7966 40.0482Z" fill="#9E9E9E"/>
<path d="M24.485 49.01C18.6638 49.01 13.0227 46.9296 8.60176 43.1588C8.39172 42.9788 8.37171 42.6687 8.55175 42.4587C8.73178 42.2486 9.04184 42.2286 9.25189 42.3987C13.5028 46.0194 18.9139 48.0198 24.495 48.0198H24.8351C37.6077 47.8398 48.0098 37.2976 48.0098 24.515V24.1749C47.8298 11.3923 37.2876 1.00021 24.505 1.00021H24.1649C11.3923 1.18025 0.990207 11.7224 0.990207 24.495V24.8351C1.07022 30.5963 3.25067 36.1074 7.13146 40.3582C7.3115 40.5583 7.3015 40.8784 7.10145 41.0584C6.90141 41.2484 6.58135 41.2284 6.40131 41.0284C2.36049 36.5975 0.0800163 30.8563 0 24.8551V24.505C0 11.1923 10.8322 0.200049 24.1549 0.0100098H24.505C37.8177 0.0100098 48.81 10.8422 49 24.1649V24.515C49 37.8277 38.1678 48.82 24.8451 49.01H24.485Z" fill="#403B3B"/>
<path d="M27.8355 13.6128H21.1541C20.4039 13.6128 19.7938 13.0026 19.7938 12.2625V9.71196C19.7938 8.96181 20.4039 8.36169 21.1541 8.36169H27.8355C28.5856 8.36169 29.1957 8.97181 29.1957 9.71196V12.2625C29.1957 13.0126 28.5856 13.6128 27.8355 13.6128ZM21.1541 9.35189C20.9541 9.35189 20.794 9.51192 20.794 9.71196V12.2625C20.794 12.4625 20.9541 12.6226 21.1541 12.6226H27.8355C28.0355 12.6226 28.1955 12.4625 28.1955 12.2625V9.71196C28.1955 9.51192 28.0355 9.35189 27.8355 9.35189H21.1541Z" fill="#403B3B"/>
<path d="M25.7946 9.35109H23.2046C22.9346 9.35109 22.7046 9.13109 22.7046 8.85109V7.16109C22.7046 6.17109 23.5046 5.37109 24.4946 5.37109C25.4846 5.37109 26.2846 6.17109 26.2846 7.16109V8.85109C26.2846 9.13109 26.0646 9.35109 25.7946 9.35109ZM23.6946 8.3611H25.2946V7.1711C25.2946 6.7311 24.9346 6.37109 24.4946 6.37109C24.0546 6.37109 23.6946 6.7311 23.6946 7.1711V8.3611Z" fill="#403B3B"/>
<path d="M24.5749 43.6489H24.4049C24.3749 43.6489 24.3448 43.6489 24.3248 43.6389C22.0544 43.6189 19.7639 43.3288 17.5034 42.7687C16.4132 42.4986 15.6531 41.5285 15.6531 40.3982C15.6531 40.2482 15.6631 40.1082 15.6931 39.9581C16.2132 37.0976 16.4732 34.197 16.4732 31.3364C16.4732 28.9059 16.2832 26.4554 15.9131 24.0249C15.8431 23.5548 15.8031 23.0747 15.8031 22.5946C15.8031 20.8842 16.2732 19.2339 17.1534 17.8236L20.264 12.8526C20.354 12.7026 20.5141 12.6226 20.6841 12.6226H28.2756C28.4457 12.6226 28.6057 12.7126 28.6957 12.8526L31.8064 17.8236C32.6965 19.2439 33.1566 20.8942 33.1566 22.5946C33.1566 23.0647 33.1166 23.5448 33.0466 24.0149C32.6765 26.4354 32.4865 28.8959 32.4865 31.3264C32.4865 34.187 32.7466 37.0876 33.2667 39.9481C33.2967 40.0982 33.3067 40.2482 33.3067 40.3882C33.3067 41.5184 32.5465 42.4887 31.4563 42.7587L31.0662 42.8487C30.7962 42.9087 30.5361 42.7487 30.4661 42.4787C30.3961 42.2086 30.5661 41.9485 30.8362 41.8785L31.2162 41.7885C31.8564 41.6285 32.3065 41.0483 32.3065 40.3882C32.3065 40.2982 32.2965 40.2082 32.2865 40.1182C31.7564 37.1976 31.4863 34.237 31.4863 31.3164C31.4863 28.8359 31.6763 26.3253 32.0564 23.8548C32.1164 23.4348 32.1564 23.0047 32.1564 22.5846C32.1564 21.0643 31.7364 19.594 30.9562 18.3337L27.9956 13.5928H20.9542L17.9936 18.3337C17.2034 19.594 16.7933 21.0643 16.7933 22.5846C16.7933 23.0147 16.8233 23.4348 16.8933 23.8548C17.2734 26.3253 17.4634 28.8359 17.4634 31.3164C17.4634 34.237 17.1934 37.1976 16.6633 40.1182C16.6433 40.2082 16.6433 40.2982 16.6433 40.3882C16.6433 41.0584 17.0934 41.6285 17.7335 41.7885C19.934 42.3286 22.1844 42.6187 24.3948 42.6287C24.4149 42.6287 24.4449 42.6287 24.4649 42.6387H24.4749C24.4949 42.6387 24.5249 42.6287 24.5449 42.6287C25.6751 42.6187 26.8054 42.5487 27.9256 42.3986C28.1856 42.3686 28.4457 42.5587 28.4757 42.8287C28.5057 43.0988 28.3157 43.3488 28.0456 43.3888C26.9154 43.5289 25.7651 43.6089 24.6249 43.6189C24.6349 43.6489 24.6049 43.6489 24.5749 43.6489Z" fill="#403B3B"/>
</svg>