<svg width="12" height="12" viewBox="0 0 12 12" fill="none" xmlns="http://www.w3.org/2000/svg">
<circle cx="6" cy="6" r="5.5" stroke="#FF9900"/>
<path d="M5.07469 2.5H6.93469L6.62469 7.07H5.38469L5.07469 2.5ZM6.00469 9.58C5.73135 9.58 5.50135 9.49333 5.31469 9.32C5.13469 9.14 5.04469 8.92333 5.04469 8.67C5.04469 8.41667 5.13469 8.20667 5.31469 8.04C5.49469 7.86667 5.72469 7.78 6.00469 7.78C6.28469 7.78 6.51469 7.86667 6.69469 8.04C6.87469 8.20667 6.96469 8.41667 6.96469 8.67C6.96469 8.92333 6.87135 9.14 6.68469 9.32C6.50469 9.49333 6.27802 9.58 6.00469 9.58Z" fill="#FF9900"/>
</svg>