<svg width="32" height="32" viewBox="0 0 32 32" fill="none" xmlns="http://www.w3.org/2000/svg">
<g clip-path="url(#clip0_245_197)">
<path d="M4.18048 4.35452V12.9157C4.18048 13.2579 4.45774 13.5348 4.79912 13.5348H13.3536C13.6949 13.5348 13.9722 13.2579 13.9722 12.9157V11.2922C13.9722 10.9501 13.6949 10.6731 13.3536 10.6731C13.0122 10.6731 12.7354 10.9501 12.7354 11.2922V12.2965H5.41777V4.97319H12.7349V6.46383C12.7349 6.806 13.0117 7.08299 13.3531 7.08299C13.6944 7.08299 13.9717 6.8055 13.9717 6.46383V4.35452C13.9717 4.01235 13.6944 3.73535 13.3531 3.73535H4.79912C4.45774 3.73535 4.18048 4.01235 4.18048 4.35452Z" fill="#403B3B"/>
<path d="M7.7932 6.73169C7.45132 6.73169 7.17505 7.00868 7.17505 7.35036V9.91886C7.17505 10.2605 7.45181 10.538 7.7932 10.538H10.3595C10.7009 10.538 10.9782 10.2605 10.9782 9.91886V7.35036C10.9782 7.00868 10.7009 6.73169 10.3595 6.73169H7.7932ZM9.74138 9.30019H8.41184V7.96953H9.74138V9.30019Z" fill="#403B3B"/>
<path d="M13.3536 17.9558H4.79912C4.45774 17.9558 4.18048 18.2328 4.18048 18.5745V27.1361C4.18048 27.4778 4.45774 27.7548 4.79912 27.7548H13.3536C13.6949 27.7548 13.9722 27.4778 13.9722 27.1361V18.5745C13.9722 18.2328 13.6949 17.9558 13.3536 17.9558ZM12.7349 26.517H5.41777V19.1936H12.7349V26.517Z" fill="#403B3B"/>
<path d="M19.0506 13.5348H27.605C27.9464 13.5348 28.2232 13.2579 28.2232 12.9157V4.35452C28.2232 4.01235 27.9459 3.73535 27.605 3.73535H19.0506C18.7092 3.73535 18.4319 4.01235 18.4319 4.35452V12.9157C18.4319 13.2579 18.7092 13.5348 19.0506 13.5348ZM19.6687 4.97319H26.9859V12.2965H19.6687V4.97319Z" fill="#403B3B"/>
<path d="M28.2237 27.1361V18.5745C28.2237 18.2328 27.9464 17.9558 27.6055 17.9558H19.0511C18.7097 17.9558 18.4324 18.2328 18.4324 18.5745V27.1361C18.4324 27.4778 18.7097 27.7548 19.0511 27.7548H27.6055C27.9464 27.7553 28.2237 27.4778 28.2237 27.1361ZM26.9864 26.517H19.6687V19.1936H26.9859V26.517H26.9864Z" fill="#403B3B"/>
<path d="M27.6051 16.4016C27.9465 16.4016 28.2232 16.1241 28.2232 15.7824C28.2232 15.4403 27.946 15.1638 27.6051 15.1638H16.7606V4.28591C16.7606 3.94424 16.4833 3.66675 16.1424 3.66675C15.8005 3.66675 15.5238 3.94424 15.5238 4.28591V15.1638H7.31419C6.97281 15.1638 6.69604 15.4408 6.69604 15.7824C6.69604 16.1246 6.9733 16.4016 7.31419 16.4016H15.5238V27.1363C15.5238 27.4779 15.8005 27.7549 16.1424 27.7549C16.4838 27.7549 16.7606 27.4779 16.7606 27.1363V16.4016H27.6051Z" fill="#403B3B"/>
<path d="M7.7932 24.8046H10.3595C10.7009 24.8046 10.9782 24.5271 10.9782 24.1855V21.617C10.9782 21.2748 10.7009 20.9983 10.3595 20.9983H7.7932C7.45132 20.9983 7.17505 21.2753 7.17505 21.617V24.1855C7.17505 24.5276 7.45181 24.8046 7.7932 24.8046ZM8.41184 22.2361H9.74138V23.5668H8.41184V22.2361Z" fill="#403B3B"/>
<path d="M24.611 6.73169H22.0447C21.7033 6.73169 21.426 7.00868 21.426 7.35036V9.91886C21.426 10.2605 21.7033 10.538 22.0447 10.538H24.611C24.9529 10.538 25.2296 10.2605 25.2296 9.91886V7.35036C25.2291 7.00868 24.9524 6.73169 24.611 6.73169ZM23.9924 9.30019H22.6633V7.96953H23.9924V9.30019Z" fill="#403B3B"/>
<path d="M22.0447 24.8046H24.611C24.9529 24.8046 25.2296 24.5271 25.2296 24.1855V21.617C25.2296 21.2748 24.9529 20.9983 24.611 20.9983H22.0447C21.7033 20.9983 21.426 21.2753 21.426 21.617V24.1855C21.426 24.5276 21.7028 24.8046 22.0447 24.8046ZM22.6633 22.2361H23.9924V23.5668H22.6633V22.2361Z" fill="#403B3B"/>
<path d="M4.67436 15.1662L4.64081 15.1741C4.3083 15.2526 4.10209 15.5859 4.18053 15.9186C4.24762 16.2035 4.50169 16.3961 4.78191 16.3961C4.82927 16.3961 4.87663 16.3907 4.92448 16.3793L4.95753 16.3714C5.29004 16.2929 5.49626 15.9596 5.41782 15.6268C5.33987 15.294 5.00687 15.0882 4.67436 15.1662Z" fill="#403B3B"/>
<path d="M13.2287 8.26011L13.1952 8.26801C12.8627 8.34602 12.6565 8.67931 12.7344 9.01209C12.801 9.29748 13.0551 9.49005 13.3363 9.49005C13.3827 9.49005 13.43 9.48462 13.4779 9.47326L13.5109 9.46536C13.8434 9.38735 14.0497 9.05406 13.9717 8.72127C13.8943 8.38898 13.5613 8.1821 13.2287 8.26011Z" fill="#403B3B"/>
<path d="M0.989609 5.07034C1.33149 5.07034 1.60825 4.79334 1.60825 4.45167V1.23784H4.70245C5.04433 1.23784 5.32109 0.960842 5.32109 0.619165C5.32109 0.277489 5.04433 0 4.70245 0H0.989609C0.648714 0 0.37146 0.277489 0.37146 0.619165V4.45167C0.37146 4.79334 0.648714 5.07034 0.989609 5.07034Z" fill="#403B3B"/>
<path d="M31.2957 0H27.5834C27.2415 0 26.9647 0.277489 26.9647 0.619165C26.9647 0.961335 27.242 1.23784 27.5834 1.23784H30.6776V4.45117C30.6776 4.79285 30.9543 5.06985 31.2962 5.06985C31.6376 5.06985 31.9144 4.79285 31.9144 4.45117V0.619165C31.9144 0.277489 31.6371 0 31.2957 0Z" fill="#403B3B"/>
<path d="M4.70245 30.3047H1.60825V27.0913C1.60825 26.7496 1.33149 26.4727 0.989609 26.4727C0.648714 26.4727 0.37146 26.7496 0.37146 27.0913V30.9238C0.37146 31.2655 0.648714 31.543 0.989609 31.543H4.70195C5.04384 31.543 5.3206 31.2655 5.3206 30.9238C5.32109 30.5822 5.04433 30.3047 4.70245 30.3047Z" fill="#403B3B"/>
<path d="M31.2956 26.4727C30.9538 26.4727 30.677 26.7501 30.677 27.0913V30.3047H27.5828C27.2409 30.3047 26.9642 30.5817 26.9642 30.9238C26.9642 31.2655 27.2414 31.543 27.5828 31.543H31.2952C31.6365 31.543 31.9133 31.2655 31.9133 30.9238V27.0913C31.9143 26.7496 31.637 26.4727 31.2956 26.4727Z" fill="#403B3B"/>
</g>
<defs>
<clipPath id="clip0_245_197">
<rect width="31.5429" height="31.5429" fill="white" transform="translate(0.37146)"/>
</clipPath>
</defs>
</svg>
