<svg width="244" height="266" viewBox="0 0 244 266" fill="none" xmlns="http://www.w3.org/2000/svg">
<circle cx="119" cy="147" r="119" fill="#B7E2F0"/>
<mask id="mask0_242_905" style="mask-type:alpha" maskUnits="userSpaceOnUse" x="0" y="28" width="238" height="238">
<circle cx="119" cy="147" r="119" fill="#A7D2CF"/>
</mask>
<g mask="url(#mask0_242_905)">
<path opacity="0.2" d="M90.5 168C16.5 168.8 -13 198.333 -18.5 213L-2 263L276 301.5L255 240C202 289 183 167 90.5 168Z" fill="#0099FF"/>
<path opacity="0.2" d="M74 197C34.8 187 -3.33333 231.167 -17.5 254.5L147 307.5L299 243C276.667 216.333 224.9 163 196.5 163C161 163 123 209.5 74 197Z" fill="#0099FF"/>
<path opacity="0.2" d="M53 159.5C27.8 138.7 -23.6667 171.5 -54 195L-74 326.5L333 302.5C322.667 257 299.7 164.7 290.5 159.5C279 153 219 121 178.5 112.5C138 104 84.5 185.5 53 159.5Z" fill="#0099FF"/>
</g>
<circle cx="176" cy="92" r="3" fill="#0099FF"/>
<circle cx="225.5" cy="42.5" r="4.5" fill="#FED304"/>
<circle cx="241" cy="89" r="3" fill="#0099FF"/>
<circle cx="204" cy="107" r="6" fill="#E84B31"/>
<circle cx="118.447" cy="167.022" r="33.9779" fill="#FF9900"/>
<path d="M184.746 67.2983C184.746 49.7149 177.761 32.8517 165.327 20.4183C152.894 7.98498 136.031 1 118.447 1C100.864 1 84.0008 7.98498 71.5675 20.4183C59.1341 32.8517 52.1492 49.7149 52.1492 67.2983C52.1492 111.516 41.3159 137.677 32.0355 151.977C28.8036 156.957 32.8802 166.746 38.8167 166.746H198.078C204.015 166.746 208.091 156.957 204.859 151.977C195.579 137.677 184.746 111.516 184.746 67.2983Z" fill="#FF9900" stroke="#FF9900" stroke-width="2" stroke-linecap="round" stroke-linejoin="round"/>
</svg>
