<svg width="26" height="26" viewBox="0 0 26 26" fill="none" xmlns="http://www.w3.org/2000/svg">
<g id="SettingsFilled">
<path id="Vector" d="M20.735 14.0183C20.7783 13.6933 20.8 13.3575 20.8 13C20.8 12.6533 20.7783 12.3066 20.7241 11.9816L22.9233 10.27C23.1183 10.1183 23.1725 9.82581 23.0533 9.60914L20.9733 6.01248C20.8433 5.77414 20.5725 5.69831 20.3341 5.77414L17.745 6.81414C17.2033 6.40248 16.6291 6.05581 15.99 5.79581L15.6 3.04414C15.5566 2.78414 15.34 2.59998 15.08 2.59998H10.92C10.66 2.59998 10.4541 2.78414 10.4108 3.04414L10.0208 5.79581C9.38162 6.05581 8.79662 6.41331 8.26579 6.81414L5.67662 5.77414C5.43829 5.68748 5.16746 5.77414 5.03746 6.01248L2.96829 9.60914C2.83829 9.83664 2.88162 10.1183 3.09829 10.27L5.29746 11.9816C5.24329 12.3066 5.19996 12.6641 5.19996 13C5.19996 13.3358 5.22162 13.6933 5.27579 14.0183L3.07662 15.73C2.88162 15.8816 2.82746 16.1741 2.94662 16.3908L5.02662 19.9875C5.15662 20.2258 5.42746 20.3016 5.66579 20.2258L8.25496 19.1858C8.79662 19.5975 9.37079 19.9441 10.01 20.2041L10.4 22.9558C10.4541 23.2158 10.66 23.4 10.92 23.4H15.08C15.34 23.4 15.5566 23.2158 15.5891 22.9558L15.9791 20.2041C16.6183 19.9441 17.2033 19.5975 17.7341 19.1858L20.3233 20.2258C20.5616 20.3125 20.8325 20.2258 20.9625 19.9875L23.0425 16.3908C23.1725 16.1525 23.1183 15.8816 22.9125 15.73L20.735 14.0183ZM13 16.9C10.855 16.9 9.09996 15.145 9.09996 13C9.09996 10.855 10.855 9.09997 13 9.09997C15.145 9.09997 16.9 10.855 16.9 13C16.9 15.145 15.145 16.9 13 16.9Z" fill="#1C1B1F"/>
</g>
</svg>
