<svg width="50" height="49" viewBox="0 0 50 49" fill="none" xmlns="http://www.w3.org/2000/svg">
<path d="M24.505 49C18.5538 49 12.8226 46.8396 8.35171 42.9188C8.14167 42.7387 8.12166 42.4287 8.3017 42.2186C8.48173 42.0086 8.8018 41.9886 9.00184 42.1686C13.2927 45.9294 18.7938 47.9998 24.505 47.9998C37.4676 47.9998 48.0098 37.4576 48.0098 24.495C48.0098 11.5324 37.4676 0.990202 24.505 0.990202C11.5424 0.990202 1.0002 11.5324 1.0002 24.495C1.0002 30.2562 3.10063 35.7973 6.92141 40.0982C7.10145 40.3082 7.08145 40.6183 6.88141 40.7983C6.68137 40.9784 6.36129 40.9584 6.18125 40.7583C2.19044 36.2774 0 30.5062 0 24.505C0 10.9922 10.9922 0 24.505 0C38.0178 0 49.01 10.9922 49.01 24.505C49.01 38.0178 38.0078 49 24.505 49Z" fill="#403B3B"/>
<path d="M28.3158 14.0829C27.0055 15.6332 26.3754 17.4836 26.4454 19.2039C24.7251 19.2839 22.9247 20.0641 21.4944 21.4944C20.0641 22.9247 19.284 24.725 19.204 26.4454C17.4836 26.3854 15.6232 27.0155 14.0829 28.3158C11.4124 30.6263 10.6622 38.0378 10.6022 38.0678C10.5622 38.1178 18.1337 39.348 21.1944 36.7175C22.8847 35.2872 23.8449 33.3868 23.9649 31.6165C25.7353 31.6365 27.7057 30.8363 29.276 29.276C30.8363 27.7157 31.6365 25.7353 31.6165 23.9649C33.3769 23.8449 35.2872 22.8847 36.7175 21.1943C39.3481 18.1337 38.1178 10.5622 38.0678 10.6022C38.0378 10.6622 30.6263 11.4223 28.3158 14.0829Z" fill="#C1603E"/>
<path d="M14.5829 38.8979C10.1119 38.8979 10.1119 38.2778 10.1119 38.0678C10.1119 38.0178 10.1219 37.9678 10.1319 37.9177C10.1419 37.8577 10.1619 37.7577 10.1819 37.6077C10.9421 32.6067 12.1423 29.356 13.7627 27.9457C15.223 26.7055 16.9933 26.0053 18.7537 25.9453C18.9537 24.2049 19.8139 22.4846 21.1442 21.1443C22.5045 19.784 24.1948 18.9439 25.9452 18.7438C25.9952 16.9835 26.7053 15.2231 27.9356 13.7628C29.3459 12.1425 32.5865 10.9322 37.5975 10.1721C37.7476 10.1521 37.8576 10.1321 37.9076 10.1221C37.9576 10.1021 38.0076 10.1021 38.0576 10.1021C38.2677 10.1021 38.8878 10.1021 38.8878 14.573C38.8878 16.7834 38.5777 19.784 37.0874 21.5144C35.7372 23.1147 33.9368 24.1549 32.0964 24.415C32.0264 25.5452 31.6863 26.6454 31.1162 27.6757C30.9862 27.9157 30.6761 27.9957 30.4461 27.8657C30.206 27.7357 30.126 27.4256 30.256 27.1856C30.8262 26.1653 31.1262 25.0751 31.1262 24.0349C31.1262 23.7749 31.3263 23.4848 31.5863 23.4748C33.2867 23.3548 35.067 22.3846 36.3373 20.8743C37.6276 19.374 37.9076 16.6234 37.9076 14.583C37.9076 13.1227 37.7676 11.8224 37.6776 11.1723C31.8064 12.0725 29.5559 13.4227 28.7057 14.4129C27.5755 15.7532 26.9454 17.3735 26.9454 18.9739C26.9454 19.0439 26.9454 19.1139 26.9454 19.1839C26.9554 19.3139 26.9054 19.444 26.8153 19.544C26.7253 19.644 26.6053 19.704 26.4753 19.704C24.8249 19.784 23.1446 20.5642 21.8543 21.8445C20.5641 23.1347 19.7839 24.8151 19.7139 26.4654C19.7039 26.7355 19.5139 26.9455 19.2038 26.9355H18.9837C17.3834 26.9355 15.7631 27.5656 14.4228 28.6959C13.4426 29.546 12.0823 31.7865 11.1922 37.6677C11.8423 37.7577 13.1326 37.8977 14.6029 37.8977C16.6433 37.8977 19.3938 37.6277 20.8941 36.3374C22.4044 35.0572 23.3747 33.2868 23.4947 31.5764C23.5147 31.3164 23.7347 31.1164 23.9948 31.1164H24.0048C25.5651 31.1164 27.1754 30.4762 28.4857 29.356C28.6957 29.176 29.0058 29.206 29.1858 29.406C29.3659 29.616 29.3359 29.9261 29.1358 30.1061C27.7555 31.2864 26.0652 31.9965 24.4449 32.0966C24.1848 33.9369 23.1446 35.7373 21.5443 37.0876C19.7839 38.5879 16.7933 38.8979 14.5829 38.8979Z" fill="#403B3B"/>
<path d="M24.2049 29.0159C23.4547 29.0159 22.8246 28.7659 22.3745 28.2958C21.9644 27.8557 21.7444 27.2556 21.7444 26.5654C21.7444 25.4452 22.3145 24.2149 23.2547 23.2648C24.795 21.7344 27.1255 21.3044 28.2757 22.3746C28.7358 22.8047 28.9959 23.4548 28.9959 24.1949C28.9959 25.3152 28.4357 26.5554 27.4855 27.4956C26.5654 28.4558 25.3251 29.0159 24.2049 29.0159ZM26.5654 22.7446C25.7152 22.7446 24.725 23.2147 23.9648 23.9649C23.2147 24.7151 22.7446 25.7153 22.7446 26.5654C22.7446 26.8655 22.8046 27.2956 23.1047 27.6156C23.4147 27.9557 23.8748 28.0257 24.2049 28.0257C25.0551 28.0257 26.0553 27.5556 26.8054 26.8055C27.5556 26.0553 28.0257 25.0551 28.0257 24.2049C28.0257 23.8749 27.9556 23.4148 27.6156 23.1047C27.2955 22.8047 26.8654 22.7446 26.5654 22.7446Z" fill="#403B3B"/>
<path d="M31.3763 21.3644C30.7362 21.3644 30.1761 21.1643 29.766 20.7842C29.2659 20.3242 28.9858 19.634 28.9858 18.8338C28.9858 17.7836 29.4459 16.6434 30.2361 15.7032C31.1763 14.593 32.4866 13.9128 33.6668 13.9128C34.2469 13.9128 34.767 14.0829 35.1771 14.4029C35.7472 14.853 36.0573 15.5732 36.0573 16.4434C36.0573 17.5036 35.6072 18.6438 34.807 19.574C33.8668 20.6842 32.5566 21.3644 31.3763 21.3644ZM33.6568 14.903C32.7766 14.903 31.7364 15.4732 30.9862 16.3433C30.3561 17.0935 29.976 18.0237 29.976 18.8338C29.976 19.2039 30.0561 19.704 30.4261 20.0441C30.7162 20.3141 31.1063 20.3642 31.3763 20.3642C32.2565 20.3642 33.3067 19.804 34.0469 18.9239C34.677 18.1837 35.0571 17.2535 35.0571 16.4334C35.0571 15.8732 34.877 15.4232 34.557 15.1731C34.3169 14.9931 34.0169 14.903 33.6568 14.903Z" fill="#403B3B"/>
<path d="M16.4435 36.0474C15.5733 36.0474 14.8431 35.7373 14.4031 35.1672C14.083 34.7571 13.913 34.237 13.913 33.6569C13.913 32.4866 14.6031 31.1664 15.7033 30.2362C17.3637 28.8359 19.7341 28.6058 20.7844 29.7661C21.1644 30.1862 21.3645 30.7463 21.3645 31.3764C21.3645 32.5567 20.6743 33.8669 19.5741 34.8071C18.6439 35.5973 17.5037 36.0474 16.4435 36.0474ZM18.834 29.9761C18.0238 29.9761 17.0936 30.3562 16.3435 30.9863C15.4633 31.7265 14.9032 32.7767 14.9032 33.6569C14.9032 34.017 14.9932 34.317 15.1832 34.5571C15.8133 35.3572 17.6837 35.1172 18.934 34.047C19.8042 33.3068 20.3743 32.2566 20.3743 31.3764C20.3743 31.1064 20.3143 30.7163 20.0542 30.4262C19.7141 30.0561 19.204 29.9761 18.834 29.9761Z" fill="#403B3B"/>
</svg>