<svg width="120" height="100" viewBox="0 0 120 100" fill="none" xmlns="http://www.w3.org/2000/svg">
<path d="M40.6484 59.7751C40.5784 54.8141 36.6876 50.6532 31.8266 50.3431L21.5045 50.4932C21.2845 49.913 20.7344 49.503 20.0842 49.513C19.4341 49.523 18.884 49.9531 18.6839 50.5332L13.3729 50.6132L13.4129 53.4538C13.4629 56.6844 16.1134 59.265 19.3441 59.2149L31.1665 59.0449C33.1269 59.0149 34.6672 60.8953 34.0271 62.9657C33.637 64.216 32.4468 65.1262 31.1365 65.1161C31.0865 65.1161 31.0165 65.1161 30.9865 65.1061V65.0861L22.3947 63.7859L22.4747 69.467L31.0465 69.347V69.337C36.3876 69.447 40.7284 65.0861 40.6484 59.7751Z" fill="#FF6652"/>
<path d="M24.495 84C18.6738 84 13.0327 81.9196 8.61176 78.1488C8.40172 77.9688 8.38171 77.6587 8.56175 77.4487C8.74179 77.2386 9.05185 77.2186 9.26189 77.3887C13.5128 81.0094 18.9239 83.0098 24.505 83.0098H24.8451C37.6277 82.8298 48.0198 72.2876 48.0198 59.515V59.1749C47.8298 46.3823 37.2876 35.9902 24.505 35.9902H24.1649C11.3923 36.1702 0.990202 46.7124 0.990202 59.485V59.8251C1.07022 65.5862 3.25066 71.0974 7.13146 75.3482C7.31149 75.5483 7.30149 75.8683 7.10145 76.0484C6.90141 76.2384 6.58134 76.2184 6.40131 76.0184C2.36048 71.5875 0.0800163 65.8463 0 59.8451V59.495C0 46.1823 10.8322 35.19 24.1549 35H24.505C37.8177 35 48.81 45.8322 49 59.1549V59.505C49 72.8177 38.1678 83.81 24.8451 84H24.495Z" fill="#403B3B"/>
<path d="M31.2062 69.8571H31.0062C30.8662 69.8571 30.7461 69.7971 30.6461 69.6971C30.5661 69.6071 30.5161 69.487 30.5161 69.367L30.4561 65.1362C30.4561 64.9961 30.5061 64.8661 30.6061 64.7661C30.7061 64.6761 30.8462 64.6261 30.9762 64.6261L31.1262 64.6361C32.1964 64.6361 33.2066 63.8759 33.5367 62.8257C33.6167 62.5556 33.6667 62.2856 33.6667 62.0155C33.6667 60.6552 32.5565 59.545 31.1962 59.545L23.4146 59.655C23.1746 59.685 22.9145 59.445 22.9145 59.1649C22.9145 58.8949 23.1246 58.6648 23.4046 58.6648L31.1462 58.5548C33.1066 58.5548 34.6569 60.1051 34.6569 62.0155C34.6569 62.3856 34.5969 62.7557 34.4869 63.1257C34.0568 64.496 32.8366 65.4762 31.4463 65.6163L31.5063 68.8569C36.3073 68.6969 40.1581 64.7461 40.1581 59.9151V59.7851C40.0881 55.0641 36.4173 51.1333 31.8064 50.8432L13.8827 51.1033L13.9127 53.4538C13.9527 56.3644 16.3532 58.7248 19.2538 58.7248L20.404 58.7048C20.404 58.7048 20.404 58.7048 20.414 58.7048C20.6841 58.7048 20.9041 58.9249 20.9141 59.1949C20.9141 59.465 20.7041 59.695 20.424 59.695L19.3438 59.715C15.8031 59.715 12.9625 56.9145 12.9125 53.4638L12.8725 50.6232C12.8725 50.4932 12.9225 50.3631 13.0125 50.2731C13.1025 50.1831 13.2326 50.1231 13.3626 50.1231L31.8164 49.863C36.9874 50.1931 41.0683 54.554 41.1383 59.7851V59.9251C41.1483 65.3962 36.6874 69.8571 31.2062 69.8571Z" fill="#403B3B"/>
<path d="M22.4645 69.9772C22.1944 69.9772 21.9744 69.7571 21.9644 69.4871L21.8843 63.8059C21.8843 63.6559 21.9444 63.5258 22.0544 63.4258C22.1644 63.3258 22.3144 63.2858 22.4545 63.3058L31.0462 64.6061C31.2863 64.6461 31.4663 64.8461 31.4663 65.0862L31.5263 69.347C31.5263 69.4771 31.4763 69.6071 31.3863 69.6971C31.2963 69.7871 31.1662 69.8471 31.0362 69.8471L22.4645 69.9772C22.4745 69.9772 22.4745 69.9772 22.4645 69.9772ZM22.8945 64.386L22.9646 68.987L30.5461 68.8769L30.4961 65.5362L22.8945 64.386Z" fill="#403B3B"/>
<path d="M20.0936 52.513C20.9221 52.513 21.5936 51.8414 21.5936 51.013C21.5936 50.1845 20.9221 49.513 20.0936 49.513C19.2652 49.513 18.5936 50.1845 18.5936 51.013C18.5936 51.8414 19.2652 52.513 20.0936 52.513Z" fill="white"/>
<path d="M20.0936 53.0129C19.0036 53.0129 18.1136 52.1329 18.0936 51.0429C18.0836 50.5129 18.2836 50.0029 18.6636 49.6229C19.0436 49.2429 19.5336 49.0229 20.0736 49.0129C20.0836 49.0129 20.0936 49.0129 20.1036 49.0129C21.1936 49.0129 22.0836 49.8929 22.1036 50.9829C22.1136 51.5129 21.9136 52.0229 21.5336 52.4029C21.1636 52.7829 20.6636 53.0029 20.1336 53.0129C20.1136 53.0129 20.1036 53.0129 20.0936 53.0129ZM20.0936 50.0029H20.0836C19.8136 50.0029 19.5636 50.1129 19.3736 50.3029C19.1836 50.4929 19.0836 50.7529 19.0836 51.0229C19.0936 51.5829 19.5836 52.0029 20.1036 52.0129C20.3736 52.0129 20.6236 51.9029 20.8136 51.7029C21.0036 51.5029 21.1036 51.2529 21.0936 50.9929C21.0936 50.7229 20.9836 50.4729 20.7936 50.2829C20.6136 50.1029 20.3636 50.0029 20.0936 50.0029Z" fill="#403B3B"/>
<path d="M12.4424 65.6963C11.8522 65.6963 11.2621 65.5663 10.712 65.3062C9.51177 64.7461 8.60158 63.7459 8.15149 62.4956C7.7014 61.2454 7.76141 59.8951 8.33153 58.6948C9.53177 56.1343 12.0823 54.784 16.1231 54.574C16.4432 54.564 16.6332 54.774 16.6432 55.0441C16.6532 55.3142 16.4432 55.5542 16.1731 55.5642C12.5324 55.7543 10.2519 56.9145 9.22171 59.1149C8.77162 60.0751 8.72161 61.1554 9.08168 62.1556C9.44176 63.1558 10.1719 63.9559 11.1321 64.406C11.8723 64.7561 12.7124 64.7961 13.4826 64.516C14.2527 64.236 14.8729 63.6759 15.2229 62.9257C15.493 62.3556 15.523 61.7155 15.303 61.1153C15.0929 60.5252 14.6528 60.0451 14.0827 59.7751C13.8327 59.655 13.7326 59.365 13.8427 59.1149C13.9627 58.8649 14.2527 58.7549 14.5028 58.8749C15.313 59.255 15.9331 59.9351 16.2331 60.7753C16.5332 61.6154 16.4932 62.5356 16.1131 63.3458C15.653 64.326 14.8329 65.0762 13.8126 65.4462C13.3726 65.6163 12.9025 65.6963 12.4424 65.6963Z" fill="#403B3B"/>
<path d="M24.2248 59.635C23.9547 59.635 23.7347 59.415 23.7247 59.1449C23.7247 58.8749 23.9347 58.6448 24.2148 58.6448L27.2154 58.6048C27.2554 58.6048 27.4955 58.4148 27.6955 57.6146C27.8855 56.8745 27.9756 55.8343 27.9656 54.754C27.9456 53.6738 27.8255 52.6336 27.6155 51.9035C27.3954 51.1033 27.1454 50.9233 27.1054 50.9233L24.1048 50.9633C23.8547 50.9733 23.6047 50.7432 23.6047 50.4732C23.6047 50.2031 23.8147 49.9731 24.0948 49.9731L27.0954 49.9331C27.7455 49.873 28.2556 50.4932 28.5757 51.6434C28.8057 52.4636 28.9458 53.5738 28.9558 54.754C28.9658 55.9343 28.8657 57.0445 28.6557 57.8747C28.3656 59.0249 27.8855 59.615 27.2254 59.625L24.2248 59.635Z" fill="#403B3B"/>
<path d="M32.6864 59.7751C32.5464 59.7751 32.4264 59.7451 32.3264 59.7051C32.0763 59.605 31.9563 59.325 32.0463 59.0649C32.1463 58.8149 32.4264 58.6849 32.6864 58.7749C32.9765 58.7849 33.9067 57.7447 34.7569 55.5942C35.607 53.4438 35.627 52.0135 35.407 51.8534C35.157 51.7534 35.0269 51.4634 35.1269 51.2133C35.227 50.9533 35.517 50.8332 35.7671 50.9333C36.0371 51.0433 36.3772 51.3033 36.4772 51.9835C36.7573 53.8539 35.0369 58.2348 33.5566 59.415C33.2166 59.6951 32.9265 59.7751 32.6864 59.7751Z" fill="#403B3B"/>
<path d="M36.7572 64.1159C36.3872 64.1159 36.0271 64.0859 35.687 64.0259C34.7468 63.8459 34.0867 63.4358 33.7766 62.8457C33.6466 62.6056 33.7466 62.3056 33.9867 62.1756C34.2267 62.0455 34.5268 62.1456 34.6568 62.3856C34.8169 62.6957 35.2469 62.9357 35.8671 63.0457C37.1873 63.2858 39.0177 62.9157 39.7779 62.2456C39.9879 62.0655 40.298 62.0855 40.478 62.2856C40.658 62.4856 40.638 62.8057 40.438 62.9857C39.6578 63.6759 38.1575 64.1159 36.7572 64.1159Z" fill="#403B3B"/>
</svg>