<svg width="50" height="49" viewBox="0 0 50 49" fill="none" xmlns="http://www.w3.org/2000/svg">
<path d="M25.485 48.99C19.6638 48.99 14.0226 46.9096 9.60175 43.1388C9.39171 42.9588 9.3717 42.6487 9.55173 42.4387C9.73177 42.2286 10.0418 42.2086 10.2519 42.3786C14.5027 45.9994 19.9139 47.9998 25.495 47.9998H25.8351C38.5977 47.8198 48.9998 37.2776 48.9998 24.495V24.1549C48.8197 11.3723 38.2776 0.980203 25.495 0.980203H25.1549C12.3823 1.16024 1.9802 11.7024 1.9802 24.485V24.8251C2.06021 30.5862 4.24066 36.0974 8.12145 40.3482C8.30149 40.5483 8.29149 40.8683 8.09145 41.0484C7.8914 41.2384 7.57133 41.2184 7.39129 41.0184C3.35047 36.5875 1.07001 30.8463 0.98999 24.8451V24.495C0.98999 11.1823 11.8222 0.190039 25.1449 0H25.495C38.8077 0 49.7999 10.8322 49.99 24.1549V24.505C49.99 37.8177 39.1578 48.81 25.8351 49L25.485 48.99Z" fill="#403B3B"/>
<path d="M31.1762 23.9949C30.396 24.775 29.8259 25.6652 29.4658 26.5654C29.0157 27.6956 28.0755 28.5758 26.8953 28.8659C25.465 29.2159 23.9947 30.0261 22.7645 31.2464C20.0139 33.9969 19.3538 37.9777 21.3142 39.9481C23.2746 41.9085 27.2654 41.2484 30.016 38.4978C31.2462 37.2676 32.0564 35.7973 32.3964 34.367C32.6865 33.1868 33.5667 32.2466 34.6969 31.7965C35.6071 31.4364 36.4973 30.8563 37.2674 30.0861C39.5779 27.7756 40.138 24.425 38.4877 22.7746C36.8273 21.1243 33.4867 21.6844 31.1762 23.9949Z" fill="#FF9900"/>
<path d="M24.3247 41.5785C22.9544 41.5785 21.7842 41.1384 20.954 40.2982C20.1138 39.468 19.6737 38.2978 19.6737 36.9275C19.6737 34.8571 20.6939 32.6066 22.4043 30.8963C23.6445 29.656 25.1948 28.7659 26.7652 28.3858C27.7554 28.1457 28.5955 27.3956 28.9956 26.3854C29.3957 25.3852 30.0258 24.435 30.826 23.6448C31.016 23.4548 31.2061 23.2747 31.4161 23.1147C31.6262 22.9447 31.9362 22.9647 32.1162 23.1747C32.2863 23.3848 32.2663 23.6948 32.0462 23.8749C31.8662 24.0249 31.6962 24.1749 31.5261 24.345C30.826 25.0451 30.2659 25.8753 29.9158 26.7554C29.3957 28.0657 28.3055 29.0359 26.9952 29.346C25.5949 29.686 24.2146 30.4862 23.1044 31.5964C21.5741 33.1167 20.6639 35.1171 20.6639 36.9175C20.6639 38.0177 21.004 38.9379 21.6541 39.5881C22.2943 40.2382 23.2244 40.5783 24.3247 40.5783C26.135 40.5783 28.1254 39.6681 29.6558 38.1478C30.766 37.0375 31.5661 35.6473 31.9062 34.257C32.2263 32.9567 33.1965 31.8665 34.5068 31.3364C35.3869 30.9863 36.2171 30.4362 36.9172 29.7361C38.1875 28.4658 38.9376 26.8155 38.9376 25.3151C38.9376 24.415 38.6576 23.6548 38.1375 23.1247C37.3373 22.3245 35.957 22.1145 34.4967 22.5446C34.2367 22.6246 33.9566 22.4746 33.8766 22.2145C33.7966 21.9545 33.9466 21.6744 34.2067 21.5944C36.027 21.0543 37.7674 21.3643 38.8376 22.4246C39.5578 23.1447 39.9379 24.1449 39.9379 25.3151C39.9379 27.0755 39.0677 28.9859 37.6274 30.4362C36.8372 31.2264 35.887 31.8565 34.8868 32.2566C33.8766 32.6567 33.1265 33.4968 32.8864 34.487C32.5063 36.0573 31.6162 37.6077 30.3759 38.8479C28.6556 40.5583 26.3951 41.5785 24.3247 41.5785Z" fill="#403B3B"/>
<path d="M21.8043 37.4476C21.5342 37.4476 21.3042 37.2576 21.3042 36.9875V36.9275C21.3042 36.6475 21.3342 36.3574 21.3842 36.0673C21.4342 35.7973 21.6943 35.6173 21.9543 35.6573C22.2244 35.7073 22.4044 35.9573 22.3644 36.2274C22.3244 36.4674 22.3044 36.7075 22.3044 36.9275C22.3044 37.1976 22.0844 37.4476 21.8043 37.4476ZM22.9545 34.0369C22.8545 34.0369 22.7645 34.0069 22.6745 33.9469C22.4444 33.7969 22.3844 33.4868 22.5445 33.2568C22.7145 33.0167 22.8945 32.7767 23.0946 32.5366C23.2746 32.3266 23.5847 32.3066 23.7947 32.4766C24.0048 32.6566 24.0248 32.9667 23.8447 33.1768C23.6647 33.3868 23.5046 33.5968 23.3646 33.8069C23.2746 33.9569 23.1146 34.0369 22.9545 34.0369ZM25.6551 31.5764C25.4851 31.5764 25.315 31.4864 25.225 31.3164C25.095 31.0763 25.185 30.7763 25.425 30.6462C25.6951 30.4962 25.9652 30.3662 26.2452 30.2562C26.5053 30.1561 26.7853 30.2762 26.8853 30.5362C26.9854 30.7863 26.8653 31.0763 26.6053 31.1763C26.3652 31.2764 26.1252 31.3864 25.8951 31.5164C25.8151 31.5564 25.7351 31.5764 25.6551 31.5764ZM29.0258 30.1361C28.8657 30.1361 28.7157 30.0661 28.6157 29.9261C28.4557 29.706 28.5157 29.396 28.7357 29.2359C28.9458 29.0859 29.1458 28.9259 29.3258 28.7458C29.5259 28.5558 29.8359 28.5558 30.026 28.7559C30.216 28.9559 30.216 29.266 30.016 29.456C29.7959 29.676 29.5559 29.8761 29.3058 30.0461C29.2258 30.1061 29.1258 30.1361 29.0258 30.1361ZM31.1762 27.2055C31.0962 27.2055 31.0262 27.1855 30.9562 27.1555C30.7161 27.0355 30.6161 26.7354 30.7361 26.4854C30.8762 26.2153 31.0362 25.9553 31.2062 25.6952C31.3662 25.4652 31.6763 25.4152 31.8964 25.5752C32.1264 25.7352 32.1764 26.0453 32.0164 26.2653C31.8663 26.4854 31.7263 26.7054 31.6163 26.9355C31.5263 27.1055 31.3562 27.2055 31.1762 27.2055Z" fill="#403B3B"/>
<path d="M16.3433 12.4025C15.9933 13.4427 15.8732 14.5029 15.9532 15.4731C16.0533 16.6834 15.6032 17.8936 14.673 18.6738C13.5527 19.624 12.5926 21.0043 12.0424 22.6446C10.8022 26.3354 11.9824 30.1961 14.613 31.0763C17.2435 31.9565 20.5142 29.596 21.7544 25.9053C22.3045 24.2649 22.3745 22.5846 22.0545 21.1443C21.7844 19.9641 22.1545 18.7238 22.9647 17.8136C23.6148 17.0835 24.1549 16.1733 24.505 15.1331C25.5452 12.0324 24.555 8.79177 22.3445 8.05162C20.1341 7.32147 17.3835 9.30188 16.3433 12.4025Z" fill="#FF9900"/>
<path d="M15.7731 31.7665C15.323 31.7665 14.8829 31.6964 14.4628 31.5564C12.3924 30.8663 11.0521 28.5358 11.0521 25.6252C11.0521 24.575 11.2222 23.5248 11.5722 22.4946C12.1323 20.8342 13.1225 19.3439 14.3628 18.3037C15.0729 17.7036 15.483 16.7934 15.483 15.8032C15.483 15.7032 15.483 15.6132 15.473 15.5131C15.453 15.3131 15.443 15.1031 15.443 14.893C15.443 14.0028 15.5931 13.1127 15.8831 12.2525C15.9631 12.0024 16.0631 11.7524 16.1732 11.5123C16.2832 11.2623 16.5732 11.1523 16.8333 11.2623C17.0834 11.3723 17.1934 11.6624 17.0834 11.9124C16.9933 12.1225 16.9033 12.3425 16.8333 12.5625C16.5732 13.3327 16.4432 14.1129 16.4432 14.893C16.4432 15.0731 16.4532 15.2631 16.4632 15.4331C16.4732 15.5532 16.4732 15.6832 16.4732 15.8032C16.4732 17.0835 15.9331 18.2737 15.0029 19.0539C13.9027 19.9841 13.0225 21.3143 12.5224 22.8046C12.2124 23.7348 12.0523 24.675 12.0523 25.6152C12.0523 28.0957 13.1225 30.0461 14.7829 30.6062C15.0929 30.7162 15.433 30.7663 15.7731 30.7663C17.9935 30.7663 20.314 28.6558 21.2942 25.7452C21.6043 24.825 21.7643 23.8849 21.7643 22.9447C21.7643 22.3645 21.7043 21.7944 21.5843 21.2643C21.5143 20.9743 21.4843 20.6842 21.4843 20.3741C21.4843 19.3239 21.8843 18.3037 22.6045 17.4936C23.2346 16.7934 23.7347 15.9232 24.0448 14.983C24.3048 14.2129 24.4349 13.4327 24.4349 12.6426C24.4349 10.5921 23.5547 8.98181 22.1944 8.52172C21.1142 8.16165 19.7939 8.58173 18.6737 9.62194C18.4736 9.81198 18.1636 9.79198 17.9735 9.59194C17.7835 9.3919 17.8035 9.08184 18.0035 8.8918C19.3938 7.60153 21.0942 7.10143 22.5145 7.58152C24.2848 8.17165 25.4251 10.1621 25.4251 12.6426C25.4251 13.5327 25.275 14.4229 24.985 15.2931C24.6249 16.3533 24.0548 17.3435 23.3446 18.1437C22.7845 18.7738 22.4745 19.564 22.4745 20.3641C22.4745 20.5942 22.4945 20.8142 22.5445 21.0343C22.6845 21.6344 22.7545 22.2845 22.7545 22.9347C22.7545 23.9849 22.5845 25.0351 22.2344 26.0553C21.1242 29.366 18.4036 31.7665 15.7731 31.7665Z" fill="#403B3B"/>
<path d="M13.7426 28.7058C13.5626 28.7058 13.3925 28.6058 13.3025 28.4358C13.1625 28.1657 13.0425 27.8757 12.9524 27.5656C12.8724 27.3056 13.0224 27.0255 13.2825 26.9455C13.5526 26.8655 13.8226 27.0155 13.9026 27.2755C13.9827 27.5256 14.0727 27.7657 14.1827 27.9757C14.3127 28.2157 14.2127 28.5158 13.9726 28.6458C13.9026 28.6858 13.8226 28.7058 13.7426 28.7058ZM13.2425 25.1051C13.2225 25.1051 13.2025 25.1051 13.1725 25.1051C12.9024 25.0651 12.7124 24.8151 12.7524 24.545C12.7924 24.2549 12.8524 23.9549 12.9224 23.6548C12.9924 23.3848 13.2525 23.2247 13.5226 23.2947C13.7926 23.3648 13.9526 23.6348 13.8826 23.8949C13.8126 24.1549 13.7626 24.415 13.7326 24.675C13.6926 24.9251 13.4825 25.1051 13.2425 25.1051ZM14.5528 21.7044C14.4527 21.7044 14.3527 21.6744 14.2727 21.6144C14.0527 21.4544 13.9927 21.1443 14.1527 20.9243C14.3327 20.6742 14.5128 20.4342 14.7128 20.2141C14.8928 20.0041 15.2029 19.9941 15.4129 20.1741C15.613 20.3541 15.633 20.6742 15.453 20.8742C15.2829 21.0643 15.1129 21.2743 14.9628 21.4944C14.8728 21.6244 14.7128 21.7044 14.5528 21.7044ZM16.9432 18.9138C16.8632 18.9138 16.7832 18.8938 16.7032 18.8538C16.4632 18.7238 16.3731 18.4237 16.5032 18.1837C16.6232 17.9537 16.7332 17.7236 16.8132 17.4836C16.9033 17.2235 17.1833 17.0935 17.4434 17.1735C17.7034 17.2635 17.8434 17.5436 17.7534 17.8036C17.6534 18.0937 17.5234 18.3837 17.3733 18.6538C17.2833 18.8138 17.1133 18.9138 16.9432 18.9138ZM17.5534 15.3331C17.2733 15.3331 17.0533 15.1031 17.0533 14.833C17.0533 14.5229 17.0833 14.2129 17.1233 13.9128C17.1633 13.6428 17.4133 13.4627 17.6934 13.5027C17.9635 13.5428 18.1535 13.8028 18.1035 14.0729C18.0635 14.3329 18.0435 14.593 18.0435 14.843C18.0535 15.1131 17.8234 15.3331 17.5534 15.3331Z" fill="#403B3B"/>
</svg>