<svg width="49" height="50" viewBox="0 0 49 50" fill="none" xmlns="http://www.w3.org/2000/svg">
<path d="M24.495 49.01C18.6738 49.01 13.0326 46.9296 8.61174 43.1588C8.4017 42.9788 8.3817 42.6687 8.55173 42.4587C8.73177 42.2486 9.04185 42.2286 9.25189 42.3987C13.5028 46.0194 18.9138 48.0198 24.495 48.0198H24.8351C37.6077 47.8398 48.0098 37.2976 48.0098 24.515V24.1749C47.8298 11.3923 37.2876 1.00021 24.505 1.00021H24.1649C11.3823 1.18025 0.990192 11.7224 0.990192 24.495V24.8351C1.07021 30.5963 3.25067 36.1074 7.13146 40.3582C7.3115 40.5583 7.30147 40.8783 7.10142 41.0584C6.90138 41.2484 6.58134 41.2284 6.4013 41.0284C2.36048 36.5975 0.0800163 30.8563 0 24.8551V24.505C0 11.1923 10.8322 0.200049 24.1549 0.0100098H24.505C37.8177 0.0100098 48.8099 10.8422 49 24.1649V24.515C49 37.8277 38.1678 48.82 24.8451 49.01H24.495Z" fill="#403B3B"/>
<path d="M28.1157 16.0233C27.8257 17.8637 26.3254 19.1639 24.775 18.9139C23.2247 18.6638 22.2045 16.9735 22.4946 15.1331C22.6946 13.8728 24.395 11.6824 25.4452 10.4221C25.8253 9.96205 26.5554 10.0821 26.7755 10.6322C27.3856 12.1525 28.3158 14.763 28.1157 16.0233Z" fill="#9E9E9E"/>
<path d="M25.1551 19.444C25.0051 19.444 24.845 19.434 24.695 19.404C23.1047 19.1539 21.9445 17.6136 21.9445 15.7632C21.9445 15.5332 21.9645 15.2931 22.0045 15.0531C22.2145 13.7328 23.7848 11.6324 25.0651 10.1021C25.3151 9.812 25.6652 9.64197 26.0453 9.64197C26.5754 9.64197 27.0455 9.96203 27.2355 10.4521C27.8756 12.0525 28.6358 14.2529 28.6358 15.6432C28.6358 15.8132 28.6258 15.9733 28.6058 16.1133C28.2957 18.0037 26.8154 19.444 25.1551 19.444ZM26.0453 10.6322C25.9853 10.6322 25.8952 10.6522 25.8252 10.7322C24.1549 12.7326 23.1147 14.3629 22.9846 15.2031C22.9546 15.3931 22.9447 15.5732 22.9447 15.7532C22.9447 17.1235 23.7448 18.2437 24.855 18.4138C26.1553 18.6238 27.3856 17.4836 27.6256 15.9333C27.6456 15.8432 27.6456 15.7332 27.6456 15.6232C27.6456 14.663 27.1755 12.9526 26.3153 10.8022C26.2553 10.6822 26.1353 10.6322 26.0453 10.6322Z" fill="#403B3B"/>
<path d="M21.7843 21.5644C22.0444 23.4148 20.9942 25.0851 19.4339 25.3051C17.8735 25.5252 16.4032 24.2049 16.1432 22.3545C15.9631 21.0943 16.9433 18.5038 17.5835 16.9834C17.8135 16.4333 18.5437 16.3333 18.9237 16.7934C19.9539 18.0737 21.6143 20.3041 21.7843 21.5644Z" fill="#9E9E9E"/>
<path d="M19.0938 25.8253C17.4034 25.8253 15.9231 24.365 15.6531 22.4246C15.633 22.3046 15.623 22.1645 15.623 22.0245C15.623 20.6442 16.4432 18.4138 17.1234 16.7935C17.3234 16.3134 17.7935 16.0033 18.3036 16.0033C18.6937 16.0033 19.0537 16.1833 19.3038 16.4834C20.554 18.0337 22.0843 20.1741 22.2644 21.4944C22.2944 21.7045 22.3044 21.9145 22.3044 22.1245C22.3044 24.0249 21.1242 25.5752 19.4838 25.7953C19.3638 25.8153 19.2338 25.8253 19.0938 25.8253ZM18.3136 16.9935C18.2236 16.9935 18.1035 17.0435 18.0435 17.1735C17.1233 19.354 16.6233 21.0743 16.6233 22.0245C16.6233 22.1145 16.6232 22.2046 16.6432 22.2846C16.8633 23.8449 18.0635 24.9951 19.3738 24.8151C20.504 24.6551 21.3342 23.5248 21.3342 22.1245C21.3342 21.9645 21.3242 21.8045 21.3042 21.6344C21.1842 20.7943 20.184 19.1439 18.5436 17.1135C18.4636 17.0135 18.3736 16.9935 18.3136 16.9935Z" fill="#403B3B"/>
<path d="M40.3481 23.8649C42.0085 24.7051 42.7886 26.5355 42.0784 27.9357C41.3683 29.336 39.4379 29.7861 37.7776 28.946C36.6374 28.3658 35.077 26.0854 34.1969 24.6951C33.8768 24.195 34.2169 23.5348 34.807 23.4948C36.4473 23.3748 39.2179 23.2948 40.3481 23.8649Z" fill="#9E9E9E"/>
<path d="M39.5079 29.8661C38.8378 29.8661 38.1676 29.6961 37.5475 29.386C36.3572 28.7859 34.8369 26.6454 33.7767 24.9551C33.6467 24.745 33.5767 24.515 33.5767 24.275C33.5767 23.6048 34.0968 23.0447 34.7669 22.9947C35.5671 22.9347 36.3272 22.9147 37.0174 22.9147C38.7277 22.9147 39.888 23.0847 40.5681 23.4248C41.9384 24.1249 42.8285 25.4552 42.8285 26.8155C42.8285 27.2956 42.7185 27.7457 42.5085 28.1557C41.9884 29.216 40.8282 29.8661 39.5079 29.8661ZM37.0174 23.9049C36.3472 23.9049 35.6171 23.9349 34.8369 23.9849C34.6569 23.9949 34.5669 24.1449 34.5669 24.275C34.5669 24.325 34.5869 24.385 34.6169 24.435C36.0072 26.6354 37.2374 28.1257 37.9976 28.5058C38.4777 28.7459 38.9978 28.8759 39.5079 28.8759C40.4681 28.8759 41.2582 28.4358 41.6283 27.7157C41.7683 27.4356 41.8384 27.1355 41.8384 26.8255C41.8384 25.8353 41.1682 24.8451 40.118 24.315C39.7579 24.1249 38.9278 23.9049 37.0174 23.9049Z" fill="#403B3B"/>
<path d="M20.4441 20.8142C21.7344 22.1645 21.8544 24.1449 20.7142 25.2251C19.5739 26.3053 17.6135 26.0953 16.3232 24.745C15.4431 23.8248 14.7329 21.1443 14.3629 19.544C14.2328 18.9638 14.7629 18.4537 15.3431 18.6138C16.9234 19.0438 19.5639 19.884 20.4441 20.8142Z" fill="#9E9E9E"/>
<path d="M18.9137 26.4053C17.8435 26.4053 16.7633 25.9252 15.9631 25.0751C15.0429 24.1149 14.3228 21.5844 13.8827 19.644C13.8627 19.5439 13.8527 19.4539 13.8527 19.3539C13.8527 18.5337 14.6628 17.8936 15.483 18.1236C17.4034 18.6638 19.8939 19.5039 20.8141 20.4641C21.5643 21.2543 22.0043 22.2945 22.0043 23.3047C22.0043 24.1949 21.6743 25.005 21.0741 25.5752C20.494 26.1153 19.7339 26.4053 18.9137 26.4053ZM15.1729 19.0838C14.9529 19.0838 14.8329 19.2139 14.8329 19.3639C15.423 21.9744 16.0831 23.7848 16.6732 24.4049C17.7335 25.5152 19.4538 25.7352 20.364 24.875C20.7641 24.4949 20.9941 23.9348 20.9941 23.3247C20.9941 22.5646 20.6641 21.7744 20.0839 21.1743C19.4938 20.5541 17.7235 19.804 15.213 19.1038C15.193 19.0838 15.1829 19.0838 15.1729 19.0838Z" fill="#403B3B"/>
<path d="M26.5554 21.3843C27.8557 20.0441 29.8261 19.854 30.9563 20.9543C32.0866 22.0545 31.9366 24.0249 30.6363 25.3652C29.7461 26.2753 27.0956 27.0955 25.5052 27.5156C24.9251 27.6656 24.395 27.1555 24.535 26.5754C24.9151 24.9651 25.6653 22.3045 26.5554 21.3843Z" fill="#9E9E9E"/>
<path d="M25.2952 28.0357C24.585 28.0357 24.0149 27.4656 24.0149 26.7555C24.0149 26.6554 24.0249 26.5454 24.0549 26.4454C24.515 24.505 25.2652 21.9945 26.1954 21.0343C26.9955 20.2141 28.0657 19.744 29.1159 19.744C29.9561 19.744 30.7263 20.0441 31.2864 20.5942C31.8765 21.1643 32.1966 21.9645 32.1966 22.8347C32.1966 23.8649 31.7565 24.9051 30.9763 25.7052C30.0461 26.6654 27.5456 27.4756 25.6252 27.9857C25.5252 28.0157 25.4152 28.0357 25.2952 28.0357ZM29.126 20.7342C28.3358 20.7342 27.5256 21.0943 26.9155 21.7244C26.3254 22.3346 25.6352 24.1349 25.0251 26.6754C25.0151 26.9055 25.1451 27.0355 25.3052 27.0355C27.9057 26.3554 29.6861 25.6252 30.2862 25.0151C30.8863 24.405 31.2264 23.6148 31.2264 22.8446C31.2264 22.2445 31.0063 21.6944 30.6162 21.3143C30.2262 20.9343 29.7061 20.7342 29.126 20.7342Z" fill="#403B3B"/>
<path d="M24.3349 33.2368C24.4449 35.0971 23.2547 36.6875 21.6844 36.7775C20.114 36.8675 18.7537 35.4272 18.6437 33.5668C18.5737 32.2966 19.7539 29.7861 20.5141 28.3358C20.7942 27.8057 21.5243 27.7657 21.8644 28.2558C22.7946 29.616 24.2549 31.9665 24.3349 33.2368Z" fill="#9E9E9E"/>
<path d="M21.5442 37.2775C19.7639 37.2775 18.2736 35.6572 18.1536 33.5968V33.4468C18.1536 32.0965 19.2038 29.796 20.084 28.1057C20.304 27.6756 20.7441 27.4155 21.2242 27.4155C21.6543 27.4155 22.0444 27.6256 22.2844 27.9856C23.4046 29.636 24.7549 31.8864 24.8349 33.2167C24.8449 33.3067 24.8449 33.3968 24.8449 33.4768C24.8449 35.5072 23.4747 37.1775 21.7243 37.2775C21.6643 37.2775 21.6043 37.2775 21.5442 37.2775ZM21.2242 28.4057C21.1742 28.4057 21.0442 28.4257 20.9641 28.5658C19.8039 30.7862 19.1438 32.5666 19.1438 33.4568C19.2338 35.0871 20.294 36.2973 21.5442 36.2973H21.6543C22.8845 36.2273 23.8447 34.9971 23.8447 33.4868C23.8447 33.4168 23.8447 33.3467 23.8347 33.2867C23.7847 32.4366 22.9145 30.7062 21.4542 28.5558C21.3842 28.4157 21.2742 28.4057 21.2242 28.4057Z" fill="#403B3B"/>
<path d="M24.0348 38.7779C25.7252 37.9877 27.6355 38.5078 28.2957 39.9381C28.9558 41.3684 28.1256 43.1588 26.4253 43.9389C25.265 44.479 22.5045 44.299 20.8742 44.129C20.284 44.069 19.974 43.3988 20.304 42.9087C21.2342 41.5484 22.8846 39.318 24.0348 38.7779Z" fill="#9E9E9E"/>
<path d="M23.8248 44.7991C22.7346 44.7991 21.5943 44.7091 20.8242 44.6291C20.164 44.5591 19.674 44.009 19.674 43.3488C19.674 43.0888 19.754 42.8387 19.894 42.6287C21.0142 40.9784 22.6145 38.8979 23.8248 38.3378C24.4049 38.0678 25.0451 37.9277 25.6552 37.9277C27.0455 37.9277 28.2257 38.6179 28.7458 39.7381C28.9258 40.1282 29.0159 40.5483 29.0159 40.9884C29.0159 42.3886 28.0857 43.7389 26.6354 44.4091C26.0653 44.6691 25.1351 44.7991 23.8248 44.7991ZM24.2449 39.228C23.4747 39.5881 22.1845 41.0284 20.7242 43.1788C20.6942 43.2288 20.6742 43.2788 20.6742 43.3388C20.6742 43.4689 20.7642 43.6089 20.9342 43.6289C21.6844 43.7089 22.7846 43.7989 23.8348 43.7989C25.2651 43.7989 25.9252 43.6289 26.2353 43.4889C27.3155 42.9888 28.0357 41.9786 28.0357 40.9684C28.0357 40.6783 27.9756 40.3982 27.8556 40.1382C27.5055 39.378 26.6654 38.8979 25.6652 38.8979C25.1951 38.9079 24.705 39.018 24.2449 39.228Z" fill="#403B3B"/>
<path d="M35.2871 33.6268C36.4973 32.2065 38.4477 31.8665 39.648 32.8867C40.8482 33.9069 40.8382 35.8773 39.638 37.3076C38.8178 38.2778 36.2273 39.278 34.677 39.8081C34.1168 39.9981 33.5467 39.528 33.6468 38.9379C33.9168 37.3176 34.4669 34.597 35.2871 33.6268Z" fill="#9E9E9E"/>
<path d="M34.4169 40.3483C33.7067 40.3483 33.1366 39.7781 33.1366 39.068C33.1366 38.998 33.1466 38.928 33.1566 38.858C33.4867 36.8776 34.0568 34.317 34.917 33.3068C35.7171 32.3666 36.8673 31.8065 37.9876 31.8065C38.7377 31.8065 39.4279 32.0466 39.978 32.5167C40.6681 33.0968 41.0482 33.967 41.0482 34.9472C41.0482 35.8974 40.6881 36.8576 40.018 37.6377C39.1578 38.6579 36.7273 39.6381 34.8369 40.2883C34.6969 40.3183 34.5569 40.3483 34.4169 40.3483ZM37.9876 32.7967C37.1474 32.7967 36.2872 33.2268 35.6771 33.947C35.127 34.5971 34.5669 36.4475 34.1368 39.018C34.1368 39.228 34.2668 39.3581 34.4169 39.3581C36.9774 38.4979 38.7077 37.6377 39.2578 36.9876C39.7679 36.3875 40.048 35.6573 40.048 34.9372C40.048 34.257 39.7879 33.6569 39.3278 33.2668C38.9678 32.9568 38.4977 32.7967 37.9876 32.7967Z" fill="#403B3B"/>
<path d="M12.3424 19.974C12.0923 21.8244 10.632 23.1547 9.0717 22.9446C7.51139 22.7346 6.4512 21.0743 6.69124 19.2239C6.86128 17.9636 8.5016 15.7232 9.52181 14.4329C9.89188 13.9628 10.622 14.0628 10.8621 14.6129C11.5122 16.1233 12.5124 18.7038 12.3424 19.974Z" fill="#9E9E9E"/>
<path d="M9.40181 23.4648C9.27179 23.4648 9.14175 23.4548 9.01172 23.4348C7.36138 23.2148 6.17114 21.6644 6.17114 19.7441C6.17114 19.544 6.18115 19.354 6.21116 19.1439C6.3912 17.8237 7.9015 15.6732 9.14175 14.1129C9.3918 13.8028 9.75187 13.6228 10.142 13.6228C10.6521 13.6228 11.1221 13.9329 11.3222 14.403C12.0223 16.0333 12.8625 18.2738 12.8625 19.644C12.8625 19.7741 12.8525 19.9041 12.8425 20.0141C12.5825 21.9945 11.1022 23.4648 9.40181 23.4648ZM10.142 14.633C10.0819 14.633 9.99194 14.653 9.91193 14.743C8.2916 16.7835 7.30139 18.4438 7.19137 19.284C7.17137 19.444 7.16137 19.594 7.16137 19.7541C7.16137 21.1443 8.01152 22.3046 9.14175 22.4546C10.472 22.6346 11.6423 21.4744 11.8523 19.9041C11.8623 19.8241 11.8623 19.7441 11.8623 19.664C11.8623 18.7238 11.3422 16.9935 10.402 14.813C10.352 14.683 10.242 14.633 10.142 14.633Z" fill="#403B3B"/>
<path d="M20.2339 12.6326C18.9437 13.9829 16.9733 14.1929 15.8431 13.1127C14.7128 12.0325 14.8329 10.0521 16.1231 8.70178C17.0033 7.78159 19.6438 6.94142 21.2242 6.50133C21.7943 6.3413 22.3344 6.85141 22.2043 7.43152C21.8343 9.03185 21.1141 11.7124 20.2339 12.6326Z" fill="#9E9E9E"/>
<path d="M17.6534 14.2929C16.8332 14.2929 16.0631 14.0028 15.503 13.4627C14.9028 12.8926 14.5728 12.0824 14.5728 11.1923C14.5728 10.182 15.0028 9.14183 15.763 8.35167C16.6832 7.39148 19.1737 6.5513 21.0941 6.02119C21.8743 5.80115 22.7144 6.43128 22.7144 7.25145C22.7144 7.35147 22.7044 7.44149 22.6844 7.54151C22.2343 9.49191 21.5142 12.0124 20.594 12.9726C19.7938 13.8128 18.7136 14.2929 17.6534 14.2929ZM21.4442 6.96139C18.8537 7.67153 17.0733 8.42169 16.4831 9.03181C15.903 9.64193 15.563 10.4321 15.563 11.1923C15.563 11.8124 15.783 12.3625 16.1831 12.7426C17.0933 13.6127 18.8136 13.3927 19.8739 12.2825C20.464 11.6623 21.1341 9.85198 21.7142 7.31146C21.7242 7.10142 21.5942 6.96139 21.4442 6.96139Z" fill="#403B3B"/>
<path d="M33.6767 6.3813C35.4871 6.82139 36.6573 8.41172 36.2872 9.94203C35.9172 11.4723 34.1468 12.3525 32.3364 11.9124C31.0962 11.6124 29.0458 9.74198 27.8755 8.59175C27.4454 8.17166 27.6255 7.45152 28.1956 7.28148C29.7659 6.80138 32.4364 6.08123 33.6767 6.3813Z" fill="#9E9E9E"/>
<path d="M33.2766 12.5225C32.9266 12.5225 32.5665 12.4825 32.2264 12.3925C30.9262 12.0824 28.9558 10.3421 27.5355 8.95179C27.2854 8.71174 27.1554 8.38168 27.1554 8.04161C27.1554 7.47149 27.5155 6.98139 28.0556 6.81135C29.8659 6.25124 32.5465 5.59111 33.8067 5.90117C35.5771 6.33126 36.8674 7.79155 36.8674 9.37187C36.8674 9.60192 36.8374 9.83197 36.7874 10.062C36.4273 11.5123 34.987 12.5225 33.2766 12.5225ZM32.9666 6.80135C31.6263 6.80135 29.4959 7.40147 28.3456 7.75155C28.1956 7.80156 28.1356 7.93158 28.1356 8.0316C28.1356 8.08161 28.1556 8.16163 28.2256 8.24164C30.086 10.062 31.6263 11.2323 32.4565 11.4323C33.9768 11.8024 35.5171 11.0522 35.8172 9.83197C35.8572 9.68194 35.8672 9.5319 35.8672 9.37187C35.8672 8.24164 34.897 7.19143 33.5667 6.86136C33.4067 6.82136 33.2066 6.80135 32.9666 6.80135Z" fill="#403B3B"/>
<path d="M13.7327 25.4952C15.4931 26.1054 16.5133 27.8057 15.9932 29.286C15.4731 30.7663 13.6327 31.4865 11.8723 30.8763C10.6621 30.4563 8.8017 28.4058 7.74149 27.1556C7.36141 26.6955 7.60146 26.0053 8.18158 25.8753C9.79191 25.5352 12.5225 25.0752 13.7327 25.4952Z" fill="#9E9E9E"/>
<path d="M13.1525 31.5865C12.6724 31.5865 12.1823 31.5064 11.7123 31.3364C10.452 30.8963 8.65163 28.9859 7.37137 27.4656C7.17133 27.2356 7.07129 26.9355 7.07129 26.6454C7.07129 26.0353 7.49139 25.5152 8.09152 25.3852C9.31177 25.1351 11.0521 24.8251 12.4124 24.8251C13.0425 24.8251 13.5326 24.8851 13.9027 25.0151C15.533 25.5752 16.6333 26.9755 16.6333 28.4858C16.6333 28.8159 16.5833 29.136 16.4732 29.446C16.0131 30.7463 14.7129 31.5865 13.1525 31.5865ZM12.4024 25.8253C11.1321 25.8253 9.4618 26.1153 8.28156 26.3654C8.12153 26.3954 8.0515 26.5354 8.0515 26.6554C8.0515 26.7255 8.07151 26.7855 8.12152 26.8455C9.80186 28.8359 11.2222 30.1362 12.0323 30.4162C12.4024 30.5462 12.7825 30.6063 13.1525 30.6063C14.2828 30.6063 15.223 30.0261 15.523 29.136C15.593 28.9359 15.6331 28.7159 15.6331 28.5058C15.6331 27.4356 14.7829 26.3954 13.5726 25.9753C13.3026 25.8753 12.9125 25.8253 12.4024 25.8253Z" fill="#403B3B"/>
<path d="M32.6566 33.8269C31.6063 35.3672 29.706 35.9073 28.4057 35.0271C27.1054 34.147 26.8954 32.1766 27.9456 30.6362C28.6658 29.576 31.1262 28.3158 32.6165 27.6256C33.1567 27.3756 33.7668 27.7857 33.7368 28.3858C33.6367 30.0061 33.3767 32.7667 32.6566 33.8269Z" fill="#9E9E9E"/>
<path d="M29.8261 35.9473C29.206 35.9473 28.6259 35.7673 28.1358 35.4372C27.2857 34.8571 26.7955 33.8769 26.7955 32.7367C26.7955 31.9065 27.0556 31.0763 27.5557 30.3462C28.3059 29.246 30.6163 28.0057 32.4267 27.1555C32.5967 27.0755 32.7868 27.0355 32.9668 27.0355C33.6769 27.0355 34.2471 27.6056 34.2471 28.3158C34.127 30.3862 33.827 32.9867 33.0768 34.097C32.2967 35.2372 31.0564 35.9473 29.8261 35.9473ZM32.9568 28.0357C32.9168 28.0357 32.8768 28.0457 32.8268 28.0657C30.4663 29.166 28.8359 30.2062 28.3558 30.9063C27.9758 31.4564 27.7757 32.1066 27.7757 32.7367C27.7757 33.5368 28.1058 34.217 28.6859 34.6171C29.7261 35.3272 31.3965 34.8171 32.2467 33.5469C32.7268 32.8367 33.0868 30.9463 33.2368 28.3458C33.2469 28.1457 33.0868 28.0357 32.9568 28.0357Z" fill="#403B3B"/>
<path d="M12.0923 38.8879C10.4919 37.9277 9.85181 36.0573 10.652 34.7071C11.4621 33.3568 13.4125 33.0467 15.0128 34.0069C16.1031 34.6671 17.5134 37.0476 18.2835 38.4978C18.5636 39.028 18.1835 39.6581 17.5934 39.6581C15.9531 39.6581 13.1825 39.5481 12.0923 38.8879Z" fill="#9E9E9E"/>
<path d="M17.5934 40.1581C15.5929 40.1581 12.9724 40.0081 11.8322 39.318C10.5819 38.5678 9.80176 37.2976 9.80176 35.9973C9.80176 35.4472 9.9418 34.9171 10.2219 34.457C10.782 33.5168 11.8422 32.9567 13.0624 32.9567C13.8226 32.9567 14.5827 33.1767 15.2629 33.5868C16.4031 34.2769 17.7734 36.5074 18.7136 38.2678C18.8136 38.4578 18.8636 38.6678 18.8636 38.8779C18.8736 39.578 18.3035 40.1581 17.5934 40.1581ZM12.3423 38.4678C13.0724 38.9079 14.9928 39.1579 17.5934 39.1679C17.7734 39.1679 17.8834 39.0179 17.8834 38.8779C17.8834 38.8279 17.8734 38.7879 17.8434 38.7378C16.6132 36.4374 15.4829 34.8771 14.7528 34.437C13.4325 33.6468 11.7121 33.9069 11.072 34.9671C10.892 35.2771 10.792 35.6172 10.792 35.9973C10.802 36.9375 11.4021 37.9077 12.3423 38.4678Z" fill="#403B3B"/>
<path d="M33.6969 20.0741C31.9665 19.3839 31.0263 17.6436 31.6064 16.1833C32.1865 14.723 34.0669 14.1029 35.7973 14.793C36.9775 15.2631 38.7479 17.4035 39.7481 18.7038C40.1082 19.1739 39.8381 19.864 39.248 19.954C37.6377 20.2041 34.8871 20.5442 33.6969 20.0741Z" fill="#9E9E9E"/>
<path d="M35.4972 20.8042C34.6271 20.8042 33.9769 20.7142 33.5268 20.5341C31.9865 19.924 30.9563 18.5337 30.9563 17.0834C30.9563 16.7034 31.0263 16.3433 31.1664 15.9932C31.6465 14.783 32.9067 14.0028 34.377 14.0028C34.9271 14.0028 35.4772 14.1128 36.0073 14.3229C37.2476 14.813 38.958 16.8134 40.1682 18.3937C40.3382 18.6237 40.4382 18.8938 40.4382 19.1739C40.4382 19.804 39.9781 20.3441 39.358 20.4441C38.2878 20.6042 36.7775 20.8042 35.4972 20.8042ZM34.367 14.993C33.3068 14.993 32.4066 15.5231 32.0765 16.3533C31.9865 16.5833 31.9365 16.8234 31.9365 17.0734C31.9365 18.1236 32.7167 19.1339 33.8869 19.6039C34.117 19.694 34.587 19.804 35.4972 19.804C36.7175 19.804 38.1778 19.6139 39.188 19.4539C39.358 19.4239 39.438 19.2839 39.438 19.1639C39.438 19.1038 39.418 19.0438 39.378 18.9938C37.7977 16.9234 36.4274 15.5531 35.6373 15.2431C35.2172 15.083 34.7871 14.993 34.367 14.993Z" fill="#403B3B"/>
</svg>