<svg width="49" height="50" viewBox="0 0 49 50" fill="none" xmlns="http://www.w3.org/2000/svg">
<path d="M24.495 49.03C18.6738 49.03 13.0327 46.9496 8.61176 43.1788C8.40171 42.9988 8.38171 42.6887 8.56175 42.4787C8.74178 42.2686 9.05185 42.2486 9.26189 42.4287C13.5028 46.0394 18.9139 48.0398 24.495 48.0398H24.8351C37.6077 47.8598 48.0098 37.3176 48.0098 24.535V24.195C47.8298 11.4224 37.2876 1.02023 24.505 1.02023H24.1649C11.3923 1.21027 0.990202 11.7524 0.990202 24.525V24.8651C1.07022 30.6263 3.25066 36.1374 7.13146 40.3883C7.31149 40.5883 7.30149 40.9084 7.10145 41.0884C6.90141 41.2684 6.58134 41.2584 6.40131 41.0584C2.36048 36.6275 0.0900184 30.8763 0 24.8751V24.525C0 11.2123 10.8322 0.220068 24.1549 0.0300293H24.505C37.8177 0.0300293 48.81 10.8622 49 24.185V24.535C49 37.8477 38.1678 48.84 24.8451 49.03H24.495Z" fill="#403B3B"/>
<path d="M41.9885 23.5849C41.9885 24.085 41.9284 27.9858 41.8184 28.4559C40.6582 33.5069 33.5467 35.5773 24.945 35.5773C15.5431 35.5773 7.9115 34.9072 7.9115 29.176C7.9115 27.1556 9.06173 24.8851 10.8721 22.7147C10.8721 21.9945 11.0021 21.3244 11.2622 20.7143L11.1722 20.6243C11.7323 20.0441 12.4724 19.244 13.0626 18.5838L13.1826 18.7039C13.9427 18.3238 14.8329 18.1738 15.7731 18.2338C18.6137 16.2034 21.8643 14.613 24.945 13.9129C34.1268 11.8425 41.9885 17.8537 41.9885 23.5849Z" fill="#9E9E9E"/>
<path d="M13.0627 18.5838C12.4725 19.2439 11.7324 20.0441 11.1723 20.6242L8.94182 18.3938C8.46172 18.6938 7.81159 18.6438 7.3915 18.2237C6.9014 17.7336 6.9014 16.9335 7.3915 16.4534C7.55153 16.2833 7.75157 16.1733 7.96162 16.1233C8.40171 16.0133 8.72177 15.6832 8.83179 15.2431C8.89181 15.0431 9.00183 14.843 9.16186 14.683C9.65196 14.1929 10.4421 14.1929 10.9322 14.683C11.4223 15.1631 11.4223 15.9633 10.9322 16.4534L13.0627 18.5838Z" fill="white"/>
<path d="M28.6459 12.9927C27.3756 12.9927 26.0954 13.1327 24.8351 13.4228C21.8545 14.0929 18.5638 15.6832 15.6532 17.7336C15.5632 17.7336 15.4632 17.7136 15.3732 17.7136C14.613 17.7136 13.9129 17.8437 13.2927 18.1037L11.5924 16.4034C11.7324 16.1533 11.8024 15.8633 11.8024 15.5732C11.8024 15.1031 11.6224 14.663 11.2923 14.3329C10.6322 13.6728 9.47196 13.6728 8.81183 14.3329C8.59179 14.553 8.43175 14.823 8.35174 15.1231C8.28172 15.3932 8.10168 15.5732 7.83163 15.6432C7.53157 15.7232 7.25151 15.8833 7.03147 16.1033C6.7014 16.4334 6.52136 16.8735 6.52136 17.3436C6.52136 17.8137 6.7014 18.2537 7.03147 18.5838C7.50156 19.0539 8.21171 19.2139 8.83183 19.0039L10.6822 20.8543C10.5022 21.3644 10.4022 21.9345 10.3822 22.5246C8.57178 24.7151 7.41154 27.0355 7.41154 29.186C7.41154 32.2866 9.44196 34.267 13.6028 35.2372C13.8729 35.2972 14.1429 35.1372 14.2029 34.8671C14.2629 34.5971 14.1029 34.327 13.8329 34.267C10.1321 33.4068 8.41175 31.7865 8.41175 29.186C8.41175 27.6157 9.20191 25.8353 10.5022 24.0549C10.8422 25.9053 11.8825 27.8257 13.4328 29.376C15.3532 31.2964 17.8237 32.4366 20.0641 32.4366C21.5244 32.4366 22.7747 31.9565 23.6849 31.0464C24.5951 30.1362 25.0751 28.8859 25.0751 27.4256C25.0751 25.1952 23.9249 22.7147 22.0145 20.7943C20.5842 19.364 18.8439 18.3638 17.1235 17.9437C19.614 16.3034 22.3846 15.0131 25.0651 14.413C26.2554 14.1429 27.4656 14.0129 28.6559 14.0129C35.9974 14.0129 41.4885 19.0739 41.4885 23.6048C41.4885 24.425 41.4185 27.9757 41.3385 28.3658C40.3483 32.6367 34.377 35.0972 24.9551 35.0972C22.5346 35.0972 19.414 35.0572 16.7434 34.7571C16.4734 34.7171 16.2233 34.9272 16.1933 35.1972C16.1633 35.4673 16.3634 35.7173 16.6334 35.7473C19.354 36.0574 22.5146 36.0974 24.9551 36.0974C35.0372 36.0974 41.1984 33.4368 42.3087 28.5959C42.4487 27.9957 42.4887 23.6549 42.4887 23.6048C42.4787 18.5738 36.7975 12.9927 28.6459 12.9927ZM9.29193 18.0337C9.19191 17.9337 9.07188 17.8837 8.94186 17.8837C8.85184 17.8837 8.76182 17.9137 8.6718 17.9637C8.39174 18.1437 7.98166 18.1037 7.74161 17.8637C7.60158 17.7236 7.52157 17.5336 7.52157 17.3336C7.52157 17.1335 7.60158 16.9435 7.74161 16.8035C7.84163 16.7134 7.95165 16.6434 8.08168 16.6034C8.69181 16.4434 9.1519 15.9833 9.31193 15.3732C9.34194 15.2431 9.41195 15.1231 9.51197 15.0331C9.79203 14.753 10.2921 14.753 10.5722 15.0331C10.7122 15.1731 10.7922 15.3632 10.7922 15.5632C10.7922 15.7632 10.7122 15.9533 10.5722 16.0933C10.3721 16.2933 10.3721 16.6034 10.5722 16.8035L12.3726 18.6038C12.1525 18.7539 11.9425 18.9139 11.7524 19.1039C11.5124 19.344 11.3123 19.604 11.1323 19.8741L9.29193 18.0337ZM24.0649 27.4056C24.0649 28.5959 23.6849 29.6061 22.9647 30.3262C22.2446 31.0464 21.2344 31.4264 20.0441 31.4264C18.0737 31.4264 15.8633 30.3862 14.1229 28.6559C12.3826 26.9255 11.3523 24.7051 11.3523 22.7347C11.3523 21.5444 11.7324 20.5342 12.4526 19.8141C13.1727 19.0939 14.1829 18.7138 15.3732 18.7138C17.3436 18.7138 19.554 19.7541 21.2944 21.4844C23.0347 23.2148 24.0649 25.4352 24.0649 27.4056Z" fill="#403B3B"/>
</svg>