<svg width="50" height="49" viewBox="0 0 50 49" fill="none" xmlns="http://www.w3.org/2000/svg">
<path d="M24.505 49C18.5538 49 12.8226 46.8396 8.3517 42.9188C8.14166 42.7387 8.12166 42.4287 8.3017 42.2186C8.48173 42.0086 8.8018 41.9886 9.00184 42.1686C13.2927 45.9294 18.7938 47.9998 24.505 47.9998C37.4676 47.9998 48.0098 37.4576 48.0098 24.495C48.0098 11.5324 37.4676 0.990202 24.505 0.990202C11.5424 0.990202 0.9902 11.5424 0.9902 24.505C0.9902 30.2662 3.09063 35.8073 6.91141 40.1082C7.09145 40.3182 7.07145 40.6283 6.8714 40.8083C6.67136 40.9884 6.35129 40.9684 6.17126 40.7683C2.19045 36.2774 0 30.5062 0 24.505C0 10.9922 10.9922 0 24.505 0C38.0178 0 49.01 10.9922 49.01 24.505C49.01 38.0178 38.0078 49 24.505 49Z" fill="#403B3B"/>
<path d="M22.3747 15.9032C24.7152 18.2437 24.4952 22.2745 24.4952 22.2745C24.4952 22.2745 20.4744 22.4946 18.1239 20.1541C15.7834 17.8036 16.0034 13.7728 16.0034 13.7728C16.0034 13.7728 20.0243 13.5528 22.3747 15.9032Z" fill="#9E9E9E"/>
<path d="M26.6256 15.9032C24.2851 18.2437 24.5051 22.2745 24.5051 22.2745C24.5051 22.2745 28.526 22.4946 30.8764 20.1541C33.2169 17.8136 32.9969 13.7828 32.9969 13.7828C32.9969 13.7828 28.9761 13.5527 26.6256 15.9032Z" fill="#9E9E9E"/>
<path d="M22.3747 25.4652C24.7152 27.8057 24.4952 31.8365 24.4952 31.8365C24.4952 31.8365 20.4744 32.0565 18.1239 29.716C15.7834 27.3656 16.0034 23.3447 16.0034 23.3447C16.0034 23.3447 20.0243 23.1247 22.3747 25.4652Z" fill="#9E9E9E"/>
<path d="M26.6256 25.4652C24.2851 27.8057 24.5051 31.8365 24.5051 31.8365C24.5051 31.8365 28.526 32.0565 30.8764 29.716C33.2169 27.3756 32.9969 23.3447 32.9969 23.3447C32.9969 23.3447 28.9761 23.1247 26.6256 25.4652Z" fill="#9E9E9E"/>
<path d="M21.8444 9.5219C21.8444 12.4525 24.5049 14.833 24.5049 14.833C24.5049 14.833 27.1655 12.4525 27.1655 9.5219C27.1655 6.5913 24.5049 4.21082 24.5049 4.21082C24.5049 4.21082 21.8444 6.5913 21.8444 9.5219Z" fill="#9E9E9E"/>
<path d="M24.1849 22.7746C23.1347 22.7746 19.864 22.5946 17.7736 20.5042C15.3031 18.0337 15.4932 13.9328 15.5032 13.7628C15.5132 13.5127 15.7132 13.3127 15.9733 13.2927C16.1433 13.2827 20.2441 13.0826 22.7246 15.5632C25.1951 18.0337 25.0051 22.1345 24.9951 22.3045C24.9851 22.5546 24.7851 22.7546 24.525 22.7746C24.495 22.7646 24.375 22.7746 24.1849 22.7746ZM16.5034 14.2729C16.5334 15.3631 16.7734 18.0937 18.4838 19.794C20.1941 21.5044 22.9247 21.7444 24.0049 21.7744C23.9749 20.6842 23.7348 17.9536 22.0245 16.2533C20.3141 14.5429 17.5836 14.3029 16.5034 14.2729Z" fill="#403B3B"/>
<path d="M24.8151 22.7746C24.6251 22.7746 24.5051 22.7646 24.4851 22.7646C24.235 22.7546 24.035 22.5446 24.015 22.2945C24.005 22.1245 23.8049 18.0237 26.2854 15.5532C28.7559 13.0827 32.8568 13.2827 33.0268 13.2827C33.2769 13.2927 33.4769 13.5027 33.4969 13.7528C33.5069 13.9228 33.707 18.0237 31.2265 20.4942C29.126 22.5946 25.8654 22.7746 24.8151 22.7746ZM32.5067 14.2729C31.4165 14.3029 28.6859 14.543 26.9856 16.2533C25.2752 17.9636 25.0352 20.6942 25.0052 21.7744C26.0954 21.7444 28.826 21.5044 30.5263 19.794C32.2367 18.0837 32.4767 15.3531 32.5067 14.2729Z" fill="#403B3B"/>
<path d="M24.1849 32.3366C23.1347 32.3366 19.864 32.1566 17.7736 30.0662C15.3031 27.5957 15.4932 23.4948 15.5032 23.3248C15.5132 23.0747 15.7132 22.8747 15.9733 22.8547C16.1433 22.8447 20.2441 22.6447 22.7246 25.1252C25.1951 27.5957 25.0051 31.6965 24.9951 31.8665C24.9851 32.1166 24.7851 32.3166 24.525 32.3366C24.495 32.3266 24.375 32.3366 24.1849 32.3366ZM16.5034 23.8349C16.5334 24.9251 16.7734 27.6557 18.4838 29.356C20.1941 31.0664 22.9247 31.3064 24.0049 31.3364C23.9749 30.2462 23.7348 27.5157 22.0245 25.8153C20.3141 24.115 17.5836 23.8649 16.5034 23.8349Z" fill="#403B3B"/>
<path d="M24.8151 32.3366C24.6251 32.3366 24.5051 32.3266 24.4851 32.3266C24.235 32.3166 24.035 32.1066 24.015 31.8565C24.005 31.6865 23.8049 27.5857 26.2854 25.1152C28.7559 22.6447 32.8568 22.8447 33.0268 22.8447C33.2769 22.8547 33.4769 23.0648 33.4969 23.3148C33.5069 23.4848 33.707 27.5857 31.2265 30.0562C29.126 32.1566 25.8654 32.3366 24.8151 32.3366ZM32.5067 23.8349C31.4165 23.8649 28.6859 24.105 26.9856 25.8153C25.2752 27.5257 25.0352 30.2562 25.0052 31.3364C26.0954 31.3064 28.826 31.0664 30.5263 29.356C32.2367 27.6457 32.4767 24.9251 32.5067 23.8349Z" fill="#403B3B"/>
<path d="M24.5051 15.3331C24.3851 15.3331 24.2651 15.2931 24.1751 15.2031C24.055 15.1031 21.3545 12.6426 21.3545 9.52194C21.3545 6.40131 24.065 3.9408 24.1751 3.84078C24.3651 3.67075 24.6452 3.67075 24.8352 3.84078C24.9552 3.9408 27.6558 6.40131 27.6558 9.52194C27.6558 12.6426 24.9452 15.1031 24.8352 15.2031C24.7352 15.2931 24.6152 15.3331 24.5051 15.3331ZM24.5051 4.911C23.825 5.63115 22.3447 7.45152 22.3447 9.52194C22.3447 11.5924 23.825 13.4127 24.5051 14.1329C25.1853 13.4127 26.6656 11.5924 26.6656 9.52194C26.6656 7.45152 25.1753 5.63115 24.5051 4.911Z" fill="#403B3B"/>
<path d="M24.505 45.2892C24.2349 45.2892 24.0049 45.0691 24.0049 44.7891V32.0465C24.0049 31.7764 24.2249 31.5464 24.505 31.5464C24.785 31.5464 25.0051 31.7664 25.0051 32.0465V44.7991C24.9951 45.0691 24.775 45.2892 24.505 45.2892Z" fill="#403B3B"/>
</svg>