<svg width="49" height="49" viewBox="0 0 49 49" fill="none" xmlns="http://www.w3.org/2000/svg">
<path d="M21.3999 11.09V14.74C21.4199 15.8 21.0299 16.45 20.2299 16.67C17.9799 17.28 16.3299 19.16 16.1399 21.36C16.1299 21.53 16.1199 21.7 16.1199 21.88V38.19C16.1199 39.31 17.0299 40.23 18.1599 40.23H30.8399C31.9699 40.23 32.8799 39.32 32.8799 38.19V21.88C32.8799 21.71 32.8699 21.53 32.8599 21.36C32.6699 19.17 31.0299 17.28 28.7699 16.68C27.6799 16.38 27.5799 15.43 27.5899 14.74V11.11H21.3999V11.09Z" fill="#9E9E9E"/>
<path d="M24.49 49C18.54 49 12.81 46.84 8.34 42.92C8.13 42.74 8.11001 42.43 8.29001 42.22C8.47001 42.01 8.78999 41.99 8.98999 42.17C13.28 45.93 18.78 48 24.49 48C37.45 48 47.99 37.46 47.99 24.5C47.99 11.54 37.45 1 24.49 1C11.53 1 0.98999 11.54 0.98999 24.5C0.98999 30.26 3.09 35.8 6.91 40.1C7.09 40.31 7.06999 40.62 6.87 40.8C6.67 40.98 6.35001 40.96 6.17001 40.76C2.19001 36.28 0 30.5 0 24.5C0 10.99 10.99 0 24.5 0C38.01 0 49 10.99 49 24.5C49 38.01 38 49 24.49 49Z" fill="#403B3B"/>
<path d="M29.6 38.76H19.45C18.4 38.76 17.55 37.9099 17.55 36.8599V21.95H31.49V36.8599C31.49 37.9099 30.64 38.76 29.6 38.76Z" fill="white"/>
<path d="M30.8299 41.22H18.1499C16.4799 41.22 15.1199 39.86 15.1199 38.19V21.88C15.1199 21.68 15.1299 21.48 15.1399 21.28C15.3699 18.66 17.3099 16.43 19.9599 15.72C20.1399 15.67 20.4199 15.59 20.3999 14.76V10.61C20.3999 10.34 20.6199 10.11 20.8999 10.11H28.0899C28.3599 10.11 28.5899 10.33 28.5899 10.61V14.75C28.5699 15.6 28.8199 15.66 29.0299 15.72C31.6799 16.43 33.6199 18.67 33.8499 21.28C33.8699 21.49 33.8699 21.68 33.8699 21.88V38.19C33.8699 39.86 32.4999 41.22 30.8299 41.22ZM21.3999 11.09V14.74C21.4199 15.8 21.0299 16.45 20.2299 16.67C17.9799 17.28 16.3299 19.16 16.1399 21.36C16.1299 21.53 16.1199 21.7 16.1199 21.88V38.19C16.1199 39.31 17.0299 40.23 18.1599 40.23H30.8399C31.9699 40.23 32.8799 39.32 32.8799 38.19V21.88C32.8799 21.71 32.8699 21.53 32.8599 21.36C32.6699 19.17 31.0299 17.28 28.7699 16.68C27.6799 16.38 27.5799 15.43 27.5899 14.74V11.11H21.3999V11.09Z" fill="#403B3B"/>
<path d="M29.4698 39.27H19.5098C18.1598 39.27 17.0698 38.17 17.0698 36.83V21.83C17.0698 21.56 17.2898 21.33 17.5698 21.33H25.0198C25.2898 21.33 25.5198 21.55 25.5198 21.83C25.5198 22.11 25.2998 22.33 25.0198 22.33H18.0598V36.83C18.0598 37.63 18.7098 38.28 19.5098 38.28H29.4698C30.2698 38.28 30.9198 37.63 30.9198 36.83V22.33H28.0098C27.7398 22.33 27.5098 22.11 27.5098 21.83C27.5098 21.55 27.7298 21.33 28.0098 21.33H31.4198C31.6898 21.33 31.9198 21.55 31.9198 21.83V36.83C31.9198 38.17 30.8198 39.27 29.4698 39.27Z" fill="#403B3B"/>
<path d="M29 9.07004V12.13C29 12.56 28.65 12.91 28.22 12.91H20.76C20.33 12.91 19.98 12.56 19.98 12.13V9.07004C19.98 8.64004 20.33 8.29004 20.76 8.29004H28.22C28.65 8.29004 29 8.64004 29 9.07004Z" fill="#9E9E9E"/>
<path d="M28.22 13.41H20.76C20.05 13.41 19.48 12.84 19.48 12.13V9.07004C19.48 8.37004 20.05 7.79004 20.76 7.79004H28.22C28.93 7.79004 29.5 8.36004 29.5 9.07004V12.13C29.5 12.83 28.92 13.41 28.22 13.41ZM20.76 8.79004C20.6 8.79004 20.47 8.92004 20.47 9.08004V12.14C20.47 12.29 20.6 12.43 20.76 12.43H28.22C28.38 12.43 28.51 12.3 28.51 12.14V9.07004C28.51 8.92004 28.38 8.78004 28.22 8.78004H20.76V8.79004Z" fill="#403B3B"/>
</svg>