<svg width="49" height="49" viewBox="0 0 49 49" fill="none" xmlns="http://www.w3.org/2000/svg">
<path d="M40.6484 24.7751C40.5784 19.8141 36.6876 15.6532 31.8266 15.3432L21.5045 15.4932C21.2844 14.9131 20.7343 14.503 20.0842 14.513C19.434 14.523 18.8839 14.9531 18.6839 15.5332L13.3728 15.6132L13.4128 18.4538C13.4628 21.6845 16.1134 24.265 19.344 24.215L31.1664 24.0449C33.1268 24.0149 34.6672 25.8953 34.027 27.9657C33.6369 29.216 32.4467 30.1262 31.1364 30.1162C31.0864 30.1162 31.0164 30.1162 30.9864 30.1062V30.0862L22.3946 28.7859L22.4747 34.4671L31.0464 34.347V34.337C36.3875 34.4471 40.7284 30.0862 40.6484 24.7751Z" fill="#9E9E9E"/>
<path d="M24.495 49C18.6738 49 13.0327 46.9196 8.61176 43.1488C8.40172 42.9688 8.38171 42.6587 8.56175 42.4487C8.74179 42.2386 9.05185 42.2186 9.26189 42.3887C13.5128 46.0094 18.9239 48.0098 24.505 48.0098H24.8451C37.6277 47.8298 48.0198 37.2876 48.0198 24.515V24.1749C47.8298 11.3823 37.2876 0.990204 24.505 0.990204H24.1649C11.3923 1.17024 0.990202 11.7124 0.990202 24.485V24.8251C1.07022 30.5862 3.25066 36.0974 7.13146 40.3482C7.31149 40.5483 7.30149 40.8683 7.10145 41.0484C6.90141 41.2384 6.58134 41.2184 6.40131 41.0184C2.36048 36.5875 0.0800163 30.8463 0 24.8451V24.495C0 11.1823 10.8322 0.190039 24.1549 0H24.505C37.8177 0 48.81 10.8322 49 24.1549V24.505C49 37.8177 38.1678 48.81 24.8451 49H24.495Z" fill="#403B3B"/>
<path d="M31.2063 34.8571H31.0063C30.8662 34.8571 30.7462 34.7971 30.6462 34.6971C30.5662 34.6071 30.5162 34.487 30.5162 34.367L30.4562 30.1362C30.4562 29.9961 30.5062 29.8661 30.6062 29.7661C30.7062 29.6761 30.8462 29.6261 30.9763 29.6261L31.1263 29.6361C32.1965 29.6361 33.2067 28.8759 33.5368 27.8257C33.6168 27.5556 33.6668 27.2856 33.6668 27.0155C33.6668 25.6552 32.5566 24.545 31.1963 24.545L23.4147 24.655C23.1747 24.685 22.9146 24.445 22.9146 24.1649C22.9146 23.8949 23.1247 23.6648 23.4047 23.6648L31.1463 23.5548C33.1067 23.5548 34.657 25.1051 34.657 27.0155C34.657 27.3856 34.597 27.7557 34.487 28.1257C34.0569 29.496 32.8366 30.4762 31.4464 30.6163L31.5064 33.8569C36.3073 33.6969 40.1581 29.7461 40.1581 24.9151V24.7851C40.0881 20.0641 36.4174 16.1333 31.8064 15.8432L13.8828 16.1033L13.9128 18.4538C13.9528 21.3644 16.3533 23.7248 19.2539 23.7248L20.4041 23.7048C20.4041 23.7048 20.4041 23.7048 20.4141 23.7048C20.6842 23.7048 20.9042 23.9249 20.9142 24.1949C20.9142 24.465 20.7042 24.695 20.4241 24.695L19.3439 24.715C15.8032 24.715 12.9626 21.9145 12.9126 18.4638L12.8726 15.6232C12.8726 15.4932 12.9226 15.3631 13.0126 15.2731C13.1026 15.1831 13.2326 15.1231 13.3627 15.1231L31.8164 14.863C36.9875 15.1931 41.0683 19.554 41.1383 24.7851V24.9251C41.1483 30.3962 36.6874 34.8571 31.2063 34.8571Z" fill="#403B3B"/>
<path d="M22.4645 34.9771C22.1945 34.9771 21.9744 34.7571 21.9644 34.487L21.8844 28.8059C21.8844 28.6559 21.9444 28.5258 22.0544 28.4258C22.1645 28.3258 22.3145 28.2858 22.4545 28.3058L31.0463 29.606C31.2863 29.6461 31.4664 29.8461 31.4664 30.0861L31.5264 34.347C31.5264 34.477 31.4764 34.6071 31.3863 34.6971C31.2963 34.7871 31.1663 34.8471 31.0363 34.8471L22.4645 34.9771C22.4745 34.9771 22.4745 34.9771 22.4645 34.9771ZM22.8946 29.386L22.9646 33.9869L30.5462 33.8769L30.4962 30.5362L22.8946 29.386Z" fill="#403B3B"/>
<path d="M20.0936 17.5129C20.9221 17.5129 21.5936 16.8414 21.5936 16.0129C21.5936 15.1845 20.9221 14.5129 20.0936 14.5129C19.2652 14.5129 18.5936 15.1845 18.5936 16.0129C18.5936 16.8414 19.2652 17.5129 20.0936 17.5129Z" fill="white"/>
<path d="M20.0936 18.0128C19.0036 18.0128 18.1136 17.1328 18.0936 16.0428C18.0836 15.5128 18.2836 15.0028 18.6636 14.6228C19.0436 14.2428 19.5336 14.0228 20.0736 14.0128C20.0836 14.0128 20.0936 14.0128 20.1036 14.0128C21.1936 14.0128 22.0836 14.8928 22.1036 15.9828C22.1136 16.5128 21.9136 17.0228 21.5336 17.4028C21.1636 17.7828 20.6636 18.0028 20.1336 18.0128C20.1136 18.0128 20.1036 18.0128 20.0936 18.0128ZM20.0936 15.0028H20.0836C19.8136 15.0028 19.5636 15.1128 19.3736 15.3028C19.1836 15.4928 19.0836 15.7528 19.0836 16.0228C19.0936 16.5828 19.5836 17.0028 20.1036 17.0128C20.3736 17.0128 20.6236 16.9028 20.8136 16.7028C21.0036 16.5028 21.1036 16.2528 21.0936 15.9928C21.0936 15.7228 20.9836 15.4728 20.7936 15.2828C20.6136 15.1028 20.3636 15.0028 20.0936 15.0028Z" fill="#403B3B"/>
<path d="M12.4424 30.6962C11.8522 30.6962 11.2621 30.5662 10.712 30.3061C9.51177 29.746 8.60158 28.7458 8.15149 27.4956C7.7014 26.2453 7.76141 24.895 8.33153 23.6948C9.53177 21.1343 12.0823 19.784 16.1231 19.574C16.4432 19.5639 16.6332 19.774 16.6432 20.044C16.6532 20.3141 16.4432 20.5542 16.1731 20.5642C12.5324 20.7542 10.2519 21.9144 9.22171 24.1149C8.77162 25.0751 8.72161 26.1553 9.08168 27.1555C9.44176 28.1557 10.1719 28.9559 11.1321 29.406C11.8723 29.756 12.7124 29.796 13.4826 29.516C14.2527 29.2359 14.8729 28.6758 15.2229 27.9257C15.493 27.3555 15.523 26.7154 15.303 26.1153C15.0929 25.5252 14.6528 25.0451 14.0827 24.775C13.8327 24.655 13.7326 24.3649 13.8427 24.1149C13.9627 23.8648 14.2527 23.7548 14.5028 23.8748C15.313 24.2549 15.9331 24.9351 16.2331 25.7752C16.5332 26.6154 16.4932 27.5356 16.1131 28.3457C15.653 29.3259 14.8329 30.0761 13.8126 30.4462C13.3726 30.6162 12.9025 30.6962 12.4424 30.6962Z" fill="#403B3B"/>
<path d="M24.2247 24.635C23.9547 24.635 23.7346 24.415 23.7246 24.1449C23.7246 23.8749 23.9347 23.6448 24.2147 23.6448L27.2154 23.6048C27.2554 23.6048 27.4954 23.4148 27.6954 22.6146C27.8855 21.8745 27.9755 20.8343 27.9655 19.754C27.9455 18.6738 27.8255 17.6336 27.6154 16.9035C27.3954 16.1033 27.1453 15.9233 27.1053 15.9233L24.1047 15.9633C23.8547 15.9733 23.6046 15.7432 23.6046 15.4732C23.6046 15.2031 23.8147 14.9731 24.0947 14.9731L27.0953 14.9331C27.7455 14.873 28.2556 15.4932 28.5756 16.6434C28.8057 17.4636 28.9457 18.5738 28.9557 19.754C28.9657 20.9343 28.8657 22.0445 28.6556 22.8747C28.3656 24.0249 27.8855 24.615 27.2254 24.625L24.2247 24.635Z" fill="#403B3B"/>
<path d="M32.6865 24.7751C32.5465 24.7751 32.4265 24.7451 32.3264 24.7051C32.0764 24.6051 31.9564 24.325 32.0464 24.065C32.1464 23.8149 32.4265 23.6849 32.6865 23.7749C32.9766 23.7849 33.9068 22.7447 34.7569 20.5942C35.6071 18.4438 35.6271 17.0135 35.4071 16.8535C35.157 16.7535 35.027 16.4634 35.127 16.2134C35.227 15.9533 35.5171 15.8333 35.7671 15.9333C36.0372 16.0433 36.3773 16.3034 36.4773 16.9835C36.7573 18.8539 35.037 23.2348 33.5567 24.415C33.2166 24.6951 32.9266 24.7751 32.6865 24.7751Z" fill="#403B3B"/>
<path d="M36.7572 29.1159C36.3871 29.1159 36.027 29.0859 35.687 29.0259C34.7468 28.8459 34.0866 28.4358 33.7766 27.8456C33.6466 27.6056 33.7466 27.3055 33.9866 27.1755C34.2267 27.0455 34.5267 27.1455 34.6568 27.3856C34.8168 27.6956 35.2469 27.9357 35.867 28.0457C37.1873 28.2857 39.0177 27.9157 39.7778 27.2455C39.9878 27.0655 40.2979 27.0855 40.4779 27.2855C40.658 27.4856 40.638 27.8056 40.4379 27.9857C39.6578 28.6758 38.1575 29.1159 36.7572 29.1159Z" fill="#403B3B"/>
</svg>