<svg width="60" height="60" viewBox="0 0 60 60" fill="none" xmlns="http://www.w3.org/2000/svg">
<circle cx="30.0001" cy="30" r="29.5" fill="white" stroke="#E5E5E5"/>
<path d="M24.1002 24.3C24.1002 27.9 26.7002 31 27.8002 32.2C28.9002 31 31.5002 27.9 31.5002 24.3C31.5002 20.7 28.9002 17.6 27.8002 16.4C26.7002 17.6 24.1002 20.7 24.1002 24.3Z" fill="#979797"/>
<path d="M44.6002 33.2C43.4002 32.1 40.3002 29.5 36.7002 29.5C33.1002 29.5 30.0002 32.1 28.8002 33.2C30.0002 34.3 33.1002 36.9 36.7002 36.9C40.3002 36.9 43.4002 34.3 44.6002 33.2Z" fill="#979797"/>
<path d="M14.0001 34.4C14.0001 38 16.6001 41.1 17.7001 42.3C18.8001 41.1 21.4001 38 21.4001 34.4C21.4001 30.8 18.8001 27.6 17.7001 26.5C16.6001 27.7 14.0001 30.8 14.0001 34.4Z" fill="#979797"/>
<path d="M34.5001 43.3C33.3001 42.2 30.2001 39.6 26.6001 39.6C23.0001 39.6 19.9001 42.2 18.7001 43.3C19.9001 44.4 23.0001 47 26.6001 47C30.2001 47 33.4001 44.4 34.5001 43.3Z" fill="#979797"/>
<path d="M38.9002 17.6C36.7002 19.8 36.4002 23.2 36.3002 24.7C37.8002 24.7 41.2002 24.3 43.4002 22.1C45.6002 19.9 46.0002 16.5 46.0002 15C44.5002 15 41.1002 15.4 38.9002 17.6Z" fill="#979797"/>
</svg>
