<svg width="32" height="31" viewBox="0 0 32 31" fill="none" xmlns="http://www.w3.org/2000/svg">
<g clip-path="url(#clip0_245_181)">
<path d="M30.9469 0.693073C30.8359 0.582035 30.6859 0.52002 30.5294 0.52002L15.9997 0.52061C15.6737 0.52061 15.4091 0.78521 15.4091 1.11124V2.80042L9.81043 4.30061C9.49503 4.38507 9.30839 4.70873 9.39285 5.02413L12.2946 15.8526L9.78444 18.3628C9.46491 17.8962 8.92861 17.5891 8.32203 17.5891H2.65191C1.675 17.5891 0.880005 18.3841 0.880005 19.361V28.9881C0.880005 29.965 1.675 30.76 2.65191 30.76H8.32203C9.15187 30.76 9.85059 30.1859 10.042 29.4146L10.7436 30.0271C11.2858 30.4996 11.9804 30.76 12.6998 30.76H30.5294C30.8554 30.76 31.12 30.4954 31.12 30.1694V1.11064C31.12 0.954129 31.0574 0.80352 30.9469 0.693073ZM8.91207 28.9881C8.91207 29.3136 8.64688 29.5788 8.32143 29.5788H2.65191C2.32647 29.5788 2.06128 29.3136 2.06128 28.9881V19.361C2.06128 19.0355 2.32647 18.7703 2.65191 18.7703H4.89633V25.5743C4.89633 25.9004 5.16094 26.165 5.48697 26.165C5.813 26.165 6.07761 25.9004 6.07761 25.5743V18.7703H8.32203C8.64747 18.7703 8.91266 19.0355 8.91266 19.361L8.91207 28.9881ZM10.6869 5.28873L15.4091 4.02361V6.21246L15.0133 6.31878C14.8621 6.35953 14.7328 6.45816 14.6548 6.59401C14.5769 6.72985 14.555 6.89109 14.5958 7.04229C14.8226 7.88925 14.3182 8.76278 13.4712 8.99017C13.3194 9.03093 13.1906 9.13015 13.1121 9.26599C13.0341 9.40184 13.0129 9.56367 13.0536 9.71487L15.3559 18.2399H14.1705L13.5598 15.8503C13.5403 15.7741 13.5066 15.7038 13.4606 15.643L10.6869 5.28873ZM15.4091 8.92048V13.9042L14.3318 9.91509C14.7818 9.68298 15.1504 9.33569 15.4091 8.92048ZM23.8947 29.5788H12.6998C12.2657 29.5788 11.8469 29.4217 11.5203 29.137L10.0939 27.8931V19.7242L12.6727 17.1455L13.1404 18.9753C13.2072 19.2369 13.4428 19.4194 13.7128 19.4194L25.3247 19.42C25.7807 19.42 26.1516 19.7909 26.1516 20.2469C26.1516 20.7029 25.7807 21.0738 25.3247 21.0738H19.374C19.048 21.0738 18.7834 21.3384 18.7834 21.6644C18.7834 21.9904 19.048 22.255 19.374 22.255H27.1728C27.6288 22.255 27.9997 22.6259 27.9997 23.0819C27.9997 23.5379 27.6288 23.9088 27.1728 23.9088H19.374C19.048 23.9088 18.7834 24.1734 18.7834 24.4994C18.7834 24.8254 19.048 25.09 19.374 25.09H25.9088C26.3648 25.09 26.7357 25.4609 26.7357 25.9169C26.7357 26.3729 26.3648 26.7438 25.9088 26.7438H19.374C19.048 26.7438 18.7834 27.0084 18.7834 27.3344C18.7834 27.6604 19.048 27.925 19.374 27.925H23.8942C24.3501 27.925 24.721 28.2959 24.721 28.7519C24.721 29.2079 24.3507 29.5788 23.8947 29.5788ZM29.9387 29.5788H25.724C25.8385 29.3266 25.9029 29.0466 25.9029 28.7519C25.9029 28.4572 25.8385 28.1772 25.724 27.925H25.9094C27.0169 27.925 27.9176 27.0243 27.9176 25.9169C27.9176 25.5938 27.8408 25.2885 27.7044 25.018C28.5549 24.7847 29.1815 24.005 29.1815 23.0819C29.1815 22.6342 29.0339 22.2196 28.7852 21.8853V14.4003C28.7852 14.0743 28.5206 13.8097 28.1946 13.8097C27.8686 13.8097 27.6039 14.0743 27.6039 14.4003V21.121C27.4651 21.0903 27.321 21.0738 27.1734 21.0738H27.1539C27.2685 20.8216 27.3328 20.5416 27.3328 20.2469C27.3328 19.1395 26.4321 18.2388 25.3247 18.2388H24.3749C25.3832 17.8064 26.0913 16.8041 26.0913 15.6394C26.0913 14.0808 24.8232 12.8127 23.2645 12.8127C21.7058 12.8127 20.4378 14.0808 20.4378 15.6394C20.4378 16.8041 21.1459 17.8058 22.1541 18.2388H18.9257V7.00863C19.9806 6.77887 20.8134 5.94609 21.0432 4.89124H25.4859C25.7157 5.94609 26.5485 6.77887 27.6034 7.00863V8.84488C27.6034 9.1709 27.868 9.4355 28.194 9.4355C28.52 9.4355 28.7846 9.1709 28.7846 8.84488V6.4812C28.7846 6.15517 28.52 5.89057 28.194 5.89057C27.3169 5.89057 26.604 5.1771 26.604 4.30002C26.604 3.97399 26.3394 3.70939 26.0134 3.70939H20.5157C20.1897 3.70939 19.9251 3.97399 19.9251 4.30002C19.9251 5.1771 19.2116 5.89057 18.3351 5.89057C18.0091 5.89057 17.7445 6.15517 17.7445 6.4812V18.2388H16.5909V1.70186L29.9387 1.70127V29.5788ZM23.2645 17.2855C22.3573 17.2855 21.619 16.5472 21.619 15.64C21.619 14.7328 22.3573 13.9945 23.2645 13.9945C24.1718 13.9945 24.9101 14.7328 24.9101 15.64C24.9101 16.5472 24.1718 17.2855 23.2645 17.2855Z" fill="#403B3B"/>
</g>
<defs>
<clipPath id="clip0_245_181">
<rect width="30.24" height="30.24" fill="white" transform="translate(0.880005 0.52002)"/>
</clipPath>
</defs>
</svg>
