<svg width="60" height="60" viewBox="0 0 60 60" fill="none" xmlns="http://www.w3.org/2000/svg">
<circle cx="30" cy="30" r="29.5" fill="white" stroke="#E5E5E5"/>
<path d="M24.1 25.8C24.1 29.4 26.7 32.5 27.8 33.7C28.9 32.5 31.5 29.4 31.5 25.8C31.5 22.2 28.9 19.1 27.8 17.9C26.7 19.1 24.1 22.2 24.1 25.8Z" fill="#FA9120"/>
<path d="M44.6 34.7C43.4 33.6 40.3001 31 36.7001 31C33.1001 31 30 33.6 28.8 34.7C30 35.8 33.1001 38.4 36.7001 38.4C40.3001 38.4 43.4 35.8 44.6 34.7Z" fill="#FA9120"/>
<path d="M14 35.9C14 39.5 16.6 42.6 17.7 43.8C18.8 42.6 21.4 39.5 21.4 35.9C21.4 32.3 18.8 29.1 17.7 28C16.6 29.2 14 32.3 14 35.9Z" fill="#FA9120"/>
<path d="M34.5 44.8C33.3 43.7 30.1999 41.1 26.5999 41.1C22.9999 41.1 19.9 43.7 18.7 44.8C19.9 45.9 22.9999 48.5 26.5999 48.5C30.1999 48.5 33.4 45.9 34.5 44.8Z" fill="#FA9120"/>
<path d="M38.9001 19.1C36.7001 21.3 36.4 24.7 36.3 26.2C37.8 26.2 41.2001 25.8 43.4001 23.6C45.6001 21.4 46 18 46 16.5C44.5 16.5 41.1001 16.9 38.9001 19.1Z" fill="#FA9120"/>
</svg>
