<svg width="50" height="49" viewBox="0 0 50 49" fill="none" xmlns="http://www.w3.org/2000/svg">
<path d="M24.74 48.99C18.79 48.99 13.06 46.83 8.59 42.91C8.38 42.73 8.36001 42.42 8.54001 42.21C8.72001 42 9.03999 41.99 9.23999 42.16C13.53 45.92 19.03 47.99 24.74 47.99C37.7 47.99 48.24 37.45 48.24 24.49C48.24 11.53 37.7 0.98999 24.74 0.98999C11.78 0.98999 1.23999 11.53 1.23999 24.49C1.23999 30.25 3.34 35.79 7.16 40.09C7.34 40.29 7.31999 40.61 7.12 40.79C6.92 40.97 6.60001 40.95 6.42001 40.75C2.44001 36.27 0.25 30.49 0.25 24.49C0.25 10.98 11.24 -0.0100098 24.75 -0.0100098C38.26 -0.0100098 49.25 10.98 49.25 24.49C49.25 38 38.24 48.99 24.74 48.99Z" fill="#403B3B"/>
<path d="M31.61 18.71C31.51 18.71 31.4 18.68 31.31 18.61C31.09 18.45 31.05 18.14 31.21 17.92C31.79 17.15 32.29 16.36 32.69 15.58C32.82 15.34 33.11 15.24 33.36 15.37C33.6 15.5 33.7 15.79 33.57 16.04C33.14 16.87 32.62 17.7 32 18.52C31.91 18.65 31.76 18.71 31.61 18.71Z" fill="#403B3B"/>
<path d="M32.17 22.34C28 26.63 22.75 30.01 17.45 33.08C16.72 33.51 15.96 32.56 16.54 31.94C20.52 27.75 23.92 22.92 27.45 18.25C28.59 16.73 30.81 16.58 32.16 17.93C33.37 19.14 33.37 21.1 32.17 22.34Z" fill="#E84B31"/>
<path d="M27.89 18.07C29.02 16.94 30.87 16.94 32.01 18.08C32.93 19 33.12 20.45 32.46 21.59L32.25 21.96L32.01 20.18C32 20.13 31.98 20.09 31.95 20.05C31.9 20 31.84 19.98 31.77 19.99L29.94 20.21L29.7 18.38C29.69 18.33 29.67 18.29 29.64 18.26C29.59 18.21 29.53 18.19 29.46 18.2L27.52 18.43L27.89 18.07Z" fill="#7ED45B"/>
<path d="M17.08 33.68C16.41 33.68 15.84 33.11 15.84 32.43C15.84 32.12 15.96 31.83 16.18 31.59C17.73 29.96 19.29 28.13 21.09 25.84C21.26 25.63 21.57 25.59 21.79 25.76C22 25.93 22.04 26.24 21.87 26.46C20.05 28.77 18.48 30.62 16.9 32.28C16.85 32.33 16.83 32.38 16.83 32.43C16.83 32.58 17.01 32.76 17.2 32.64C22.02 29.84 27.53 26.39 31.81 21.98C32.3 21.48 32.56 20.82 32.56 20.13C32.56 19.43 32.29 18.77 31.79 18.27C31.29 17.77 30.63 17.5 29.93 17.5C29.1 17.5 28.33 17.88 27.83 18.54C27.17 19.42 26.51 20.29 25.86 21.18C25.14 22.15 24.42 23.11 23.69 24.07C23.52 24.29 23.21 24.33 23 24.17C22.78 24 22.74 23.69 22.9 23.48C23.63 22.52 24.34 21.56 25.06 20.59C25.72 19.71 26.37 18.83 27.04 17.95C27.73 17.04 28.78 16.51 29.93 16.51C30.9 16.51 31.81 16.89 32.49 17.57C33.17 18.25 33.55 19.16 33.55 20.13C33.55 21.09 33.18 21.99 32.51 22.68C28.14 27.18 22.56 30.68 17.68 33.51C17.5 33.62 17.29 33.68 17.08 33.68Z" fill="#403B3B"/>
<path d="M32.0599 22.74C31.8099 22.74 31.5999 22.56 31.5699 22.31L31.3699 20.76L29.8199 20.95C29.5499 20.99 29.2999 20.79 29.2699 20.52L29.0699 18.97L27.5199 19.16C27.2499 19.2 26.9999 19 26.9699 18.73C26.9399 18.46 27.1299 18.21 27.3999 18.18L29.4399 17.93C29.7099 17.9 29.9599 18.09 29.9899 18.36L30.1899 19.91L31.7399 19.72C31.9999 19.68 32.2599 19.88 32.2899 20.15L32.5499 22.19C32.5799 22.46 32.3899 22.71 32.1199 22.74C32.0999 22.74 32.0799 22.74 32.0599 22.74Z" fill="#403B3B"/>
</svg>
