<svg width="60" height="60" viewBox="0 0 60 60" fill="none" xmlns="http://www.w3.org/2000/svg">
<circle cx="30" cy="30" r="29.5" fill="white" stroke="#E5E5E5"/>
<path d="M32.5591 20.9201C32.2691 22.7601 30.7691 24.0601 29.2191 23.8101C27.6691 23.5601 26.6491 21.8701 26.9391 20.0301C27.2291 18.1901 30.7291 14.3501 30.7291 14.3501C30.7291 14.3501 32.8491 19.0801 32.5591 20.9201Z" fill="#FA9120"/>
<path d="M26.2291 26.4601C26.4891 28.3101 25.4391 29.9801 23.8791 30.2001C22.3191 30.4201 20.8491 29.1001 20.5891 27.2501C20.3291 25.4001 22.5491 20.7101 22.5491 20.7101C22.5491 20.7101 25.9691 24.6101 26.2291 26.4601Z" fill="#FA9120"/>
<path d="M45.7891 28.76C47.4491 29.6 48.2291 31.42 47.5191 32.83C46.8091 34.23 44.8791 34.68 43.2191 33.84C41.5591 33 38.9691 28.5 38.9691 28.5C38.9691 28.5 44.1291 27.92 45.7891 28.76Z" fill="#FA9120"/>
<path d="M31.9991 25.28C33.2991 23.94 35.2691 23.7501 36.3991 24.8501C37.5291 25.9501 37.3791 27.92 36.0791 29.26C34.7791 30.6 29.7091 31.72 29.7091 31.72C29.7091 31.72 30.6991 26.62 31.9991 25.28Z" fill="#FA9120"/>
<path d="M29.7791 38.1301C29.8891 39.9901 28.6991 41.5801 27.1291 41.6701C25.5591 41.7601 24.1991 40.3201 24.0891 38.4601C23.9791 36.6001 26.5691 32.1001 26.5691 32.1001C26.5691 32.1001 29.6691 36.2701 29.7791 38.1301Z" fill="#FA9120"/>
<path d="M29.4891 43.6701C31.1791 42.8801 33.0891 43.4001 33.7491 44.8301C34.4091 46.2601 33.5791 48.0501 31.8791 48.8301C30.1791 49.6101 25.0491 48.8601 25.0491 48.8601C25.0491 48.8601 27.7891 44.4601 29.4891 43.6701Z" fill="#FA9120"/>
<path d="M40.7391 38.5201C41.9491 37.1001 43.8991 36.7601 45.0991 37.7801C46.2991 38.8001 46.2891 40.7701 45.0891 42.2001C43.8891 43.6301 38.9091 45.1001 38.9091 45.1001C38.9091 45.1001 39.5291 39.9401 40.7391 38.5201Z" fill="#FA9120"/>
<path d="M17.7991 24.8701C17.5491 26.7201 16.0891 28.0501 14.5291 27.8401C12.9691 27.6301 11.9091 25.9701 12.1491 24.1201C12.3991 22.2701 15.7891 18.3501 15.7891 18.3501C15.7891 18.3501 18.0391 23.0201 17.7991 24.8701Z" fill="#FA9120"/>
<path d="M25.6791 17.5301C24.3891 18.8801 22.4191 19.0901 21.2891 18.0101C20.1491 16.9201 20.2791 14.9501 21.5691 13.6001C22.8591 12.2501 27.9091 11.0801 27.9091 11.0801C27.9091 11.0801 26.9691 16.1801 25.6791 17.5301Z" fill="#FA9120"/>
<path d="M39.1191 11.2801C40.9291 11.7201 42.0991 13.3101 41.7291 14.8401C41.3591 16.3701 39.5891 17.2501 37.7791 16.8101C35.9691 16.3701 32.4191 12.5801 32.4191 12.5801C32.4191 12.5801 37.3091 10.8401 39.1191 11.2801Z" fill="#FA9120"/>
<path d="M19.1791 30.3901C20.9391 31.0001 21.9591 32.7 21.4391 34.18C20.9291 35.67 19.0791 36.3801 17.3191 35.7701C15.5591 35.1601 12.3891 31.0501 12.3891 31.0501C12.3891 31.0501 17.4091 29.7801 19.1791 30.3901Z" fill="#FA9120"/>
<path d="M37.0991 38.7201C36.0491 40.2601 34.1491 40.8001 32.8491 39.9201C31.5491 39.0401 31.3391 37.0701 32.3891 35.5301C33.4391 33.9901 38.2291 31.9901 38.2291 31.9901C38.2291 31.9901 38.1491 37.1701 37.0991 38.7201Z" fill="#FA9120"/>
<path d="M17.5391 43.7801C15.9391 42.8201 15.2991 40.9501 16.0991 39.6001C16.9091 38.2501 18.8591 37.9401 20.4591 38.9001C22.0591 39.8601 24.3191 44.5301 24.3191 44.5301C24.3191 44.5301 19.1391 44.7401 17.5391 43.7801Z" fill="#FA9120"/>
<path d="M39.1491 24.9601C37.4191 24.2701 36.4791 22.5301 37.0591 21.0701C37.6391 19.6101 39.5191 18.9901 41.2491 19.6801C42.9791 20.3701 45.9591 24.6201 45.9591 24.6201C45.9591 24.6201 40.8791 25.6601 39.1491 24.9601Z" fill="#FA9120"/>
</svg>
