<svg width="60" height="60" viewBox="0 0 60 60" fill="none" xmlns="http://www.w3.org/2000/svg">
<circle cx="30" cy="30" r="29.5" fill="white" stroke="#E5E5E5"/>
<path d="M38.8298 27.8599V45.2599C38.8298 46.3599 37.9298 47.2599 36.8298 47.2599H23.0798C21.9798 47.2599 21.0798 46.3599 21.0798 45.2599V27.8599C21.0798 27.6699 21.0898 27.4799 21.0998 27.2899C21.3198 24.7099 23.1898 22.6799 25.5498 22.0299C26.1898 21.8499 26.3698 21.3199 26.3598 20.5399V16.2899H33.5498V20.5399C33.5298 21.3699 33.7198 21.8499 34.3598 22.0299C36.7298 22.6799 38.5898 24.7099 38.8098 27.2899C38.8198 27.4799 38.8298 27.6699 38.8298 27.8599Z" fill="#BAE4E2"/>
<path d="M23.9498 42.28V28.28H35.9498V42.28C35.9498 43.38 35.0498 44.28 33.9498 44.28H25.9498C24.8498 44.28 23.9498 43.39 23.9498 42.28Z" fill="white"/>
<path d="M32.95 18.2801H26.95C25.85 18.2801 24.95 17.3801 24.95 16.2801V15.2801C24.95 14.1801 25.85 13.2801 26.95 13.2801H32.95C34.05 13.2801 34.95 14.1801 34.95 15.2801V16.2801C34.95 17.3901 34.06 18.2801 32.95 18.2801Z" fill="#FED304"/>
</svg>
