<svg width="60" height="60" viewBox="0 0 60 60" fill="none" xmlns="http://www.w3.org/2000/svg">
<circle cx="30" cy="30" r="29.5" fill="white" stroke="#E5E5E5"/>
<path d="M31.7099 14.1802V13.1802C31.7099 12.0802 30.8099 11.1802 29.7099 11.1802C28.6099 11.1802 27.7099 12.0802 27.7099 13.1802V14.1802H25.7099V19.1802H33.7099V14.1802H31.7099Z" fill="#FED304"/>
<path d="M21.6299 29.7601C22.4499 35.1901 22.3799 40.6201 21.4099 46.0501C21.2299 47.0801 21.8499 48.0701 22.8499 48.3201C25.1099 48.8801 27.3699 49.1701 29.6299 49.1801V49.1901C29.6599 49.1901 29.6799 49.1901 29.7099 49.1901C29.7399 49.1901 29.7599 49.1901 29.7899 49.1901V49.1801C32.0499 49.1701 34.3099 48.8801 36.5699 48.3201C37.5699 48.0701 38.1899 47.0801 38.0099 46.0501C37.0399 40.6201 36.9699 35.1901 37.7899 29.7601C38.0999 27.7001 37.7099 25.5901 36.6099 23.8301L34.7799 20.8701C34.4699 21.0701 34.1099 21.1901 33.7099 21.1901H25.7099C25.3099 21.1901 24.9499 21.0701 24.6399 20.8701L22.8099 23.8301C21.7099 25.5901 21.3199 27.7001 21.6299 29.7601Z" fill="#FED304"/>
</svg>
