<svg width="14" height="14" viewBox="0 0 14 14" fill="none" xmlns="http://www.w3.org/2000/svg">
<path d="M10.5 4.66669H11.0833C11.7022 4.66669 12.2957 4.91252 12.7332 5.3501C13.1708 5.78769 13.4167 6.38118 13.4167 7.00002C13.4167 7.61886 13.1708 8.21235 12.7332 8.64994C12.2957 9.08752 11.7022 9.33335 11.0833 9.33335H10.5" stroke="#0099FF" stroke-linecap="round" stroke-linejoin="round"/>
<path d="M1.16666 4.66669H10.5V9.91669C10.5 10.5355 10.2542 11.129 9.81657 11.5666C9.37899 12.0042 8.78549 12.25 8.16666 12.25H3.49999C2.88115 12.25 2.28766 12.0042 1.85007 11.5666C1.41249 11.129 1.16666 10.5355 1.16666 9.91669V4.66669Z" fill="#0099FF" stroke="#0099FF" stroke-linecap="round" stroke-linejoin="round"/>
<path d="M3.5 0.583313V2.33331" stroke="#0099FF" stroke-linecap="round" stroke-linejoin="round"/>
<path d="M5.83334 0.583313V2.33331" stroke="#0099FF" stroke-linecap="round" stroke-linejoin="round"/>
<path d="M8.16666 0.583313V2.33331" stroke="#0099FF" stroke-linecap="round" stroke-linejoin="round"/>
</svg>