<svg width="60" height="60" viewBox="0 0 60 60" fill="none" xmlns="http://www.w3.org/2000/svg">
<circle cx="30.0001" cy="30" r="29.5" fill="white" stroke="#E5E5E5"/>
<path d="M44.5204 28.3903C44.7904 29.3303 44.9505 30.3303 44.9505 31.3603C44.9505 36.1903 41.0205 40.1203 36.1905 40.1203C32.2105 40.1203 28.9805 36.8903 28.9805 32.9103C28.9805 29.6203 31.6605 26.9403 34.9505 26.9403C37.6905 26.9403 39.9304 29.1703 39.9304 31.9103C39.9304 34.2203 38.0505 36.0903 35.7505 36.0903C33.7905 36.0903 32.2104 34.5003 32.2104 32.5503C32.2104 32.0003 32.6604 31.5503 33.2104 31.5503C33.7604 31.5503 34.2104 32.0003 34.2104 32.5503C34.2104 33.4003 34.9005 34.0903 35.7505 34.0903C36.9505 34.0903 37.9304 33.1103 37.9304 31.9103C37.9304 30.2703 36.6005 28.9403 34.9505 28.9403C32.7605 28.9403 30.9805 30.7203 30.9805 32.9103C30.9805 35.7803 33.3205 38.1203 36.1905 38.1203C39.9205 38.1203 42.9505 35.0903 42.9505 31.3603C42.9505 26.5603 39.0404 22.6503 34.2404 22.6503C29.6504 22.6503 25.7105 25.4403 24.0105 29.4203V29.0603V23.0603V19.7303C24.6305 19.3803 25.0505 18.7203 25.0305 17.9703C25.0105 16.8703 24.1005 15.9803 23.0005 16.0003C21.8905 16.0203 21.0105 16.9203 21.0305 18.0303C21.0405 18.7503 21.4305 19.3703 22.0105 19.7203V23.0703H17.0105V19.8103C17.6105 19.4603 18.0105 18.8103 18.0005 18.0603C17.9805 16.9603 17.0705 16.0703 15.9705 16.0903C14.8605 16.1103 13.9805 17.0103 14.0005 18.1203C14.0105 18.8503 14.4205 19.4803 15.0105 19.8203V23.0703V29.0703V39.1103C15.0105 41.3203 16.8005 43.1103 19.0105 43.1103H23.6105H41.6105L41.5605 43.1003C45.8205 39.4903 47.0004 33.2303 44.5204 28.3903Z" fill="#979797"/>
</svg>
