<svg width="60" height="60" viewBox="0 0 60 60" fill="none" xmlns="http://www.w3.org/2000/svg">
<circle cx="30.0001" cy="30" r="29.5" fill="white" stroke="#E5E5E5"/>
<path d="M26.3763 23.69C28.7163 26.03 28.4963 30.06 28.4963 30.06C28.4963 30.06 24.4763 30.28 22.1263 27.94C19.7763 25.6 20.0063 21.57 20.0063 21.57C20.0063 21.57 24.0363 21.35 26.3763 23.69Z" fill="#979797"/>
<path d="M32.6363 23.69C30.2963 26.03 30.5163 30.06 30.5163 30.06C30.5163 30.06 34.5363 30.28 36.8863 27.94C39.2363 25.6 39.0063 21.57 39.0063 21.57C39.0063 21.57 34.9763 21.35 32.6363 23.69Z" fill="#979797"/>
<path d="M26.3763 33.25C28.7163 35.59 28.4963 39.62 28.4963 39.62C28.4963 39.62 24.4763 39.84 22.1263 37.5C19.7763 35.16 20.0063 31.13 20.0063 31.13C20.0063 31.13 24.0363 30.91 26.3763 33.25Z" fill="#979797"/>
<path d="M32.6363 33.25C30.2963 35.59 30.5163 39.62 30.5163 39.62C30.5163 39.62 34.5363 39.84 36.8863 37.5C39.2363 35.16 39.0063 31.13 39.0063 31.13C39.0063 31.13 34.9763 30.91 32.6363 33.25Z" fill="#979797"/>
<path d="M26.8563 17.31C26.8563 20.24 29.5163 22.62 29.5163 22.62C29.5163 22.62 32.1763 20.24 32.1763 17.31C32.1763 14.38 29.5163 12 29.5163 12C29.5163 12 26.8563 14.38 26.8563 17.31Z" fill="#979797"/>
<path d="M31.0063 42.29H28.0063V48.79H31.0063V42.29Z" fill="#979797"/>
</svg>
