<svg width="60" height="60" viewBox="0 0 60 60" fill="none" xmlns="http://www.w3.org/2000/svg">
<circle cx="30.0001" cy="30" r="29.5" fill="white" stroke="#E5E5E5"/>
<path d="M38.83 27.8598V45.2598C38.83 46.3598 37.93 47.2598 36.83 47.2598H23.08C21.98 47.2598 21.08 46.3598 21.08 45.2598V27.8598C21.08 27.6698 21.09 27.4798 21.1 27.2898C21.32 24.7098 23.19 22.6798 25.55 22.0298C26.19 21.8498 26.37 21.3198 26.36 20.5398V16.2898H33.55V20.5398C33.53 21.3698 33.72 21.8498 34.36 22.0298C36.73 22.6798 38.59 24.7098 38.81 27.2898C38.82 27.4798 38.83 27.6698 38.83 27.8598Z" fill="#979797"/>
<path d="M23.95 42.28V28.28H35.95V42.28C35.95 43.38 35.05 44.28 33.95 44.28H25.95C24.85 44.28 23.95 43.39 23.95 42.28Z" fill="#F7F7F7"/>
<path d="M32.9501 18.2801H26.9501C25.8501 18.2801 24.9501 17.3801 24.9501 16.2801V15.2801C24.9501 14.1801 25.8501 13.2801 26.9501 13.2801H32.9501C34.0501 13.2801 34.9501 14.1801 34.9501 15.2801V16.2801C34.9501 17.3901 34.0601 18.2801 32.9501 18.2801Z" fill="#979797"/>
</svg>
