<svg width="60" height="60" viewBox="0 0 60 60" fill="none" xmlns="http://www.w3.org/2000/svg">
<circle cx="30.0001" cy="30" r="29.5" fill="white" stroke="#E5E5E5"/>
<path d="M23.6397 16.9102C23.0697 16.4802 22.1397 15.7202 22.1397 14.4102C22.1397 14.2702 22.1497 14.1302 22.1697 14.0002C22.1497 13.9902 22.1197 13.9902 22.0997 13.9902C21.4297 13.9902 21.0197 15.2402 20.4397 15.4802C20.3197 15.5302 20.1897 15.5502 20.0397 15.5502C19.6497 15.5502 19.1697 15.4202 18.7797 15.4202C18.5497 15.4202 18.3497 15.4702 18.2097 15.6002C17.7597 16.0602 18.3397 17.2302 18.0897 17.8302C17.8497 18.4102 16.5997 18.8202 16.5997 19.4902C16.5997 20.1602 17.8497 20.5702 18.0897 21.1502C18.3397 21.7502 17.7597 22.9202 18.2097 23.3802C18.3497 23.5102 18.5497 23.5602 18.7797 23.5602C19.1697 23.5602 19.6497 23.4302 20.0397 23.4302C20.1897 23.4302 20.3197 23.4502 20.4397 23.5002C21.0197 23.7402 21.4297 24.9902 22.0997 24.9902C22.7097 24.9902 23.1197 23.9202 23.6297 23.5802C23.6297 23.5302 23.6297 23.4802 23.6397 23.4402C23.0697 23.0102 22.1397 22.2502 22.1397 20.9502C22.1397 19.6402 23.0697 18.8802 23.6397 18.4502C23.6297 18.3902 23.6197 18.3202 23.6197 18.2502C23.5797 17.9302 23.5497 17.5202 23.6197 17.1002C23.6197 17.0302 23.6297 16.9702 23.6397 16.9102Z" fill="#979797"/>
<path d="M34.3498 13.4501C34.0498 13.2301 33.7598 13.0001 33.6498 12.7501C33.3998 12.1501 33.9798 10.9801 33.5198 10.5201C33.3898 10.3901 33.1898 10.3501 32.9598 10.3501C32.5698 10.3501 32.0898 10.4701 31.6998 10.4701C31.5498 10.4701 31.4098 10.4501 31.2998 10.4001C30.7198 10.1601 30.2998 8.91013 29.6398 8.91013C28.9698 8.91013 28.5598 10.1601 27.9798 10.4001C27.8598 10.4501 27.7298 10.4701 27.5798 10.4701C27.1898 10.4701 26.7098 10.3501 26.3198 10.3501C26.0898 10.3501 25.8898 10.3901 25.7498 10.5201C25.2998 10.9801 25.8798 12.1501 25.6298 12.7501C25.5198 13.0001 25.2298 13.2301 24.9298 13.4501C24.5398 13.7401 24.1398 14.0301 24.1398 14.4101C24.1398 14.7501 24.4598 15.0201 24.8098 15.2801C25.1698 15.0601 25.6598 14.8801 26.3198 14.8801C26.6198 14.8801 26.8898 14.9201 27.1398 14.9501C27.2598 14.7901 27.4098 14.6001 27.5898 14.4101C28.0398 13.9301 28.6998 13.4501 29.6398 13.4501C30.5698 13.4501 31.2198 13.9201 31.6698 14.3901C31.8598 14.5901 32.0098 14.7801 32.1298 14.9501C32.3798 14.9201 32.6598 14.8801 32.9598 14.8801C33.6098 14.8801 34.1098 15.0601 34.4698 15.2801C34.8098 15.0201 35.1298 14.7501 35.1298 14.4101C35.1298 14.0301 34.7398 13.7401 34.3498 13.4501Z" fill="#979797"/>
<path d="M34.1398 22.0702C34.5798 21.7202 35.1298 21.3902 35.1298 20.9502C35.1298 20.6102 34.8098 20.3402 34.4698 20.0802C34.3598 20.0002 34.2498 19.9202 34.1398 19.8302C33.9198 19.6602 33.7298 19.4802 33.6498 19.2902C33.5698 19.0902 33.5798 18.8302 33.5998 18.5502C33.6298 18.3502 33.6598 18.1402 33.6798 17.9402C33.6998 17.8702 33.6998 17.8002 33.6998 17.7202V17.6802C33.7098 17.5802 33.6998 17.5002 33.6798 17.4202C33.6798 17.4102 33.6798 17.4102 33.6798 17.4102C33.6598 17.2702 33.6098 17.1502 33.5198 17.0602C33.4298 16.9602 33.2998 16.9102 33.1498 16.8902C33.0898 16.8802 33.0298 16.8802 32.9598 16.8802C32.5698 16.8802 32.0898 17.0002 31.6998 17.0002C31.5498 17.0002 31.4098 16.9902 31.2998 16.9402C31.2398 16.9102 31.1798 16.8802 31.1198 16.8302C30.6298 16.4502 30.2298 15.4502 29.6398 15.4502C29.0198 15.4502 28.6198 16.5202 28.1098 16.8702C28.0698 16.9002 28.0198 16.9202 27.9798 16.9402C27.8598 16.9902 27.7298 17.0002 27.5798 17.0002C27.1898 17.0002 26.7098 16.8802 26.3198 16.8802C26.2398 16.8802 26.1598 16.8802 26.0898 16.9002C25.9598 16.9202 25.8398 16.9702 25.7498 17.0602C25.6798 17.1202 25.6398 17.2102 25.6098 17.3002C25.5998 17.3402 25.5898 17.3802 25.5898 17.4202C25.5698 17.5002 25.5698 17.5802 25.5698 17.6802C25.5698 17.7702 25.5698 17.8602 25.5898 17.9402C25.5998 17.9702 25.5998 18.0102 25.6098 18.0502C25.6298 18.2102 25.6498 18.3802 25.6698 18.5402C25.6998 18.8202 25.7098 19.0902 25.6298 19.2902C25.5498 19.4802 25.3598 19.6602 25.1398 19.8302C25.0298 19.9202 24.9198 20.0002 24.8098 20.0802C24.4598 20.3402 24.1398 20.6102 24.1398 20.9502C24.1398 21.3902 24.6998 21.7202 25.1398 22.0702C25.3598 22.2402 25.5498 22.4202 25.6298 22.6102C25.7298 22.8502 25.6998 23.1902 25.6498 23.5402C25.5798 24.0402 25.4798 24.5602 25.7498 24.8302C25.8898 24.9702 26.0898 25.0102 26.3198 25.0102C26.5698 25.0102 26.8598 24.9602 27.1398 24.9302L27.2698 24.9102C27.3798 24.9002 27.4798 24.8902 27.5798 24.8902C27.7298 24.8902 27.8598 24.9102 27.9798 24.9502C28.5598 25.1902 28.9698 26.4402 29.6398 26.4402C30.2998 26.4402 30.7198 25.1902 31.2998 24.9502C31.4098 24.9102 31.5498 24.8902 31.6998 24.8902C31.7798 24.8902 31.8698 24.9002 31.9698 24.9102L32.1398 24.9302C32.4198 24.9602 32.7098 25.0102 32.9598 25.0102C33.1898 25.0102 33.3898 24.9702 33.5198 24.8302C33.7898 24.5602 33.6998 24.0502 33.6298 23.5502C33.5798 23.2002 33.5498 22.8602 33.6498 22.6102C33.7298 22.4202 33.9198 22.2402 34.1398 22.0702Z" fill="#979797"/>
<path d="M32.1398 26.9399H32.1298C31.7098 27.5099 30.9498 28.4399 29.6398 28.4399C28.3298 28.4399 27.5698 27.5099 27.1398 26.9399V49.1799H32.1398V26.9399Z" fill="#979797"/>
<path d="M35.6298 23.4402C35.6398 23.4902 35.6398 23.5502 35.6498 23.6002C36.1398 23.9802 36.5398 24.9902 37.1398 24.9902C37.7998 24.9902 38.2198 23.7402 38.7998 23.5002C38.9098 23.4502 39.0498 23.4302 39.1998 23.4302C39.5898 23.4302 40.0698 23.5602 40.4598 23.5602C40.6898 23.5602 40.8898 23.5102 41.0198 23.3802C41.4798 22.9202 40.8998 21.7502 41.1498 21.1502C41.3898 20.5702 42.6298 20.1602 42.6298 19.4902C42.6298 18.8202 41.3898 18.4102 41.1498 17.8302C40.8998 17.2302 41.4798 16.0602 41.0198 15.6002C40.8898 15.4702 40.6898 15.4202 40.4598 15.4202C40.0698 15.4202 39.5898 15.5502 39.1998 15.5502C39.0498 15.5502 38.9098 15.5302 38.7998 15.4802C38.2198 15.2402 37.7998 13.9902 37.1398 13.9902H37.0998C37.1198 14.1202 37.1298 14.2602 37.1298 14.4102C37.1298 15.7202 36.2098 16.4802 35.6298 16.9102C35.6298 16.9302 35.6298 16.9402 35.6398 16.9602C35.6498 17.0602 35.6598 17.1702 35.6798 17.3002C35.6898 17.4202 35.6998 17.5502 35.6998 17.6802V17.7402C35.6898 17.8502 35.6898 17.9602 35.6798 18.0602C35.6698 18.1802 35.6498 18.2802 35.6398 18.3802C35.6398 18.4002 35.6298 18.4302 35.6298 18.4502C36.2098 18.8802 37.1298 19.6402 37.1298 20.9502C37.1298 22.2502 36.2098 23.0102 35.6298 23.4402Z" fill="#979797"/>
<path d="M35.1198 26.06C35.0598 26.12 34.9998 26.19 34.9398 26.25C34.7598 26.43 34.4898 26.64 34.1398 26.78V47.18H37.1398V26.99C36.2198 26.99 35.5698 26.53 35.1198 26.06Z" fill="#979797"/>
<path d="M25.1397 26.7802C24.7897 26.6402 24.5297 26.4402 24.3397 26.2502C24.2697 26.1802 24.1997 26.1102 24.1397 26.0302C23.6797 26.5102 23.0297 26.9902 22.0997 26.9902V47.1802H25.1397V26.7802Z" fill="#979797"/>
</svg>
