<svg width="60" height="60" viewBox="0 0 60 60" fill="none" xmlns="http://www.w3.org/2000/svg">
<circle cx="30.0001" cy="30" r="29.5" fill="white" stroke="#E5E5E5"/>
<path d="M31.9396 14.0498V13.0498C31.9396 11.9498 31.0396 11.0498 29.9396 11.0498C28.8396 11.0498 27.9396 11.9498 27.9396 13.0498V14.0498H25.9396V19.0498H33.9396V14.0498H31.9396Z" fill="#979797"/>
<path d="M21.8605 29.6195C22.6805 35.0495 22.6105 40.4795 21.6405 45.9095C21.4605 46.9395 22.0805 47.9295 23.0805 48.1795C25.3405 48.7395 27.6005 49.0295 29.8605 49.0395V49.0495C29.8905 49.0495 29.9105 49.0495 29.9405 49.0495C29.9705 49.0495 29.9905 49.0495 30.0205 49.0495V49.0395C32.2805 49.0295 34.5405 48.7395 36.8005 48.1795C37.8005 47.9295 38.4205 46.9395 38.2405 45.9095C37.2705 40.4795 37.2005 35.0495 38.0205 29.6195C38.3305 27.5595 37.9405 25.4495 36.8405 23.6895L35.0105 20.7295C34.7005 20.9295 34.3405 21.0495 33.9405 21.0495H25.9405C25.5405 21.0495 25.1805 20.9295 24.8705 20.7295L23.0405 23.6895C21.9405 25.4595 21.5505 27.5595 21.8605 29.6195Z" fill="#979797"/>
</svg>
