<svg width="130" height="34" viewBox="0 0 130 34" fill="none" xmlns="http://www.w3.org/2000/svg">
<path d="M64.8765 8.21927C65.3019 8.21927 65.6468 7.87442 65.6468 7.44902C65.6468 7.02362 65.3019 6.67877 64.8765 6.67877C64.4511 6.67877 64.1063 7.02362 64.1063 7.44902C64.1063 7.87442 64.4511 8.21927 64.8765 8.21927Z" fill="#0099FF"/>
<path d="M56.4297 0V8.4695C56.4297 13.1397 60.229 16.939 64.8992 16.939C69.5695 16.939 73.3687 13.1397 73.3687 8.4695V0H56.4297ZM65.6467 15.3595V8.983H64.1062V15.353C60.658 14.9565 57.9702 12.0217 57.9702 8.4695V6.4545H59.826V8.53775L64.8537 5.6355L59.826 2.73325V4.914H57.9702V1.5405H71.8282V4.914H69.8815V2.73325L64.8537 5.6355L69.8815 8.53775V6.4545H71.8282V8.4695C71.8315 12.038 69.1177 14.9857 65.6467 15.3595Z" fill="#403B3B"/>
<path d="M3.20775 24.8463H0V23.3253H8.21275V24.8463H5.005V33.0038H3.20775V24.8463Z" fill="#403B3B"/>
<path d="M15.3758 25.6198V33.0038H13.7313V32.0483C13.4453 32.3993 13.0943 32.6625 12.675 32.838C12.2558 33.0135 11.791 33.1013 11.284 33.1013C10.5658 33.1013 9.92227 32.9453 9.35352 32.63C8.78802 32.318 8.34277 31.8728 8.02752 31.304C7.70902 30.732 7.54977 30.069 7.54977 29.3118C7.54977 28.5545 7.70902 27.8948 8.02752 27.326C8.34602 26.7605 8.78802 26.3185 9.35352 26.0065C9.91902 25.6945 10.5625 25.5353 11.284 25.5353C11.7618 25.5353 12.2038 25.6198 12.6035 25.7855C13.0033 25.9513 13.351 26.195 13.6468 26.5168V25.6165H15.3758V25.6198ZM13.052 30.9855C13.468 30.563 13.6728 30.004 13.6728 29.3118C13.6728 28.6195 13.4648 28.0638 13.052 27.638C12.636 27.2155 12.1128 27.001 11.4758 27.001C10.8388 27.001 10.3155 27.2123 9.90602 27.638C9.49652 28.0605 9.29177 28.6195 9.29177 29.3118C9.29177 30.004 9.49652 30.5598 9.90602 30.9855C10.3155 31.408 10.8388 31.6225 11.4758 31.6225C12.1128 31.6193 12.6393 31.408 13.052 30.9855Z" fill="#403B3B"/>
<path d="M22.7662 26.0065C23.3317 26.3185 23.777 26.7638 24.102 27.3325C24.4237 27.9045 24.5862 28.5643 24.5862 29.3085C24.5862 30.056 24.4237 30.7158 24.102 31.2943C23.7802 31.8695 23.335 32.3148 22.7662 32.63C22.2007 32.942 21.5572 33.1013 20.8357 33.1013C20.3287 33.1013 19.864 33.0135 19.4447 32.838C19.0255 32.6625 18.6712 32.3993 18.3885 32.0483V33.0038H16.744V22.7435H18.473V26.52C18.7687 26.1983 19.1165 25.9545 19.5162 25.7888C19.916 25.623 20.358 25.5385 20.8357 25.5385C21.5572 25.5353 22.2007 25.6945 22.7662 26.0065ZM22.2137 30.9855C22.6232 30.563 22.828 30.004 22.828 29.3118C22.828 28.6195 22.6232 28.0638 22.2137 27.638C21.8042 27.2155 21.281 27.001 20.644 27.001C20.228 27.001 19.8542 27.0953 19.5227 27.2838C19.1912 27.4723 18.928 27.742 18.733 28.093C18.538 28.444 18.4437 28.8503 18.4437 29.3085C18.4437 29.77 18.5412 30.1763 18.733 30.524C18.928 30.875 19.188 31.1448 19.5227 31.3333C19.8542 31.5218 20.228 31.616 20.644 31.616C21.281 31.6193 21.8042 31.408 22.2137 30.9855Z" fill="#403B3B"/>
<path d="M25.9545 22.7435H27.6835V33.0038H25.9545V22.7435Z" fill="#403B3B"/>
<path d="M36.3902 29.8643H30.5955C30.6962 30.407 30.9627 30.8393 31.3917 31.1578C31.8207 31.4763 32.3537 31.6355 32.9875 31.6355C33.8 31.6355 34.4662 31.369 34.9927 30.8328L35.919 31.8988C35.5875 32.2953 35.1682 32.5943 34.6612 32.799C34.1542 33.0005 33.5822 33.1045 32.9453 33.1045C32.1328 33.1045 31.421 32.942 30.8035 32.6203C30.186 32.2985 29.7082 31.8468 29.3735 31.2715C29.0355 30.6963 28.8698 30.043 28.8698 29.315C28.8698 28.5968 29.0322 27.95 29.3605 27.3715C29.6887 26.7963 30.1405 26.3445 30.7222 26.0228C31.304 25.701 31.9572 25.5385 32.6852 25.5385C33.4035 25.5385 34.047 25.6978 34.6157 26.0163C35.1812 26.3348 35.6265 26.78 35.9417 27.3585C36.2602 27.9338 36.4195 28.6 36.4195 29.3573C36.4162 29.471 36.4065 29.6433 36.3902 29.8643ZM31.2812 27.4105C30.8977 27.7388 30.667 28.1743 30.5825 28.717H34.7717C34.697 28.184 34.4727 27.7485 34.0957 27.417C33.7188 27.0855 33.2475 26.9198 32.6852 26.9198C32.1295 26.9198 31.6615 27.0823 31.2812 27.4105Z" fill="#403B3B"/>
<path d="M41.8567 32.6008C41.6552 32.7665 41.4082 32.89 41.1157 32.9745C40.8265 33.059 40.5177 33.098 40.196 33.098C39.3835 33.098 38.7595 32.8868 38.3142 32.461C37.8722 32.0385 37.6512 31.421 37.6512 30.6085V23.9883H39.3802V25.675H41.3562V27.0563H39.3802V30.5695C39.3802 30.9303 39.4712 31.2033 39.65 31.3918C39.8287 31.5803 40.0822 31.6745 40.404 31.6745C40.7907 31.6745 41.1125 31.5738 41.3725 31.369L41.8567 32.6008Z" fill="#403B3B"/>
<path d="M54.2718 26.3445C54.8145 26.884 55.0875 27.6933 55.0875 28.7723V33.0038H53.3585V28.9933C53.3585 28.3465 53.2155 27.8623 52.9295 27.534C52.6435 27.2058 52.234 27.0433 51.6978 27.0433C51.116 27.0433 50.6513 27.235 50.3003 27.6185C49.9493 28.002 49.7738 28.548 49.7738 29.2565V33.0038H48.0448V28.9933C48.0448 28.3465 47.9018 27.8623 47.6158 27.534C47.3298 27.2058 46.9203 27.0433 46.384 27.0433C45.7925 27.0433 45.3278 27.2318 44.98 27.6088C44.6355 27.9858 44.46 28.535 44.46 29.2533V33.0005H42.731V25.6198H44.3755V26.559C44.6518 26.2275 44.9963 25.974 45.4123 25.7985C45.8283 25.623 46.2865 25.5353 46.7935 25.5353C47.346 25.5353 47.8368 25.6393 48.2658 25.8473C48.6948 26.0553 49.0328 26.3608 49.283 26.767C49.5885 26.3803 49.9785 26.078 50.4595 25.8603C50.9373 25.6425 51.4703 25.5353 52.0488 25.5353C52.9913 25.5353 53.729 25.805 54.2718 26.3445Z" fill="#403B3B"/>
<path d="M63.7812 29.8643H57.9865C58.0872 30.407 58.3537 30.8393 58.7827 31.1578C59.2117 31.4763 59.7447 31.6355 60.3785 31.6355C61.191 31.6355 61.8572 31.369 62.3837 30.8328L63.31 31.8988C62.9785 32.2953 62.5592 32.5943 62.0522 32.799C61.5452 33.0005 60.9732 33.1045 60.3362 33.1045C59.5237 33.1045 58.812 32.942 58.1945 32.6203C57.577 32.2985 57.0992 31.8468 56.7645 31.2715C56.4265 30.6963 56.2607 30.043 56.2607 29.315C56.2607 28.5968 56.4232 27.95 56.7515 27.3715C57.0797 26.7963 57.5315 26.3445 58.1132 26.0228C58.695 25.701 59.3482 25.5385 60.0762 25.5385C60.7945 25.5385 61.438 25.6978 62.0067 26.0163C62.5722 26.3348 63.0175 26.78 63.3327 27.3585C63.6512 27.9338 63.8105 28.6 63.8105 29.3573C63.8072 29.471 63.8007 29.6433 63.7812 29.8643ZM58.6722 27.4105C58.2887 27.7388 58.058 28.1743 57.9735 28.717H62.1627C62.088 28.184 61.8637 27.7485 61.4867 27.417C61.1097 27.0855 60.6385 26.9198 60.0762 26.9198C59.5237 26.9198 59.0557 27.0823 58.6722 27.4105Z" fill="#403B3B"/>
<path d="M71.4382 26.351C72.0005 26.8937 72.2832 27.703 72.2832 28.7722V33.0037H70.5542V28.9932C70.5542 28.3465 70.4015 27.8622 70.0992 27.534C69.7937 27.2057 69.3615 27.0432 68.7992 27.0432C68.1622 27.0432 67.6617 27.235 67.2912 27.6185C66.924 28.002 66.7387 28.5512 66.7387 29.2695V33.0037H65.0097V25.6197H66.6542V26.5752C66.9402 26.234 67.301 25.9772 67.7332 25.8017C68.1655 25.6262 68.6562 25.5385 69.199 25.5385C70.1317 25.5352 70.876 25.8082 71.4382 26.351Z" fill="#403B3B"/>
<path d="M80.8567 25.6198V33.0038H79.2122V32.0645C78.936 32.396 78.5915 32.6528 78.1755 32.8315C77.7595 33.0103 77.3142 33.1013 76.8332 33.1013C75.8452 33.1013 75.0717 32.8283 74.503 32.279C73.9375 31.7298 73.6515 30.9173 73.6515 29.8383V25.6198H75.3805V29.601C75.3805 30.264 75.53 30.7613 75.829 31.0863C76.128 31.4145 76.5537 31.577 77.1095 31.577C77.727 31.577 78.2177 31.3853 78.5817 31.0018C78.9457 30.6183 79.1277 30.069 79.1277 29.3508V25.6198H80.8567Z" fill="#403B3B"/>
<path d="M85.241 29.8383L83.954 31.0538V33.0038H82.225V22.7435H83.954V28.938L87.5355 25.6198H89.609L86.5248 28.717L89.8983 33.0038H87.7955L85.241 29.8383Z" fill="#403B3B"/>
<path d="M98.0883 25.6198V33.0038H96.4438V32.0483C96.1578 32.3993 95.8068 32.6625 95.3875 32.838C94.9683 33.0135 94.5035 33.1013 93.9965 33.1013C93.2783 33.1013 92.6348 32.9453 92.066 32.63C91.5005 32.318 91.0553 31.8728 90.74 31.304C90.4215 30.732 90.2623 30.069 90.2623 29.3118C90.2623 28.5545 90.4215 27.8948 90.74 27.326C91.0585 26.7605 91.5005 26.3185 92.066 26.0065C92.6315 25.6945 93.275 25.5353 93.9965 25.5353C94.4743 25.5353 94.9163 25.6198 95.316 25.7855C95.7158 25.9513 96.0635 26.195 96.3593 26.5168V25.6165H98.0883V25.6198ZM95.7645 30.9855C96.1805 30.563 96.3853 30.004 96.3853 29.3118C96.3853 28.6195 96.1773 28.0638 95.7645 27.638C95.3485 27.2155 94.8253 27.001 94.1883 27.001C93.5513 27.001 93.028 27.2123 92.6185 27.638C92.209 28.0605 92.0043 28.6195 92.0043 29.3118C92.0043 30.004 92.209 30.5598 92.6185 30.9855C93.028 31.408 93.5513 31.6225 94.1883 31.6225C94.8253 31.6193 95.3518 31.408 95.7645 30.9855Z" fill="#403B3B"/>
<path d="M106.892 25.6198V33.0038H105.248V32.0483C104.962 32.3993 104.611 32.6625 104.192 32.838C103.772 33.0135 103.308 33.1013 102.801 33.1013C102.082 33.1013 101.439 32.9453 100.87 32.63C100.305 32.318 99.8595 31.8728 99.5442 31.304C99.2257 30.732 99.0665 30.069 99.0665 29.3118C99.0665 28.5545 99.2257 27.8948 99.5442 27.326C99.8627 26.7605 100.305 26.3185 100.87 26.0065C101.436 25.6945 102.079 25.5353 102.801 25.5353C103.278 25.5353 103.72 25.6198 104.12 25.7855C104.52 25.9513 104.868 26.195 105.163 26.5168V25.6165H106.892V25.6198ZM104.569 30.9855C104.985 30.563 105.189 30.004 105.189 29.3118C105.189 28.6195 104.981 28.0638 104.569 27.638C104.153 27.2155 103.629 27.001 102.992 27.001C102.355 27.001 101.832 27.2123 101.423 27.638C101.013 28.0605 100.808 28.6195 100.808 29.3118C100.808 30.004 101.013 30.5598 101.423 30.9855C101.832 31.408 102.355 31.6225 102.992 31.6225C103.629 31.6193 104.156 31.408 104.569 30.9855Z" fill="#403B3B"/>
<path d="M113.461 25.5353V27.1798C113.314 27.1505 112.252 27.1375 112.135 27.1375C111.462 27.1375 110.935 27.3325 110.558 27.7258C110.181 28.119 109.993 28.6813 109.993 29.419V33.0005H108.264V25.6198H109.908V26.6988C110.406 25.922 111.309 25.5353 113.461 25.5353Z" fill="#403B3B"/>
<path d="M117.663 32.6008C117.462 32.7665 117.215 32.89 116.922 32.9745C116.633 33.059 116.324 33.098 116.002 33.098C115.19 33.098 114.566 32.8868 114.121 32.461C113.679 32.0385 113.458 31.421 113.458 30.6085V23.9883H115.187V25.675H117.163V27.0563H115.187V30.5695C115.187 30.9303 115.278 31.2033 115.456 31.3918C115.635 31.5803 115.889 31.6745 116.21 31.6745C116.597 31.6745 116.919 31.5738 117.179 31.369L117.663 32.6008Z" fill="#403B3B"/>
<path d="M127.153 26.5167C127.679 27.0432 127.943 27.7972 127.943 28.7852V33.0037H127.25V28.8405C127.25 28.028 127.046 27.4105 126.636 26.988C126.227 26.5655 125.651 26.351 124.914 26.351C124.065 26.351 123.396 26.6045 122.908 27.1115C122.421 27.6185 122.177 28.301 122.177 29.159V33.0037H121.485V25.7855H122.148V27.3487C122.398 26.8417 122.769 26.4452 123.263 26.1592C123.757 25.8732 124.338 25.7302 125.011 25.7302C125.911 25.7302 126.626 25.9935 127.153 26.5167Z" fill="#403B3B"/>
<path d="M129.308 22.7435H130V33.0038H129.308V22.7435Z" fill="#403B3B"/>
<path d="M119.434 33.098C119.86 33.098 120.204 32.7531 120.204 32.3277C120.204 31.9023 119.86 31.5575 119.434 31.5575C119.009 31.5575 118.664 31.9023 118.664 32.3277C118.664 32.7531 119.009 33.098 119.434 33.098Z" fill="#0099FF"/>
</svg>
