<svg width="204" height="53" viewBox="0 0 204 53" fill="none" xmlns="http://www.w3.org/2000/svg">
<path d="M101.806 12.9119C102.474 12.9119 103.015 12.3702 103.015 11.7019C103.015 11.0337 102.474 10.4919 101.806 10.4919C101.139 10.4919 100.598 11.0337 100.598 11.7019C100.598 12.3702 101.139 12.9119 101.806 12.9119Z" fill="white"/>
<path d="M88.5513 0V13.3051C88.5513 20.6417 94.5132 26.6101 101.842 26.6101C109.171 26.6101 115.132 20.6417 115.132 13.3051V0H88.5513ZM103.015 24.1288V14.1117H100.597V24.1186C95.1864 23.4957 90.9687 18.8854 90.9687 13.3051V10.1396H93.8808V13.4123L101.771 8.85302L93.8808 4.29377V7.71959H90.9687V2.42003H112.715V7.71959H109.66V4.29377L101.771 8.85302L109.66 13.4123V10.1396H112.715V13.3051C112.72 18.9109 108.462 23.5417 103.015 24.1288Z" fill="white"/>
<path d="M5.0337 39.0319H0V36.6425H12.8877V39.0319H7.854V51.8468H5.0337V39.0319Z" fill="white"/>
<path d="M24.1281 40.247V51.8468H21.5475V50.3458C21.0987 50.8972 20.5479 51.3107 19.89 51.5864C19.2321 51.8621 18.5028 52 17.7072 52C16.5801 52 15.5703 51.7549 14.6778 51.2597C13.7904 50.7695 13.0917 50.0701 12.597 49.1766C12.0972 48.278 11.8473 47.2365 11.8473 46.0469C11.8473 44.8573 12.0972 43.8209 12.597 42.9274C13.0968 42.039 13.7904 41.3447 14.6778 40.8546C15.5652 40.3644 16.575 40.1143 17.7072 40.1143C18.4569 40.1143 19.1505 40.247 19.7778 40.5074C20.4051 40.7678 20.9508 41.1507 21.4149 41.6561V40.2419H24.1281V40.247ZM20.4816 48.6763C21.1344 48.0125 21.4557 47.1344 21.4557 46.0469C21.4557 44.9594 21.1293 44.0864 20.4816 43.4175C19.8288 42.7538 19.0077 42.4169 18.0081 42.4169C17.0085 42.4169 16.1874 42.7487 15.5448 43.4175C14.9022 44.0813 14.5809 44.9594 14.5809 46.0469C14.5809 47.1344 14.9022 48.0074 15.5448 48.6763C16.1874 49.34 17.0085 49.6769 18.0081 49.6769C19.0077 49.6718 19.8339 49.34 20.4816 48.6763Z" fill="white"/>
<path d="M35.7255 40.8546C36.6129 41.3447 37.3116 42.0442 37.8216 42.9376C38.3265 43.8362 38.5815 44.8726 38.5815 46.0418C38.5815 47.2161 38.3265 48.2525 37.8216 49.1613C37.3167 50.065 36.618 50.7644 35.7255 51.2597C34.8381 51.7498 33.8283 52 32.6961 52C31.9005 52 31.1712 51.8621 30.5133 51.5864C29.8554 51.3107 29.2995 50.8972 28.8558 50.3458V51.8468H26.2752V35.7286H28.9884V41.6612C29.4525 41.1558 29.9982 40.7729 30.6255 40.5125C31.2528 40.2521 31.9464 40.1194 32.6961 40.1194C33.8283 40.1143 34.8381 40.3644 35.7255 40.8546ZM34.8585 48.6763C35.5011 48.0125 35.8224 47.1344 35.8224 46.0469C35.8224 44.9594 35.5011 44.0864 34.8585 43.4176C34.2159 42.7538 33.3948 42.4169 32.3952 42.4169C31.7424 42.4169 31.1559 42.5649 30.6357 42.8611C30.1155 43.1572 29.7024 43.5809 29.3964 44.1323C29.0904 44.6837 28.9425 45.3219 28.9425 46.0418C28.9425 46.7668 29.0955 47.405 29.3964 47.9513C29.7024 48.5027 30.1104 48.9264 30.6357 49.2226C31.1559 49.5187 31.7424 49.6667 32.3952 49.6667C33.3948 49.6719 34.2159 49.34 34.8585 48.6763Z" fill="white"/>
<path d="M40.7286 35.7286H43.4418V51.8468H40.7286V35.7286Z" fill="white"/>
<path d="M57.1047 46.9149H48.0114C48.1695 47.7675 48.5877 48.4465 49.2609 48.9469C49.9341 49.4472 50.7705 49.6974 51.765 49.6974C53.04 49.6974 54.0855 49.2787 54.9117 48.4363L56.3652 50.1109C55.845 50.7338 55.1871 51.2035 54.3915 51.5252C53.5959 51.8417 52.6983 52.0051 51.6987 52.0051C50.4237 52.0051 49.3068 51.7498 48.3378 51.2444C47.3688 50.7389 46.6191 50.0293 46.0938 49.1256C45.5634 48.2219 45.3033 47.1957 45.3033 46.052C45.3033 44.9237 45.5583 43.9077 46.0734 42.9989C46.5885 42.0952 47.2974 41.3856 48.2103 40.8801C49.1232 40.3747 50.1483 40.1194 51.2907 40.1194C52.4178 40.1194 53.4276 40.3696 54.3201 40.8699C55.2075 41.3702 55.9062 42.0697 56.4009 42.9785C56.9007 43.8822 57.1506 44.9288 57.1506 46.1184C57.1455 46.2971 57.1302 46.5677 57.1047 46.9149ZM49.0875 43.0602C48.4857 43.5758 48.1236 44.26 47.991 45.1126H54.5649C54.4476 44.2753 54.0957 43.5912 53.5041 43.0704C52.9125 42.5496 52.173 42.2892 51.2907 42.2892C50.4186 42.2892 49.6842 42.5445 49.0875 43.0602Z" fill="white"/>
<path d="M65.6829 51.2137C65.3667 51.4741 64.9791 51.6681 64.5201 51.8009C64.0662 51.9336 63.5817 51.9949 63.0768 51.9949C61.8018 51.9949 60.8226 51.663 60.1239 50.9942C59.4303 50.3305 59.0835 49.3604 59.0835 48.084V37.684H61.7967V40.3338H64.8975V42.5037H61.7967V48.0228C61.7967 48.5895 61.9395 49.0183 62.22 49.3145C62.5005 49.6106 62.8983 49.7586 63.4032 49.7586C64.0101 49.7586 64.515 49.6004 64.923 49.2787L65.6829 51.2137Z" fill="white"/>
<path d="M85.1649 41.3855C86.0166 42.2331 86.445 43.5043 86.445 45.1994V51.8468H83.7318V45.5466C83.7318 44.5306 83.5074 43.7698 83.0586 43.2542C82.6098 42.7385 81.9672 42.4832 81.1257 42.4832C80.2128 42.4832 79.4835 42.7845 78.9327 43.3869C78.3819 43.9894 78.1065 44.8471 78.1065 45.9601V51.8468H75.3933V45.5466C75.3933 44.5306 75.1689 43.7698 74.7201 43.2542C74.2713 42.7385 73.6287 42.4832 72.7872 42.4832C71.859 42.4832 71.1297 42.7794 70.584 43.3716C70.0434 43.9638 69.768 44.8267 69.768 45.955V51.8417H67.0548V40.247H69.6354V41.7225C70.0689 41.2017 70.6095 40.8035 71.2623 40.5278C71.9151 40.2521 72.6342 40.1143 73.4298 40.1143C74.2968 40.1143 75.0669 40.2776 75.7401 40.6044C76.4133 40.9311 76.9437 41.4111 77.3364 42.0493C77.8158 41.4417 78.4278 40.9669 79.1826 40.6248C79.9323 40.2827 80.7687 40.1143 81.6765 40.1143C83.1555 40.1143 84.3132 40.538 85.1649 41.3855Z" fill="white"/>
<path d="M100.088 46.9149H90.9942C91.1523 47.7675 91.5705 48.4465 92.2437 48.9469C92.9169 49.4472 93.7533 49.6974 94.7478 49.6974C96.0228 49.6974 97.0683 49.2787 97.8945 48.4363L99.348 50.1109C98.8278 50.7338 98.1699 51.2035 97.3743 51.5252C96.5787 51.8417 95.6811 52.0051 94.6815 52.0051C93.4065 52.0051 92.2896 51.7498 91.3206 51.2444C90.3516 50.7389 89.6019 50.0293 89.0766 49.1256C88.5462 48.2219 88.2861 47.1957 88.2861 46.052C88.2861 44.9237 88.5411 43.9077 89.0562 42.9989C89.5713 42.0952 90.2802 41.3856 91.1931 40.8801C92.106 40.3747 93.1311 40.1194 94.2735 40.1194C95.4006 40.1194 96.4104 40.3696 97.3029 40.8699C98.1903 41.3702 98.889 42.0697 99.3837 42.9785C99.8835 43.8822 100.133 44.9288 100.133 46.1184C100.128 46.2971 100.118 46.5677 100.088 46.9149ZM92.0703 43.0602C91.4685 43.5758 91.1064 44.26 90.9738 45.1126H97.5477C97.4304 44.2753 97.0785 43.5912 96.4869 43.0704C95.8953 42.5496 95.1558 42.2892 94.2735 42.2892C93.4065 42.2892 92.6721 42.5445 92.0703 43.0602Z" fill="white"/>
<path d="M112.103 41.3958C112.985 42.2484 113.429 43.5197 113.429 45.1994V51.8468H110.716V45.5466C110.716 44.5306 110.476 43.7698 110.002 43.2542C109.522 42.7385 108.844 42.4832 107.962 42.4832C106.962 42.4832 106.177 42.7845 105.595 43.3869C105.019 43.9894 104.728 44.8522 104.728 45.9805V51.8468H102.015V40.247H104.596V41.748C105.045 41.212 105.611 40.8086 106.289 40.5329C106.967 40.2572 107.737 40.1194 108.589 40.1194C110.053 40.1143 111.221 40.5431 112.103 41.3958Z" fill="white"/>
<path d="M126.883 40.247V51.8468H124.302V50.3713C123.869 50.8921 123.328 51.2954 122.675 51.5762C122.023 51.857 121.324 52 120.569 52C119.019 52 117.805 51.5711 116.912 50.7083C116.025 49.8454 115.576 48.569 115.576 46.874V40.247H118.289V46.5013C118.289 47.5428 118.524 48.324 118.993 48.8345C119.462 49.3502 120.13 49.6055 121.003 49.6055C121.972 49.6055 122.742 49.3042 123.313 48.7018C123.884 48.0993 124.17 47.2365 124.17 46.1082V40.247H126.883Z" fill="white"/>
<path d="M133.763 46.874L131.743 48.7835V51.8468H129.03V35.7286H131.743V45.4598L137.363 40.247H140.617L135.777 45.1126L141.071 51.8468H137.771L133.763 46.874Z" fill="white"/>
<path d="M153.923 40.247V51.8468H151.342V50.3458C150.894 50.8972 150.343 51.3107 149.685 51.5864C149.027 51.8621 148.298 52 147.502 52C146.375 52 145.365 51.7549 144.473 51.2597C143.585 50.7695 142.887 50.0701 142.392 49.1766C141.892 48.278 141.642 47.2365 141.642 46.0469C141.642 44.8573 141.892 43.8209 142.392 42.9274C142.892 42.039 143.585 41.3447 144.473 40.8546C145.36 40.3644 146.37 40.1143 147.502 40.1143C148.252 40.1143 148.945 40.247 149.573 40.5074C150.2 40.7678 150.746 41.1507 151.21 41.6561V40.2419H153.923V40.247ZM150.277 48.6763C150.929 48.0125 151.251 47.1344 151.251 46.0469C151.251 44.9594 150.924 44.0864 150.277 43.4175C149.624 42.7538 148.803 42.4169 147.803 42.4169C146.803 42.4169 145.982 42.7487 145.34 43.4175C144.697 44.0813 144.376 44.9594 144.376 46.0469C144.376 47.1344 144.697 48.0074 145.34 48.6763C145.982 49.34 146.803 49.6769 147.803 49.6769C148.803 49.6718 149.629 49.34 150.277 48.6763Z" fill="white"/>
<path d="M167.739 40.247V51.8468H165.158V50.3458C164.71 50.8972 164.159 51.3107 163.501 51.5864C162.843 51.8621 162.114 52 161.318 52C160.191 52 159.181 51.7549 158.289 51.2597C157.401 50.7695 156.703 50.0701 156.208 49.1766C155.708 48.278 155.458 47.2365 155.458 46.0469C155.458 44.8573 155.708 43.8209 156.208 42.9274C156.708 42.039 157.401 41.3447 158.289 40.8546C159.176 40.3644 160.186 40.1143 161.318 40.1143C162.068 40.1143 162.761 40.247 163.389 40.5074C164.016 40.7678 164.562 41.1507 165.026 41.6561V40.2419H167.739V40.247ZM164.092 48.6763C164.745 48.0125 165.067 47.1344 165.067 46.0469C165.067 44.9594 164.74 44.0864 164.092 43.4175C163.44 42.7538 162.619 42.4169 161.619 42.4169C160.619 42.4169 159.798 42.7487 159.156 43.4175C158.513 44.0813 158.192 44.9594 158.192 46.0469C158.192 47.1344 158.513 48.0074 159.156 48.6763C159.798 49.34 160.619 49.6769 161.619 49.6769C162.619 49.6718 163.445 49.34 164.092 48.6763Z" fill="white"/>
<path d="M178.046 40.1143V42.6977C177.817 42.6517 176.149 42.6313 175.965 42.6313C174.91 42.6313 174.083 42.9376 173.492 43.5554C172.9 44.1732 172.604 45.0564 172.604 46.2154V51.8417H169.891V40.247H172.472V41.942C173.252 40.7218 174.67 40.1143 178.046 40.1143Z" fill="white"/>
<path d="M184.64 51.2137C184.324 51.4741 183.937 51.6681 183.478 51.8009C183.024 51.9336 182.539 51.9949 182.034 51.9949C180.759 51.9949 179.78 51.663 179.081 50.9942C178.388 50.3305 178.041 49.3604 178.041 48.084V37.684H180.754V40.3338H183.855V42.5037H180.754V48.0228C180.754 48.5895 180.897 49.0183 181.178 49.3145C181.458 49.6106 181.856 49.7586 182.361 49.7586C182.968 49.7586 183.473 49.6004 183.881 49.2787L184.64 51.2137Z" fill="white"/>
<path d="M199.532 41.6561C200.359 42.4832 200.772 43.6677 200.772 45.2198V51.8468H199.685V45.3066C199.685 44.0302 199.364 43.0602 198.721 42.3964C198.079 41.7327 197.176 41.3958 196.019 41.3958C194.687 41.3958 193.637 41.794 192.872 42.5905C192.107 43.3869 191.724 44.4591 191.724 45.8069V51.8468H190.638V40.5074H191.678V42.9632C192.071 42.1667 192.652 41.5438 193.428 41.0945C194.203 40.6452 195.116 40.4206 196.171 40.4206C197.584 40.4206 198.706 40.8341 199.532 41.6561Z" fill="white"/>
<path d="M202.914 35.7286H204V51.8468H202.914V35.7286Z" fill="white"/>
<path d="M187.42 51.9949C188.087 51.9949 188.629 51.4531 188.629 50.7849C188.629 50.1166 188.087 49.5749 187.42 49.5749C186.752 49.5749 186.211 50.1166 186.211 50.7849C186.211 51.4531 186.752 51.9949 187.42 51.9949Z" fill="white"/>
</svg>