<svg width="49" height="49" viewBox="0 0 49 49" fill="none" xmlns="http://www.w3.org/2000/svg">
<path d="M37.2195 36.5L38.8595 43.98C34.9295 46.82 30.0895 48.49 24.8695 48.49C21.4695 48.49 18.2295 47.78 15.2895 46.49C14.8595 46.31 14.4295 46.11 14.0095 45.88C14.5895 42.82 15.4595 40.09 16.0295 38.49C13.9995 36.33 12.7895 33.39 12.9195 30.16C13.0695 26.27 15.2295 22.84 18.3695 20.88L18.3895 20.02C18.3895 20.02 18.2995 16.85 22.8595 15.86C21.3895 15.04 20.3895 13.47 20.3895 11.66C20.3895 9.56 21.7195 7.79 23.5895 7.13L23.5995 7.12C23.8095 6.96 26.9495 4.56 29.8095 1C31.2895 1.31 32.7195 1.76 34.0895 2.33C34.1795 2.36 33.82 2.52 33.9 2.56C37.46 4.08 40.58 6.45 43 9.41C43.03 9.45 43.4995 9.37 43.5295 9.41C42.1995 19.87 38.5495 23.94 38.5495 23.94C38.5495 23.94 38.0695 23.73 37.2895 23.4L37.2695 23.18C37.2695 23.18 37.2495 23.24 37.2195 23.37C37.0495 24.06 36.5495 26.57 36.8295 31.02C36.8295 31.02 36.5295 32.58 37.2195 36.5Z" fill="#FFD699"/>
<path d="M35.1195 16.2601C35.0595 16.2601 34.9895 16.2501 34.9295 16.2201C34.6795 16.1201 34.5495 15.8301 34.6595 15.5701C36.0595 12.1101 36.7595 8.83008 36.7595 5.82008C36.7595 5.28008 36.7395 4.74008 36.6895 4.21008C36.6695 3.94008 36.8695 3.70008 37.1395 3.67008C37.3895 3.65008 37.6495 3.85008 37.6795 4.12008C37.7295 4.67008 37.7495 5.24008 37.7495 5.81008C37.7495 8.94008 37.0195 12.3501 35.5695 15.9301C35.4995 16.1401 35.3095 16.2601 35.1195 16.2601Z" fill="#403B3B"/>
<path d="M27.6195 28.92C27.6195 29.62 27.3795 30.26 26.9695 30.76C26.9595 30.77 26.9595 30.78 26.9495 30.78L26.5595 31.17L22.4995 35.23L18.4395 31.17L18.0495 30.78C18.0295 30.75 18.0095 30.73 17.9795 30.7C17.5995 30.21 17.3695 29.59 17.3695 28.92C17.3695 27.3 18.6795 25.99 20.2995 25.99C21.1695 25.99 21.9595 26.37 22.4895 26.98C23.0295 26.37 23.8095 25.99 24.6795 25.99C26.3095 25.99 27.6195 27.3 27.6195 28.92Z" fill="#E84B31"/>
<path d="M22.4995 35.73C22.3695 35.73 22.2395 35.68 22.1495 35.58L17.5895 31C17.1295 30.4 16.8795 29.68 16.8795 28.92C16.8795 27.03 18.4195 25.5 20.2995 25.5C21.1095 25.5 21.8795 25.79 22.4995 26.3C23.1095 25.79 23.8895 25.5 24.6995 25.5C26.5895 25.5 28.1195 27.04 28.1195 28.92C28.1195 29.7 27.8495 30.47 27.3595 31.07L26.9195 31.52L22.8595 35.58C22.7495 35.68 22.6295 35.73 22.4995 35.73ZM20.2995 26.49C18.9595 26.49 17.8695 27.58 17.8695 28.92C17.8695 29.46 18.0395 29.97 18.3695 30.4L18.7795 30.82L22.4895 34.53L26.5895 30.43C26.9295 30.01 27.1195 29.48 27.1195 28.92C27.1195 27.58 26.0295 26.49 24.6895 26.49C23.9895 26.49 23.3295 26.79 22.8695 27.31C22.6795 27.52 22.3195 27.52 22.1295 27.31C21.6595 26.79 20.9995 26.49 20.2995 26.49Z" fill="#403B3B"/>
<path d="M22.46 16.6038C22.38 16.6038 22.3 16.5838 22.22 16.5438C20.53 15.6038 19.49 13.8338 19.49 11.9038C19.49 8.98378 21.87 6.60378 24.79 6.60378C24.89 6.61378 26.9 6.93378 28.89 6.93378C31.77 6.93378 32.39 6.29378 32.53 6.02378C33.45 4.18378 33.48 3.25378 33.48 3.24378C33.49 2.97378 33.71 2.75378 33.98 2.75378C34.25 2.75378 34.47 2.97378 34.47 3.24378C34.47 3.35378 34.44 4.42378 33.42 6.46378C32.93 7.44378 31.45 7.92378 28.89 7.92378C26.82 7.92378 24.8 7.60378 24.71 7.59378C22.41 7.60378 20.48 9.53378 20.48 11.9138C20.48 13.4838 21.33 14.9238 22.7 15.6838C22.94 15.8138 23.03 16.1138 22.89 16.3538C22.8 16.5138 22.63 16.6038 22.46 16.6038Z" fill="#403B3B"/>
<path d="M23.1799 7.87377C22.9999 7.87377 22.8199 7.77377 22.7399 7.60377C22.6199 7.35377 22.7199 7.06377 22.9599 6.93377C22.9899 6.91377 26.1799 5.28377 29.1899 1.20377C29.3499 0.98377 29.6699 0.93377 29.8799 1.09377C30.0999 1.25377 30.1499 1.56377 29.9899 1.78377C26.8299 6.07377 23.5399 7.74377 23.3999 7.81377C23.3299 7.85377 23.2599 7.87377 23.1799 7.87377Z" fill="#403B3B"/>
<path d="M17.9699 21.3938C17.9499 21.3938 17.9299 21.3938 17.9099 21.3938C17.6399 21.3538 17.4499 21.1138 17.4799 20.8338C17.9699 17.0638 21.1499 15.1438 26.9199 15.1438C30.1499 15.1438 33.4699 15.7438 35.4499 16.1038L36.0899 16.2238C36.3599 16.2738 36.5399 16.5238 36.4899 16.7938C36.4399 17.0638 36.1799 17.2438 35.9199 17.1938L35.2699 17.0738C33.3199 16.7238 30.0599 16.1338 26.9199 16.1338C21.7299 16.1338 18.8799 17.7538 18.4699 20.9538C18.4299 21.2138 18.2199 21.3938 17.9699 21.3938Z" fill="#403B3B"/>
<path d="M23.98 42.8438C19.35 42.8438 15.08 40.1338 13.12 35.9238C13 35.6738 13.11 35.3838 13.36 35.2638C13.61 35.1438 13.9 35.2538 14.02 35.5038C15.82 39.3538 19.73 41.8438 23.98 41.8438C24.96 41.8438 25.94 41.7138 26.88 41.4538C27.14 41.3838 27.42 41.5338 27.49 41.8038C27.56 42.0638 27.41 42.3438 27.14 42.4138C26.12 42.7038 25.05 42.8438 23.98 42.8438ZM12.67 33.3638C12.43 33.3638 12.22 33.1938 12.18 32.9538C12.06 32.2738 12 31.5638 12 30.8638C12 30.7038 12 30.5438 12.01 30.3838C12.26 24.0738 17.6 18.9138 23.92 18.8838C23.93 18.8838 23.93 18.8838 23.94 18.8838C24.8 18.8838 25.6 18.9638 26.39 19.1238C28.85 19.6938 36.41 22.9038 38.04 23.6038C38.83 22.7838 41.69 19.2738 42.77 10.3238C42.8 10.0538 43.05 9.85377 43.32 9.89377C43.59 9.92377 43.79 10.1738 43.75 10.4438C42.45 21.2838 38.61 24.4438 38.45 24.5738C38.31 24.6838 38.11 24.7138 37.95 24.6438C37.86 24.6038 28.79 20.7038 26.18 20.0938C25.47 19.9538 24.72 19.8738 23.99 19.8738C18.14 19.9038 13.24 24.6338 13.01 30.4238C13 30.5738 13 30.7138 13 30.8638C13 31.5038 13.06 32.1538 13.17 32.7838C13.22 33.0538 13.04 33.3138 12.77 33.3538C12.73 33.3638 12.7 33.3638 12.67 33.3638Z" fill="#403B3B"/>
<path d="M13.5499 46.0838C13.5199 46.0838 13.4899 46.0838 13.4599 46.0738C13.1899 46.0238 13.0099 45.7638 13.0699 45.4938C13.5399 43.0338 14.2199 40.6638 15.0799 38.4438C15.1799 38.1838 15.4699 38.0638 15.7199 38.1638C15.9799 38.2638 16.0999 38.5538 15.9999 38.8038C15.1599 40.9638 14.4999 43.2838 14.0399 45.6838C13.9899 45.9138 13.7799 46.0838 13.5499 46.0838Z" fill="#403B3B"/>
<path d="M7.14 41.55C7 41.55 6.87 41.49 6.78 41.4C5.11 39.66 3.72 37.69 2.64 35.56C2.52 35.32 2.61 35.02 2.86 34.89C3.1 34.77 3.4 34.86 3.53 35.11C4.49 37.01 5.71 38.76 7.16 40.34L40.34 7.15C36 3.18 30.39 0.99 24.48 0.99C18.21 0.99 12.31 3.44 7.87 7.88C3.43 12.32 0.99 18.22 0.99 24.49C0.99 27.2 1.45 29.87 2.36 32.42C2.45 32.68 2.32 32.96 2.06 33.05C1.81 33.14 1.52 33.01 1.43 32.75C0.48 30.09 0 27.31 0 24.49C0 17.95 2.55 11.81 7.18 7.18C11.81 2.55 17.95 0 24.48 0C30.81 0 36.81 2.41 41.39 6.78C41.49 6.87 41.54 7 41.54 7.13C41.54 7.26 41.49 7.39 41.39 7.49L7.49 41.41C7.4 41.5 7.27 41.55 7.14 41.55Z" fill="#403B3B"/>
<path d="M24.49 48.99C19.1 48.99 13.99 47.28 9.71004 44.03C9.60004 43.94 9.52004 43.81 9.51004 43.67C9.50004 43.53 9.55005 43.39 9.65005 43.29L43.29 9.66996C43.39 9.56996 43.53 9.50996 43.67 9.52996C43.81 9.53996 43.94 9.60995 44.03 9.72995C46.3 12.72 47.87 16.26 48.56 19.96C48.61 20.23 48.43 20.49 48.16 20.54C47.89 20.59 47.63 20.41 47.58 20.14C46.95 16.78 45.56 13.56 43.57 10.78L10.77 43.58C14.78 46.47 19.51 48 24.49 48C30.76 48 36.67 45.55 41.11 41.12C45.55 36.69 48 30.78 48 24.5C48 24.02 47.98 23.53 47.96 23.05C47.94 22.78 48.15 22.54 48.42 22.52C48.71 22.5 48.93 22.71 48.95 22.98C48.98 23.48 49 23.99 49 24.49C49 31.03 46.45 37.18 41.82 41.81C37.19 46.44 31.03 48.99 24.49 48.99Z" fill="#403B3B"/>
<path d="M38.7 43.6864C38.45 43.6864 38.23 43.4964 38.21 43.2364C38.01 40.9964 37.57 38.7964 37.14 36.6764C36.58 33.8964 36 31.0264 36 28.1064C36 26.4364 36.18 24.8964 36.56 23.3764C36.63 23.1064 36.89 22.9464 37.16 23.0164C37.43 23.0864 37.59 23.3464 37.52 23.6164C37.16 25.0564 36.99 26.5264 36.99 28.1164C36.99 30.9364 37.53 33.6364 38.11 36.4864C38.54 38.6364 38.99 40.8564 39.19 43.1564C39.21 43.4264 39.01 43.6664 38.74 43.6964C38.73 43.6864 38.72 43.6864 38.7 43.6864Z" fill="#403B3B"/>
<rect x="7.276" y="41.4844" width="48.3781" height="2.96841" transform="rotate(-45 7.276 41.4844)" fill="#403B3B"/>
</svg>
