<svg width="25" height="26" viewBox="0 0 25 26" fill="none" xmlns="http://www.w3.org/2000/svg">
<g id="allergies" clip-path="url(#clip0_1259_1072)">
<path id="Vector" d="M21.8749 5.96875C21.0156 5.96875 20.3124 6.67188 20.3124 7.53125V11.0469C20.3124 11.2617 20.1367 11.4375 19.9218 11.4375H19.1406C18.9257 11.4375 18.7499 11.2617 18.7499 11.0469V3.625C18.7499 2.76562 18.0468 2.0625 17.1874 2.0625C16.3281 2.0625 15.6249 2.76562 15.6249 3.625V11.0469C15.6249 11.2617 15.4492 11.4375 15.2343 11.4375H14.4531C14.2382 11.4375 14.0624 11.2617 14.0624 11.0469V2.0625C14.0624 1.20312 13.3593 0.5 12.4999 0.5C11.6406 0.5 10.9374 1.20312 10.9374 2.0625V11.0469C10.9374 11.2617 10.7617 11.4375 10.5468 11.4375H9.76556C9.55072 11.4375 9.37494 11.2617 9.37494 11.0469V3.625C9.37494 2.76562 8.67181 2.0625 7.81244 2.0625C6.95306 2.0625 6.24994 2.76562 6.24994 3.625V15.3926L5.0976 13.8057C4.46283 12.9316 3.24213 12.7412 2.3681 13.376C1.49408 14.0107 1.30365 15.2314 1.93842 16.1055L8.07123 24.5381C8.51068 25.1436 9.21869 25.5049 9.96576 25.5049H19.6142C20.7031 25.5049 21.6454 24.7578 21.8945 23.6982L23.1884 18.1953C23.3447 17.5264 23.4277 16.8135 23.4374 16.1299V7.53125C23.4374 6.67188 22.7343 5.96875 21.8749 5.96875ZM10.1562 20.8125C9.7265 20.8125 9.37494 20.4609 9.37494 20.0312C9.37494 19.6016 9.7265 19.25 10.1562 19.25C10.5859 19.25 10.9374 19.6016 10.9374 20.0312C10.9374 20.4609 10.5859 20.8125 10.1562 20.8125ZM10.1562 16.125C9.7265 16.125 9.37494 15.7734 9.37494 15.3438C9.37494 14.9141 9.7265 14.5625 10.1562 14.5625C10.5859 14.5625 10.9374 14.9141 10.9374 15.3438C10.9374 15.7734 10.5859 16.125 10.1562 16.125ZM13.2812 22.375C12.8515 22.375 12.4999 22.0234 12.4999 21.5938C12.4999 21.1641 12.8515 20.8125 13.2812 20.8125C13.7109 20.8125 14.0624 21.1641 14.0624 21.5938C14.0624 22.0234 13.7109 22.375 13.2812 22.375ZM13.2812 17.6875C12.8515 17.6875 12.4999 17.3359 12.4999 16.9062C12.4999 16.4766 12.8515 16.125 13.2812 16.125C13.7109 16.125 14.0624 16.4766 14.0624 16.9062C14.0624 17.3359 13.7109 17.6875 13.2812 17.6875ZM16.4062 19.25C15.9765 19.25 15.6249 18.8984 15.6249 18.4688C15.6249 18.0391 15.9765 17.6875 16.4062 17.6875C16.8359 17.6875 17.1874 18.0391 17.1874 18.4688C17.1874 18.8984 16.8359 19.25 16.4062 19.25ZM17.9687 22.375C17.539 22.375 17.1874 22.0234 17.1874 21.5938C17.1874 21.1641 17.539 20.8125 17.9687 20.8125C18.3984 20.8125 18.7499 21.1641 18.7499 21.5938C18.7499 22.0234 18.3984 22.375 17.9687 22.375ZM19.5312 16.125C19.1015 16.125 18.7499 15.7734 18.7499 15.3438C18.7499 14.9141 19.1015 14.5625 19.5312 14.5625C19.9609 14.5625 20.3124 14.9141 20.3124 15.3438C20.3124 15.7734 19.9609 16.125 19.5312 16.125Z" fill="#403B3B"/>
</g>
<defs>
<clipPath id="clip0_1259_1072">
<rect width="25" height="25" fill="white" transform="translate(0 0.5)"/>
</clipPath>
</defs>
</svg>
