<svg width="37" height="30" viewBox="0 0 37 30" fill="none" xmlns="http://www.w3.org/2000/svg">
<path d="M19.7402 20.9828H29.3805C29.742 20.9828 29.9828 20.7287 29.9828 20.3472V14.6242C29.9828 14.2426 29.742 13.9885 29.3805 13.9885H19.7402C19.3787 13.9885 19.1379 14.2426 19.1379 14.6242V20.3472C19.1372 20.7287 19.3787 20.9828 19.7402 20.9828ZM20.3425 15.2598H28.7782V19.7108H20.3425V15.2598Z" fill="#403B3B"/>
<path d="M3.18943 12.7168H8.29333C8.67611 12.7168 8.93104 12.4626 8.93104 12.0809C8.93104 11.6993 8.67611 11.4451 8.29333 11.4451H3.18943C2.80666 11.4451 2.55173 11.6993 2.55173 12.0809C2.55173 12.4626 2.80666 12.7168 3.18943 12.7168Z" fill="#403B3B"/>
<path d="M10.2067 12.7168H15.3106C15.6933 12.7168 15.9483 12.4626 15.9483 12.0809C15.9483 11.6993 15.6933 11.4451 15.3106 11.4451H10.2067C9.8239 11.4451 9.56897 11.6993 9.56897 12.0809C9.56897 12.4626 9.8239 12.7168 10.2067 12.7168Z" fill="#403B3B"/>
<path d="M3.14694 15.2602H10.8875C11.2448 15.2602 11.4828 15.006 11.4828 14.6244C11.4828 14.2427 11.2448 13.9885 10.8875 13.9885H3.14694C2.78967 13.9885 2.55173 14.2427 2.55173 14.6244C2.55173 15.006 2.78967 15.2602 3.14694 15.2602Z" fill="#403B3B"/>
<path d="M15.3105 13.9885H13.3964C13.0136 13.9885 12.7586 14.2427 12.7586 14.6244C12.7586 15.006 13.0136 15.2602 13.3964 15.2602H15.3105C15.6933 15.2602 15.9483 15.006 15.9483 14.6244C15.9483 14.2427 15.6933 13.9885 15.3105 13.9885Z" fill="#403B3B"/>
<path d="M36.4337 6.46465C36.0024 5.91574 35.4476 5.61056 34.7692 5.54981L33.2897 5.37255V3.65937V2.43934C33.2897 1.09781 32.18 0 30.824 0H2.46566C1.10966 0 0 1.09781 0 2.43934V3.65937V8.53877V21.9562C0 23.0576 0.74844 23.9946 1.76635 24.2948C1.73528 25.5284 2.67878 26.5998 3.9452 26.7134L32.4264 29.8846C32.4878 29.8846 32.6113 29.8846 32.6727 29.8846C33.9059 29.8846 35.0156 28.9698 35.1384 27.8112L36.9885 8.23358C37.0499 7.62392 36.865 6.9528 36.4337 6.46465ZM1.23319 4.26903H32.0572V5.85499V7.9284H1.23319V4.26903ZM2.46566 1.22003H30.8233C31.5016 1.22003 32.0565 1.76893 32.0565 2.44006V3.04971H1.23319V2.44006C1.23319 1.76893 1.78802 1.22003 2.46566 1.22003ZM1.23319 21.9562V9.14842H32.0572V21.9562C32.0572 22.6273 31.5024 23.1762 30.824 23.1762H2.52779H2.46638C1.78802 23.1762 1.23319 22.6273 1.23319 21.9562ZM35.7553 7.98986L33.9059 27.5675C33.8445 28.2386 33.2275 28.7261 32.5499 28.6653L4.13014 25.4934C3.51391 25.4326 3.08189 24.9445 3.02049 24.3956H30.8233C32.1793 24.3956 33.2889 23.2977 33.2889 21.9562V8.53877V6.52611L34.7071 6.64833C35.0156 6.64833 35.3233 6.8313 35.5083 7.07502C35.6939 7.31874 35.8175 7.68468 35.7553 7.98986Z" fill="#403B3B"/>
</svg>
