<svg width="60" height="60" viewBox="0 0 60 60" fill="none" xmlns="http://www.w3.org/2000/svg">
<circle cx="30" cy="30" r="29.5" fill="white" stroke="#E5E5E5"/>
<path d="M35.068 22.3333C34.0194 21.9319 33.8447 20.9686 33.7573 20.1658L32.7961 10.3717C32.9709 10.3717 33.0583 10.2914 33.233 10.1309C33.3428 9.99018 33.4037 9.82228 33.4078 9.64921L33.233 7H26.8544L26.767 9.64921C26.6796 9.80977 26.767 9.97033 26.9417 10.1309C27.1165 10.2914 27.1165 10.2914 27.2039 10.2914L26.2427 20.1658C26.1553 20.9686 25.9806 21.9319 24.932 22.3333C23.7651 22.8101 22.7731 23.5866 22.0755 24.5694C21.3779 25.5522 21.0044 26.6993 21 27.8726V50.5916C21 51.2091 21.267 51.8012 21.7422 52.2378C22.2174 52.6744 22.8619 52.9197 23.534 52.9197V53H36.466C37.1381 53 37.7826 52.7547 38.2578 52.3181C38.733 51.8815 39 51.2894 39 50.6719V27.8726C38.9956 26.6993 38.6221 25.5522 37.9245 24.5694C37.2269 23.5866 36.2349 22.8101 35.068 22.3333Z" fill="#665148"/>
<path d="M39 40H21V50H39V40Z" fill="#83CD35"/>
<path d="M30 42C28.6804 41.9803 27.4207 41.4737 26.4875 40.5876C25.5542 39.7015 25.0208 38.5053 25 37.2523V29.7477C25.0208 28.4947 25.5542 27.2985 26.4875 26.4124C27.4207 25.5263 28.6804 25.0197 30 25C31.3241 25.006 32.5922 25.5082 33.5285 26.3973C34.4648 27.2863 34.9936 28.4904 35 29.7477V37.2523C34.9936 38.5096 34.4648 39.7137 33.5285 40.6027C32.5922 41.4918 31.3241 41.994 30 42ZM30 26.1486C28.9779 26.1625 28.0018 26.5542 27.2789 27.2405C26.5561 27.9269 26.1436 28.8538 26.129 29.8243V37.3288C26.129 38.3037 26.5369 39.2386 27.2628 39.9279C27.9888 40.6172 28.9734 41.0045 30 41.0045C31.0266 41.0045 32.0112 40.6172 32.7372 39.9279C33.4631 39.2386 33.871 38.3037 33.871 37.3288V29.7477C33.8398 28.7894 33.4195 27.8796 32.698 27.2088C31.9765 26.5379 31.0097 26.1581 30 26.1486Z" fill="#665148"/>
<path d="M30 25C28.6776 25.0107 27.4127 25.4877 26.4776 26.3284C25.5425 27.1691 25.0119 28.3063 25 29.4952V37.5048C25 38.697 25.5268 39.8404 26.4645 40.6834C27.4021 41.5264 28.6739 42 30 42C31.3261 42 32.5978 41.5264 33.5355 40.6834C34.4732 39.8404 35 38.697 35 37.5048V29.4952C35.0024 28.9043 34.8747 28.3188 34.6243 27.7724C34.3738 27.2261 34.0056 26.7297 33.5409 26.3118C33.0761 25.894 32.5239 25.5629 31.9162 25.3378C31.3085 25.1127 30.6573 24.9979 30 25Z" fill="#83CD35"/>
</svg>
