<svg width="60" height="60" viewBox="0 0 60 60" fill="none" xmlns="http://www.w3.org/2000/svg">
<circle cx="30" cy="30" r="29.5" fill="white" stroke="#E5E5E5"/>
<path d="M30.0192 16.9849C31.452 16.9908 32.8778 17.186 34.2596 17.5655V10.3123L30.0192 14.5585L25.7788 10.3123V17.5655C27.1606 17.186 28.5864 16.9908 30.0192 16.9849Z" fill="#83CD35"/>
<path d="M30.0192 49.3947C39.1 49.3947 46.4615 42.0231 46.4615 32.9298C46.4615 23.8364 39.1 16.4648 30.0192 16.4648C20.9384 16.4648 13.5769 23.8364 13.5769 32.9298C13.5769 42.0231 20.9384 49.3947 30.0192 49.3947Z" fill="#F2EBE6"/>
<path d="M30.0192 16.2916C26.7074 16.283 23.4673 17.2581 20.7089 19.0935C17.9504 20.9288 15.7974 23.5421 14.5221 26.6028C13.2468 29.6635 12.9065 33.0342 13.5442 36.2886C14.1819 39.5429 15.769 42.5349 18.1048 44.886C20.4406 47.2371 23.4202 48.8418 26.6668 49.4972C29.9133 50.1527 33.2811 49.8293 36.3441 48.5681C39.4072 47.3069 42.0279 45.1644 43.875 42.4117C45.7221 39.6589 46.7126 36.4195 46.7212 33.1031C46.7167 28.6608 44.9583 24.4004 41.8295 21.2511C38.7008 18.1018 34.4554 16.319 30.0192 16.2916ZM26.9039 18.2847C24.9135 21.0577 23.6154 26.5171 23.6154 33.1031C23.6154 39.6891 24.9135 45.1485 26.9039 47.9215C22.4039 46.0151 19.2019 40.1224 19.2019 33.1031C19.2019 26.0839 22.4039 20.1911 26.9039 18.2847ZM24.8269 33.1031C24.8269 24.0041 27.5096 17.5914 30.0192 17.5914C32.5289 17.5914 35.125 23.9174 35.125 33.1031C35.125 42.2888 32.4423 48.5282 30.0192 48.5282C27.5962 48.5282 24.8269 42.2022 24.8269 33.1031ZM33.1346 47.9215C35.125 45.1485 36.4231 39.6891 36.4231 33.1031C36.4231 26.5171 35.125 21.0577 33.1346 18.2847C37.6346 20.1911 40.8366 26.0839 40.8366 33.1031C40.8366 40.1224 37.6346 46.0151 33.1346 47.9215ZM14.6154 33.1031C14.6273 30.2256 15.4339 27.4074 16.9459 24.9603C18.4579 22.5133 20.6165 20.5328 23.1827 19.2379C19.9808 22.2709 17.9039 27.2971 17.9039 33.1031C17.9039 38.9092 19.9808 43.9353 23.1827 46.9683C20.6032 45.6901 18.4331 43.7135 16.9188 41.2627C15.4044 38.8119 14.6065 35.9851 14.6154 33.1031ZM36.8558 46.9683C40.0577 43.9353 42.1346 38.9092 42.1346 33.1031C42.1346 27.2971 40.0577 22.2709 36.8558 19.2379C39.4294 20.5234 41.5944 22.5018 43.1075 24.9509C44.6207 27.4001 45.4223 30.2231 45.4223 33.1031C45.4223 35.9831 44.6207 38.8061 43.1075 41.2553C41.5944 43.7044 39.4294 45.6828 36.8558 46.9683Z" fill="#9999FF"/>
</svg>
