<svg width="60" height="60" viewBox="0 0 60 60" fill="none" xmlns="http://www.w3.org/2000/svg">
<circle cx="30" cy="30" r="29.5" fill="white" stroke="#E5E5E5"/>
<path d="M47.91 29.2402C47.91 26.9902 48.74 24.9402 50.11 23.3602C49.72 23.2802 49.32 23.2402 48.91 23.2402C45.6 23.2402 42.91 25.9302 42.91 29.2402C42.91 32.5502 45.6 35.2402 48.91 35.2402C49.32 35.2402 49.72 35.2002 50.11 35.1202C48.74 33.5402 47.91 31.4902 47.91 29.2402Z" fill="#9999FF"/>
<path d="M31.91 21.2402C31.91 18.9902 32.74 16.9402 34.11 15.3602C33.72 15.2802 33.32 15.2402 32.91 15.2402C29.6 15.2402 26.91 17.9302 26.91 21.2402C26.91 24.5502 29.6 27.2402 32.91 27.2402C33.32 27.2402 33.72 27.2002 34.11 27.1202C32.74 25.5402 31.91 23.4902 31.91 21.2402Z" fill="#9999FF"/>
<path d="M31.91 38.2402C31.91 35.9902 32.74 33.9402 34.11 32.3602C33.72 32.2802 33.32 32.2402 32.91 32.2402C29.6 32.2402 26.91 34.9302 26.91 38.2402C26.91 41.5502 29.6 44.2402 32.91 44.2402C33.32 44.2402 33.72 44.2002 34.11 44.1202C32.74 42.5402 31.91 40.4902 31.91 38.2402Z" fill="#9999FF"/>
<path d="M22 29.2402C22 25.9302 21.21 22.9302 20.84 21.6802C16.7 23.3202 13.36 25.9802 11.51 27.6702C10.58 28.5102 10.58 29.9602 11.51 30.8102C13.36 32.5002 16.7 35.1602 20.84 36.8002C21.21 35.5502 22 32.5402 22 29.2402Z" fill="#9999FF"/>
<path d="M27.91 20.2402C26.11 20.2402 24.36 20.5402 22.72 21.0202C23.12 22.3302 23.99 25.5802 23.99 29.2402C23.99 32.9002 23.12 36.1402 22.72 37.4602C24.36 37.9502 26.1 38.2402 27.91 38.2402C37.85 38.2402 45.91 29.2402 45.91 29.2402C45.91 29.2402 37.85 20.2402 27.91 20.2402Z" fill="#BAE4E2"/>
<path d="M17.91 27.2402C17.91 27.7925 17.4623 28.2402 16.91 28.2402C16.3577 28.2402 15.91 27.7925 15.91 27.2402C15.91 26.6879 16.3577 26.2402 16.91 26.2402C17.4623 26.2402 17.91 26.6879 17.91 27.2402Z" fill="#2C2C2C" stroke="#2C2C2C"/>
</svg>
