<svg width="60" height="60" viewBox="0 0 60 60" fill="none" xmlns="http://www.w3.org/2000/svg">
<circle cx="30" cy="30" r="29.5" fill="white" stroke="#E5E5E5"/>
<path d="M24.04 18C23.47 17.57 22.54 16.81 22.54 15.5C22.54 15.36 22.55 15.22 22.57 15.09C22.55 15.08 22.52 15.08 22.5 15.08C21.83 15.08 21.42 16.33 20.84 16.57C20.72 16.62 20.59 16.64 20.44 16.64C20.05 16.64 19.57 16.51 19.18 16.51C18.95 16.51 18.75 16.56 18.61 16.69C18.16 17.15 18.74 18.32 18.49 18.92C18.25 19.5 17 19.91 17 20.58C17 21.25 18.25 21.66 18.49 22.24C18.74 22.84 18.16 24.01 18.61 24.47C18.75 24.6 18.95 24.65 19.18 24.65C19.57 24.65 20.05 24.52 20.44 24.52C20.59 24.52 20.72 24.54 20.84 24.59C21.42 24.83 21.83 26.08 22.5 26.08C23.11 26.08 23.52 25.01 24.03 24.67C24.03 24.62 24.03 24.57 24.04 24.53C23.47 24.1 22.54 23.34 22.54 22.04C22.54 20.73 23.47 19.97 24.04 19.54C24.03 19.48 24.02 19.41 24.02 19.34C23.98 19.02 23.95 18.61 24.02 18.19C24.02 18.12 24.03 18.06 24.04 18Z" fill="#84DD5A"/>
<path d="M34.75 14.54C34.45 14.32 34.16 14.09 34.05 13.84C33.8 13.24 34.38 12.07 33.92 11.61C33.79 11.48 33.59 11.44 33.36 11.44C32.97 11.44 32.49 11.56 32.1 11.56C31.95 11.56 31.81 11.54 31.7 11.49C31.12 11.25 30.7 10 30.04 10C29.37 10 28.96 11.25 28.38 11.49C28.26 11.54 28.13 11.56 27.98 11.56C27.59 11.56 27.11 11.44 26.72 11.44C26.49 11.44 26.29 11.48 26.15 11.61C25.7 12.07 26.28 13.24 26.03 13.84C25.92 14.09 25.63 14.32 25.33 14.54C24.94 14.83 24.54 15.12 24.54 15.5C24.54 15.84 24.86 16.11 25.21 16.37C25.57 16.15 26.06 15.97 26.72 15.97C27.02 15.97 27.29 16.01 27.54 16.04C27.66 15.88 27.81 15.69 27.99 15.5C28.44 15.02 29.1 14.54 30.04 14.54C30.97 14.54 31.62 15.01 32.07 15.48C32.26 15.68 32.41 15.87 32.53 16.04C32.78 16.01 33.06 15.97 33.36 15.97C34.01 15.97 34.51 16.15 34.87 16.37C35.21 16.11 35.53 15.84 35.53 15.5C35.53 15.12 35.14 14.83 34.75 14.54Z" fill="#84DD5A"/>
<path d="M34.54 23.16C34.98 22.81 35.53 22.48 35.53 22.04C35.53 21.7 35.21 21.43 34.87 21.17C34.76 21.09 34.65 21.01 34.54 20.92C34.32 20.75 34.13 20.57 34.05 20.38C33.97 20.18 33.98 19.92 34 19.64C34.03 19.44 34.06 19.23 34.08 19.03C34.1 18.96 34.1 18.89 34.1 18.81V18.77C34.11 18.67 34.1 18.59 34.08 18.51C34.08 18.5 34.08 18.5 34.08 18.5C34.06 18.36 34.01 18.24 33.92 18.15C33.83 18.05 33.7 18 33.55 17.98C33.49 17.97 33.43 17.97 33.36 17.97C32.97 17.97 32.49 18.09 32.1 18.09C31.95 18.09 31.81 18.08 31.7 18.03C31.64 18 31.58 17.97 31.52 17.92C31.03 17.54 30.63 16.54 30.04 16.54C29.42 16.54 29.02 17.61 28.51 17.96C28.47 17.99 28.42 18.01 28.38 18.03C28.26 18.08 28.13 18.09 27.98 18.09C27.59 18.09 27.11 17.97 26.72 17.97C26.64 17.97 26.56 17.97 26.49 17.99C26.36 18.01 26.24 18.06 26.15 18.15C26.08 18.21 26.04 18.3 26.01 18.39C26 18.43 25.99 18.47 25.99 18.51C25.97 18.59 25.97 18.67 25.97 18.77C25.97 18.86 25.97 18.95 25.99 19.03C26 19.06 26 19.1 26.01 19.14C26.03 19.3 26.05 19.47 26.07 19.63C26.1 19.91 26.11 20.18 26.03 20.38C25.95 20.57 25.76 20.75 25.54 20.92C25.43 21.01 25.32 21.09 25.21 21.17C24.86 21.43 24.54 21.7 24.54 22.04C24.54 22.48 25.1 22.81 25.54 23.16C25.76 23.33 25.95 23.51 26.03 23.7C26.13 23.94 26.1 24.28 26.05 24.63C25.98 25.13 25.88 25.65 26.15 25.92C26.29 26.06 26.49 26.1 26.72 26.1C26.97 26.1 27.26 26.05 27.54 26.02L27.67 26C27.78 25.99 27.88 25.98 27.98 25.98C28.13 25.98 28.26 26 28.38 26.04C28.96 26.28 29.37 27.53 30.04 27.53C30.7 27.53 31.12 26.28 31.7 26.04C31.81 26 31.95 25.98 32.1 25.98C32.18 25.98 32.27 25.99 32.37 26L32.54 26.02C32.82 26.05 33.11 26.1 33.36 26.1C33.59 26.1 33.79 26.06 33.92 25.92C34.19 25.65 34.1 25.14 34.03 24.64C33.98 24.29 33.95 23.95 34.05 23.7C34.13 23.51 34.32 23.33 34.54 23.16Z" fill="#4FCE13"/>
<path d="M32.54 28.03H32.53C32.11 28.6 31.35 29.53 30.04 29.53C28.73 29.53 27.97 28.6 27.54 28.03V50.27H32.54V28.03Z" fill="#4FCE13"/>
<path d="M36.03 24.53C36.04 24.58 36.04 24.64 36.05 24.69C36.54 25.07 36.94 26.08 37.54 26.08C38.2 26.08 38.62 24.83 39.2 24.59C39.31 24.54 39.45 24.52 39.6 24.52C39.99 24.52 40.47 24.65 40.86 24.65C41.09 24.65 41.29 24.6 41.42 24.47C41.88 24.01 41.3 22.84 41.55 22.24C41.79 21.66 43.03 21.25 43.03 20.58C43.03 19.91 41.79 19.5 41.55 18.92C41.3 18.32 41.88 17.15 41.42 16.69C41.29 16.56 41.09 16.51 40.86 16.51C40.47 16.51 39.99 16.64 39.6 16.64C39.45 16.64 39.31 16.62 39.2 16.57C38.62 16.33 38.2 15.08 37.54 15.08H37.5C37.52 15.21 37.53 15.35 37.53 15.5C37.53 16.81 36.61 17.57 36.03 18C36.03 18.02 36.03 18.03 36.04 18.05C36.05 18.15 36.06 18.26 36.08 18.39C36.09 18.51 36.1 18.64 36.1 18.77V18.83C36.09 18.94 36.09 19.05 36.08 19.15C36.07 19.27 36.05 19.37 36.04 19.47C36.04 19.49 36.03 19.52 36.03 19.54C36.61 19.97 37.53 20.73 37.53 22.04C37.53 23.34 36.61 24.1 36.03 24.53Z" fill="#84DD5A"/>
<path d="M35.52 27.15C35.46 27.21 35.4 27.28 35.34 27.34C35.16 27.52 34.89 27.73 34.54 27.87V48.27H37.54V28.08C36.62 28.08 35.97 27.62 35.52 27.15Z" fill="#84DD5A"/>
<path d="M25.54 27.87C25.19 27.73 24.93 27.53 24.74 27.34C24.67 27.27 24.6 27.2 24.54 27.12C24.08 27.6 23.43 28.08 22.5 28.08V48.27H25.54V27.87Z" fill="#84DD5A"/>
</svg>
