<svg width="60" height="60" viewBox="0 0 60 60" fill="none" xmlns="http://www.w3.org/2000/svg">
<circle cx="30.0001" cy="30" r="29.5" fill="white" stroke="#E5E5E5"/>
<path d="M32.5593 20.92C32.2693 22.76 30.7693 24.06 29.2193 23.81C27.6693 23.56 26.6493 21.87 26.9393 20.03C27.2293 18.19 30.7293 14.3501 30.7293 14.3501C30.7293 14.3501 32.8493 19.08 32.5593 20.92Z" fill="#979797"/>
<path d="M26.2293 26.4601C26.4893 28.3101 25.4393 29.98 23.8793 30.2C22.3193 30.42 20.8492 29.1 20.5892 27.25C20.3292 25.4 22.5492 20.7101 22.5492 20.7101C22.5492 20.7101 25.9693 24.6101 26.2293 26.4601Z" fill="#979797"/>
<path d="M45.7893 28.76C47.4493 29.6 48.2292 31.42 47.5192 32.83C46.8092 34.23 44.8793 34.68 43.2193 33.84C41.5593 33 38.9693 28.5 38.9693 28.5C38.9693 28.5 44.1293 27.92 45.7893 28.76Z" fill="#979797"/>
<path d="M31.9993 25.28C33.2993 23.94 35.2692 23.7501 36.3992 24.8501C37.5292 25.9501 37.3792 27.92 36.0792 29.26C34.7792 30.6 29.7092 31.72 29.7092 31.72C29.7092 31.72 30.6993 26.62 31.9993 25.28Z" fill="#979797"/>
<path d="M29.7792 38.1301C29.8892 39.9901 28.6992 41.5801 27.1292 41.6701C25.5592 41.7601 24.1992 40.3201 24.0892 38.4601C23.9792 36.6001 26.5692 32.1001 26.5692 32.1001C26.5692 32.1001 29.6692 36.2701 29.7792 38.1301Z" fill="#979797"/>
<path d="M29.4892 43.6701C31.1792 42.8801 33.0893 43.4 33.7493 44.83C34.4093 46.26 33.5793 48.05 31.8793 48.83C30.1793 49.61 25.0492 48.86 25.0492 48.86C25.0492 48.86 27.7892 44.4601 29.4892 43.6701Z" fill="#979797"/>
<path d="M40.7392 38.52C41.9492 37.1 43.8993 36.76 45.0993 37.78C46.2993 38.8 46.2892 40.7701 45.0892 42.2001C43.8892 43.6301 38.9093 45.1 38.9093 45.1C38.9093 45.1 39.5292 39.94 40.7392 38.52Z" fill="#979797"/>
<path d="M17.7992 24.87C17.5492 26.72 16.0892 28.05 14.5292 27.84C12.9692 27.63 11.9092 25.97 12.1492 24.12C12.3992 22.27 15.7892 18.3501 15.7892 18.3501C15.7892 18.3501 18.0392 23.02 17.7992 24.87Z" fill="#979797"/>
<path d="M25.6792 17.53C24.3892 18.88 22.4192 19.09 21.2892 18.01C20.1492 16.92 20.2792 14.9501 21.5692 13.6001C22.8592 12.2501 27.9092 11.08 27.9092 11.08C27.9092 11.08 26.9692 16.18 25.6792 17.53Z" fill="#979797"/>
<path d="M39.1192 11.28C40.9292 11.72 42.0993 13.31 41.7293 14.84C41.3593 16.37 39.5893 17.25 37.7793 16.81C35.9693 16.37 32.4193 12.5801 32.4193 12.5801C32.4193 12.5801 37.3092 10.84 39.1192 11.28Z" fill="#979797"/>
<path d="M19.1792 30.39C20.9392 31 21.9593 32.7 21.4393 34.18C20.9293 35.67 19.0793 36.38 17.3193 35.77C15.5593 35.16 12.3893 31.05 12.3893 31.05C12.3893 31.05 17.4092 29.78 19.1792 30.39Z" fill="#979797"/>
<path d="M37.0993 38.72C36.0493 40.26 34.1493 40.8001 32.8493 39.9201C31.5493 39.0401 31.3393 37.07 32.3893 35.53C33.4393 33.99 38.2293 31.9901 38.2293 31.9901C38.2293 31.9901 38.1493 37.17 37.0993 38.72Z" fill="#979797"/>
<path d="M17.5393 43.78C15.9393 42.82 15.2993 40.95 16.0993 39.6C16.9093 38.25 18.8592 37.94 20.4592 38.9C22.0592 39.86 24.3193 44.53 24.3193 44.53C24.3193 44.53 19.1393 44.74 17.5393 43.78Z" fill="#979797"/>
<path d="M39.1492 24.9601C37.4192 24.2701 36.4792 22.5301 37.0592 21.0701C37.6392 19.6101 39.5192 18.99 41.2492 19.68C42.9792 20.37 45.9592 24.62 45.9592 24.62C45.9592 24.62 40.8792 25.6601 39.1492 24.9601Z" fill="#979797"/>
</svg>
