<svg width="60" height="60" viewBox="0 0 60 60" fill="none" xmlns="http://www.w3.org/2000/svg">
<circle cx="30.0001" cy="30" r="29.5" fill="white" stroke="#E5E5E5"/>
<path d="M30.5228 48.3631C32.6382 48.3631 34.9803 42.8404 34.9803 34.8968C34.9803 26.9532 32.6382 21.3549 30.5228 21.3549C28.4075 21.3549 25.9899 26.9532 25.9899 34.8968C25.9899 42.8404 28.4075 48.3631 30.5228 48.3631Z" fill="#979797"/>
<path d="M27.8029 47.8335C26.0652 45.4126 24.932 40.6465 24.932 34.8968C24.932 29.1472 26.0652 24.381 27.8029 21.9601C23.8743 23.6245 21.0034 28.7689 21.079 34.8968C21.1545 41.0247 23.8743 46.1692 27.8029 47.8335Z" fill="#979797"/>
<path d="M24.4789 47.0013C21.6835 44.3535 19.8703 39.8899 19.8703 34.8968C19.8703 29.9037 21.6835 25.4401 24.4789 22.7923C22.232 23.9145 20.342 25.6417 19.021 27.7798C17.6999 29.918 17.0001 32.3825 17.0001 34.8968C17.0001 37.4111 17.6999 39.8756 19.021 42.0138C20.342 44.1519 22.232 45.8791 24.4789 47.0013Z" fill="#979797"/>
<path d="M36.4911 22.7923C39.2864 25.4401 41.0996 29.9037 41.0996 34.8968C41.0996 39.8899 39.2864 44.3535 36.4911 47.0013C38.7379 45.8791 40.6279 44.1519 41.949 42.0138C43.27 39.8756 43.9698 37.4111 43.9698 34.8968C43.9698 32.3825 43.27 29.918 41.949 27.7798C40.6279 25.6417 38.7379 23.9145 36.4911 22.7923Z" fill="#979797"/>
<path d="M33.2426 47.8335C37.1711 46.1692 39.9665 41.0247 39.9665 34.8968C39.9665 28.7689 37.1711 23.6245 33.2426 21.9601C34.9802 24.381 36.1134 29.1472 36.1134 34.8968C36.1134 40.6465 34.9802 45.4126 33.2426 47.8335Z" fill="#979797"/>
<path d="M30.5228 20.2201C31.7728 20.224 33.017 20.3893 34.2248 20.7118V15L30.5228 18.707L26.8209 15V20.7118C28.0289 20.3902 29.273 20.225 30.5228 20.2201Z" fill="#979797"/>
</svg>
