<svg width="60" height="60" viewBox="0 0 60 60" fill="none" xmlns="http://www.w3.org/2000/svg">
<circle cx="30.0001" cy="30" r="29.5" fill="white" stroke="#E5E5E5"/>
<path d="M21.936 18.6291C21.576 19.6991 21.4559 20.7791 21.5359 21.7791C21.6359 23.0191 21.176 24.2691 20.216 25.0691C19.066 26.0391 18.0759 27.4591 17.5059 29.1491C16.2359 32.9391 17.4459 36.8991 20.1459 37.8091C22.8459 38.7191 26.2059 36.2891 27.4859 32.4991C28.0559 30.8091 28.1259 29.0891 27.7859 27.6091C27.5059 26.3891 27.8959 25.1191 28.7259 24.1891C29.3959 23.4391 29.956 22.4991 30.306 21.4391C31.376 18.2591 30.3559 14.9291 28.0859 14.1591C25.8259 13.3991 22.996 15.4391 21.936 18.6291Z" fill="#979797"/>
<path d="M21.3559 29.0191C21.9082 29.0191 22.3559 28.5714 22.3559 28.0191C22.3559 27.4668 21.9082 27.0191 21.3559 27.0191C20.8036 27.0191 20.3559 27.4668 20.3559 28.0191C20.3559 28.5714 20.8036 29.0191 21.3559 29.0191Z" fill="white"/>
<path d="M23.3559 26.0191C23.9082 26.0191 24.3559 25.5714 24.3559 25.0191C24.3559 24.4668 23.9082 24.0191 23.3559 24.0191C22.8036 24.0191 22.3559 24.4668 22.3559 25.0191C22.3559 25.5714 22.8036 26.0191 23.3559 26.0191Z" fill="white"/>
<path d="M19.3559 32.0191C19.9082 32.0191 20.3559 31.5714 20.3559 31.0191C20.3559 30.4668 19.9082 30.0191 19.3559 30.0191C18.8036 30.0191 18.3559 30.4668 18.3559 31.0191C18.3559 31.5714 18.8036 32.0191 19.3559 32.0191Z" fill="white"/>
<path d="M20.3559 35.0191C20.9082 35.0191 21.3559 34.5714 21.3559 34.0191C21.3559 33.4668 20.9082 33.0191 20.3559 33.0191C19.8036 33.0191 19.3559 33.4668 19.3559 34.0191C19.3559 34.5714 19.8036 35.0191 20.3559 35.0191Z" fill="white"/>
<path d="M33.686 28.5391C33.326 29.6091 33.2059 30.6891 33.2859 31.6891C33.3859 32.9291 32.926 34.1791 31.966 34.9791C30.816 35.9491 29.8259 37.3691 29.2559 39.0591C27.9859 42.8491 29.1959 46.8091 31.8959 47.7191C34.5959 48.6291 37.9559 46.1991 39.2359 42.4091C39.8059 40.7191 39.8759 38.9991 39.5359 37.5191C39.2559 36.2991 39.6459 35.0291 40.4759 34.0991C41.1459 33.3491 41.706 32.4091 42.056 31.3491C43.126 28.1691 42.1059 24.8391 39.8359 24.0691C37.5759 23.3191 34.746 25.3591 33.686 28.5391Z" fill="#979797"/>
<path d="M33.3859 38.8791C33.9382 38.8791 34.3859 38.4314 34.3859 37.8791C34.3859 37.3268 33.9382 36.8791 33.3859 36.8791C32.8336 36.8791 32.3859 37.3268 32.3859 37.8791C32.3859 38.4314 32.8336 38.8791 33.3859 38.8791Z" fill="white"/>
<path d="M35.3859 35.8791C35.9382 35.8791 36.3859 35.4314 36.3859 34.8791C36.3859 34.3268 35.9382 33.8791 35.3859 33.8791C34.8336 33.8791 34.3859 34.3268 34.3859 34.8791C34.3859 35.4314 34.8336 35.8791 35.3859 35.8791Z" fill="white"/>
<path d="M31.3859 41.8791C31.9382 41.8791 32.3859 41.4314 32.3859 40.8791C32.3859 40.3268 31.9382 39.8791 31.3859 39.8791C30.8336 39.8791 30.3859 40.3268 30.3859 40.8791C30.3859 41.4314 30.8336 41.8791 31.3859 41.8791Z" fill="white"/>
<path d="M32.3859 44.8791C32.9382 44.8791 33.3859 44.4314 33.3859 43.8791C33.3859 43.3268 32.9382 42.8791 32.3859 42.8791C31.8336 42.8791 31.3859 43.3268 31.3859 43.8791C31.3859 44.4314 31.8336 44.8791 32.3859 44.8791Z" fill="white"/>
</svg>
