<svg width="60" height="60" viewBox="0 0 60 60" fill="none" xmlns="http://www.w3.org/2000/svg">
<circle cx="30.0001" cy="30" r="29.5" fill="white" stroke="#E5E5E5"/>
<path d="M26.7199 25.7499C28.0178 25.7499 29.0699 24.6977 29.0699 23.3999C29.0699 22.102 28.0178 21.0499 26.7199 21.0499C25.4221 21.0499 24.3699 22.102 24.3699 23.3999C24.3699 24.6977 25.4221 25.7499 26.7199 25.7499Z" fill="#F7F7F7"/>
<path d="M33.0299 21.2999H28.8499C29.3499 21.8099 29.6699 22.4999 29.7099 23.2699C29.7799 24.9199 28.4999 26.3199 26.8399 26.3999C26.8299 26.3999 26.7199 26.3999 26.7099 26.3999C25.0999 26.3999 23.7799 25.1399 23.7099 23.5299C23.6699 22.7299 23.9499 21.9599 24.4999 21.3699C24.5199 21.3399 24.5499 21.3199 24.5799 21.2999H17.9899L17.9499 25.2799C18.0899 28.4999 22.5299 30.2799 25.7499 30.1399L33.1499 30.1999C33.8299 28.7999 33.7799 22.7099 33.0299 21.2999Z" fill="#979797"/>
<path d="M26.7199 21.3999C27.7799 21.3999 28.6699 22.2399 28.7199 23.3099C28.7699 24.4099 27.9099 25.3499 26.8099 25.3999C26.7799 25.3999 26.7499 25.3999 26.7199 25.3999C25.6599 25.3999 24.7699 24.5599 24.7199 23.4899C24.6699 22.3899 25.5299 21.4499 26.6299 21.3999C26.6599 21.3999 26.6899 21.3999 26.7199 21.3999ZM26.7199 19.3999C26.6599 19.3999 26.5999 19.3999 26.5399 19.3999C24.3399 19.4999 22.6199 21.3699 22.7199 23.5699C22.8099 25.7199 24.5699 27.3999 26.7099 27.3999C26.7699 27.3999 26.8299 27.3999 26.8899 27.3999C29.0899 27.2999 30.8099 25.4299 30.7099 23.2299C30.6199 21.0799 28.8599 19.3999 26.7199 19.3999Z" fill="#979797"/>
<path d="M17.95 38.3602C17.34 38.3602 16.72 38.2402 16.13 37.9802C14.79 37.4002 13.76 36.3302 13.22 34.9702C12.68 33.6102 12.71 32.1202 13.29 30.7802C14.48 28.0402 17.2 26.4802 21.38 26.1402L21.54 28.1302C18.11 28.4102 16.01 29.5402 15.12 31.5802C14.75 32.4302 14.73 33.3702 15.07 34.2402C15.41 35.1102 16.07 35.7802 16.92 36.1502C18.22 36.7102 19.74 36.1202 20.31 34.8102C20.72 33.8702 20.29 32.7702 19.34 32.3602L20.14 30.5302C22.09 31.3802 22.99 33.6602 22.14 35.6102C21.41 37.3302 19.72 38.3602 17.95 38.3602Z" fill="#979797"/>
<path d="M35.7401 25.3702C35.8001 26.8202 35.7401 28.1802 35.5601 29.2102C35.5201 29.4302 35.4501 29.8202 35.3101 30.2302L37.5601 30.2502C37.9601 30.2302 38.3301 30.2802 38.6901 30.3702C38.7101 30.3602 38.7201 30.3502 38.7201 30.3602C39.8501 29.9902 42.9201 25.1602 43.4101 23.2002C41.9101 22.0602 40.0201 21.3902 37.9301 21.3102H35.1501C35.1801 21.4102 35.2001 21.4902 35.2201 21.5602C35.4901 22.5702 35.6801 23.9202 35.7401 25.3702Z" fill="#979797"/>
<path d="M40.5299 33.4699C40.4699 33.6899 40.3799 33.8899 40.2699 34.0899C41.8099 34.4299 44.2399 34.5899 45.9999 34.3499C46.5999 32.9899 46.9199 31.4599 46.8499 29.8799C46.7599 27.8699 46.0699 26.1199 44.9699 24.7299C44.6199 25.6299 44.0899 26.6599 43.3399 27.8699C42.2499 29.6399 41.2699 30.8799 40.3999 31.5999C40.6599 32.0999 40.7399 32.7299 40.5299 33.4699Z" fill="#979797"/>
<path d="M44.7499 36.4299C44.4399 36.4399 44.1199 36.4599 43.7999 36.4599C41.8499 36.4599 39.8199 36.1699 38.4799 35.5799C38.2299 35.6599 37.9699 35.7099 37.7099 35.7199C37.6599 35.7199 37.5899 35.7199 37.5599 35.7199L28.9499 34.2899V40.2699L37.7399 39.9499V39.9399C40.6299 39.9099 43.0999 38.5199 44.7499 36.4299Z" fill="#979797"/>
</svg>
