<svg width="60" height="60" viewBox="0 0 60 60" fill="none" xmlns="http://www.w3.org/2000/svg">
<circle cx="30.0001" cy="30" r="29.5" fill="white" stroke="#E5E5E5"/>
<path d="M15.6161 37.14C14.7759 39.2794 14.7959 41.6609 15.672 43.7858C16.5481 45.9108 18.2123 47.6144 20.3161 48.54C21.7072 49.1208 23.2431 49.2604 24.7161 48.94C23.4238 47.935 22.3813 46.6449 21.6701 45.1704C20.9589 43.6959 20.5982 42.077 20.6161 40.44C20.6161 38.54 21.8161 36.54 23.2161 34.14C24.5866 32.0351 25.7265 29.7889 26.6161 27.44C25.4161 28.54 24.0161 29.74 22.8161 30.64C22.0138 31.2819 21.1793 31.8826 20.3161 32.44C17.9161 34.14 16.4161 35.24 15.6161 37.14Z" fill="#979797"/>
<path d="M39.9169 40.2758C39.9169 38.8758 38.7169 36.9758 37.4169 34.8758C35.6376 32.2607 34.2559 29.3962 33.3169 26.3758C33.2987 26.0346 33.2313 25.6978 33.1169 25.3758C32.9677 24.5827 32.8675 23.7812 32.8169 22.9758C32.6509 21.1992 32.7861 19.4074 33.2169 17.6758C32.6992 17.2394 32.0439 17 31.3669 17C30.6898 17 30.0345 17.2394 29.5169 17.6758C29.9844 19.3669 30.1536 21.1266 30.0169 22.8758C29.9324 23.6832 29.7988 24.4847 29.6169 25.2758C29.5169 25.6758 29.4169 25.9758 29.3169 26.3758C28.4239 29.3161 27.1103 32.1117 25.4169 34.6758C24.1169 36.7758 23.0169 38.6758 23.0169 40.1758C22.9981 41.7735 23.4051 43.3474 24.196 44.7358C24.9868 46.1242 26.133 47.277 27.5169 48.0758C28.0768 48.4248 28.6826 48.6941 29.3169 48.8758C30.0321 49.0802 30.773 49.1812 31.5169 49.1758C32.1879 49.1638 32.8568 49.0969 33.5169 48.9758C34.1475 48.8307 34.7538 48.5949 35.3169 48.2758C36.7258 47.4719 37.8948 46.3068 38.7034 44.9006C39.512 43.4943 39.9309 41.8979 39.9169 40.2758Z" fill="#979797"/>
<path d="M40.5162 48.54C44.8162 46.84 46.9162 41.64 45.2162 37.04C44.4162 35.14 42.8162 34.04 40.5162 32.34C39.653 31.7826 38.8186 31.1818 38.0162 30.54C36.9162 29.64 35.5162 28.44 34.2162 27.34C35.139 29.7558 36.312 32.0683 37.7162 34.24C39.1162 36.54 40.4162 38.54 40.4162 40.44C40.4163 42.0842 40.0374 43.7064 39.309 45.1805C38.5806 46.6547 37.5223 47.9411 36.2162 48.94C37.6607 49.1604 39.1372 49.0231 40.5162 48.54Z" fill="#979797"/>
</svg>
