<svg width="54" height="41" viewBox="0 0 54 41" fill="none" xmlns="http://www.w3.org/2000/svg">
<g id="Frame">
<g id="Group">
<path id="Vector" d="M24.645 6.23626C23.5816 6.46538 22.3821 6.94908 21.5783 7.45824C21.0219 7.80192 20.923 7.91648 20.96 8.20924C21.0219 8.70567 21.3928 8.68021 22.4439 8.09468C24.9789 6.6945 28.2681 6.6945 30.7907 8.09468C32.0273 8.76931 32.4353 8.75659 32.2622 8.03104C32.2004 7.80192 31.916 7.58553 31.038 7.14001C30.4197 6.83452 29.5665 6.47811 29.1584 6.36355C28.1445 6.08352 25.6713 6.01987 24.645 6.23626Z" fill="#252424"/>
<path id="Vector_2" d="M24.6329 9.60943C23.6931 9.91492 22.6915 10.5005 22.5925 10.7932C22.5184 11.0478 22.7286 11.4042 22.9635 11.4042C23.0377 11.4042 23.4952 11.2005 23.9651 10.9587C24.4597 10.6914 25.1893 10.4495 25.6716 10.3604C26.7845 10.1695 27.9097 10.3732 29.035 10.9587C29.5173 11.2005 29.9995 11.4042 30.1108 11.4042C30.3458 11.4042 30.4942 11.0351 30.3952 10.7296C30.2963 10.475 28.9732 9.76218 28.1818 9.54579C27.2915 9.30394 25.4861 9.32939 24.6329 9.60943Z" fill="#252424"/>
<path id="Vector_3" d="M25.7703 12.2443C25.4241 12.7026 25.4365 13.2499 25.8198 13.6318C26.7101 14.561 28.0209 13.2754 27.2295 12.2443C27.0316 11.9897 26.8709 11.9134 26.4999 11.9134C26.1289 11.9134 25.9682 11.9897 25.7703 12.2443Z" fill="#252424"/>
<path id="Vector_4" d="M24.3361 15.0447C23.8662 15.1465 22.8893 15.5284 22.1845 15.8848C21.0592 16.4321 20.7377 16.674 19.8226 17.6286C18.9694 18.4942 18.6479 18.9397 18.2399 19.8053C17.4732 21.3964 17.1022 23.5094 17.535 23.8785C17.6339 23.9549 17.8194 23.9931 17.9554 23.9422C18.1409 23.8785 18.2151 23.713 18.2769 23.1402C18.5119 21.0273 19.0931 19.7798 20.5028 18.3415C22.1845 16.5976 24.064 15.8084 26.5619 15.8084C29.0597 15.8084 30.9517 16.5976 32.6334 18.3287C34.0183 19.7544 34.649 21.0909 34.8468 23.0766C34.921 23.713 34.9829 23.8913 35.1683 23.9422C35.8114 24.1586 35.9474 23.2166 35.527 21.5364C35.1436 19.9835 34.513 18.8761 33.3011 17.6286C32.3861 16.674 32.077 16.4448 30.9517 15.8848C30.1603 15.4902 29.2823 15.1592 28.7011 15.0447C27.5264 14.7901 25.4861 14.8028 24.3361 15.0447Z" fill="#252424"/>
<path id="Vector_5" d="M23.1119 17.2213C21.6775 18.1123 20.0823 20.098 19.6742 21.4982C19.5506 21.9055 19.563 22.0074 19.7237 22.1728C20.0576 22.5292 20.3544 22.2619 20.849 21.2054C21.3931 20.0089 22.5554 18.7233 23.7549 17.9723C24.435 17.5522 24.5339 17.4377 24.4968 17.1449C24.4474 16.6485 23.9775 16.674 23.1119 17.2213Z" fill="#252424"/>
<path id="Vector_6" d="M16.6446 24.7441C16.4715 24.8586 15 28.27 15 28.5628C15 28.69 15.0618 28.8555 15.1484 28.9446C15.3586 29.161 37.6414 29.161 37.8516 28.9446C37.9382 28.8555 38 28.6773 38 28.5246C38 28.1936 36.5532 24.8714 36.3554 24.7441C36.1575 24.6168 16.8425 24.6168 16.6446 24.7441ZM36.2688 26.8316C36.4914 27.3408 36.7016 27.8372 36.7263 27.9136C36.7758 28.0409 34.686 28.0791 26.5 28.0791C18.314 28.0791 16.2242 28.0409 16.2737 27.9136C16.2984 27.8372 16.5086 27.3408 16.7312 26.8316L17.1392 25.9151H26.5H35.8608L36.2688 26.8316Z" fill="#252424"/>
</g>
</g>
</svg>
