<svg width="20" height="20" viewBox="0 0 20 20" fill="none" xmlns="http://www.w3.org/2000/svg">
<g id="ic:round-arrow-back-ios">
<path id="Vector" d="M13.675 2.83295C13.5826 2.74035 13.4729 2.66689 13.3521 2.61676C13.2313 2.56663 13.1018 2.54083 12.971 2.54083C12.8402 2.54083 12.7107 2.56663 12.5899 2.61676C12.4691 2.66689 12.3594 2.74035 12.267 2.83295L5.65682 9.44318C5.58308 9.51677 5.52458 9.60418 5.48466 9.70041C5.44474 9.79664 5.42419 9.89979 5.42419 10.004C5.42419 10.1082 5.44474 10.2113 5.48466 10.3075C5.52458 10.4038 5.58308 10.4912 5.65682 10.5648L12.267 17.175C12.6568 17.5648 13.2852 17.5648 13.675 17.175C14.0648 16.7852 14.0648 16.1568 13.675 15.767L7.91591 10L13.683 4.23295C14.0648 3.85113 14.0648 3.21477 13.675 2.83295Z" fill="#343A40"/>
</g>
</svg>
