<svg width="22" height="23" viewBox="0 0 22 23" fill="none" xmlns="http://www.w3.org/2000/svg">
<g id="InfoOutlined">
<path id="Vector" d="M10.0833 6.91658H11.9166V8.74992H10.0833V6.91658ZM10.0833 10.5833H11.9166V16.0833H10.0833V10.5833ZM11 2.33325C5.93998 2.33325 1.83331 6.43992 1.83331 11.4999C1.83331 16.5599 5.93998 20.6666 11 20.6666C16.06 20.6666 20.1666 16.5599 20.1666 11.4999C20.1666 6.43992 16.06 2.33325 11 2.33325ZM11 18.8333C6.95748 18.8333 3.66665 15.5424 3.66665 11.4999C3.66665 7.45742 6.95748 4.16659 11 4.16659C15.0425 4.16659 18.3333 7.45742 18.3333 11.4999C18.3333 15.5424 15.0425 18.8333 11 18.8333Z" fill="#0288D1"/>
</g>
</svg>
